<svg width="24" height="24" viewBox="0 0 24 24" fill="none" xmlns="http://www.w3.org/2000/svg">
<path d="M19.1176 15.7746V17.3923C19.1176 18.5835 18.1519 19.5491 16.9608 19.5491H15.451M4.88232 15.7746V17.3923C4.88232 18.5835 5.84799 19.5491 7.03919 19.5491H8.44115M4.88232 8.54912V7.25501C4.88232 6.06382 5.84799 5.09814 7.03919 5.09814H8.44115M19.1176 8.54912V7.25501C19.1176 6.06382 18.1519 5.09814 16.9608 5.09814H15.451M4.88232 13.5369V12.1619V10.7869M19.1176 13.5369V12.1619V10.7869M13.1593 5.09814H11.7304H10.5171M13.1593 19.5491H11.7304H10.5171M8.11762 14.804L10.7241 9.67261C10.7381 9.64496 10.7665 9.62756 10.7975 9.62756C10.8293 9.62756 10.8583 9.64593 10.8719 9.67473L13.2941 14.804M9.41174 13.5099H11.7843M15.6666 14.804V9.62756M19.1176 15.6668H20.6274M8.54899 19.5491V21.2746" stroke="#03012C" stroke-width="1.5" stroke-linecap="round"/>
<path d="M4.88223 15.6665H3.15674" stroke="#03012C" stroke-width="1.5" stroke-linecap="round" stroke-linejoin="round"/>
<path d="M8.54883 5.09805V3.37256" stroke="#03012C" stroke-width="1.5" stroke-linecap="round"/>
<path d="M19.1177 8.54932H20.6275" stroke="#03012C" stroke-width="1.5" stroke-linecap="round" stroke-linejoin="round"/>
<path d="M15.4512 19.5493V21.2748" stroke="#03012C" stroke-width="1.5" stroke-linecap="round"/>
<mask id="path-6-inside-1_75_81" fill="white">
<path d="M19.9804 11.5686H19.3333V12.8627H19.9804V11.5686ZM22.3529 12.8627C22.7103 12.8627 23 12.5731 23 12.2157C23 11.8583 22.7103 11.5686 22.3529 11.5686V12.8627ZM19.9804 12.8627H22.3529V11.5686H19.9804V12.8627ZM12.4314 20.1961V19.549H11.1373V20.1961H12.4314ZM11.1373 22.5686C11.1373 22.926 11.4269 23.2157 11.7843 23.2157C12.1417 23.2157 12.4314 22.926 12.4314 22.5686H11.1373ZM11.1373 20.1961V22.5686H12.4314V20.1961H11.1373ZM4.01961 11.5686H4.66667V12.8627H4.01961V11.5686ZM1.64706 12.8627C1.28969 12.8627 1 12.5731 1 12.2157C1 11.8583 1.28969 11.5686 1.64706 11.5686V12.8627ZM4.01961 12.8627H1.64706V11.5686H4.01961V12.8627ZM12.4314 4.01961V4.66667H11.1373V4.01961H12.4314ZM11.1373 1.64706C11.1373 1.28969 11.4269 1 11.7843 1C12.1417 1 12.4314 1.28969 12.4314 1.64706H11.1373ZM11.1373 4.01961V1.64706H12.4314V4.01961H11.1373Z"/>
</mask>
<path d="M19.9804 11.5686H19.3333V12.8627H19.9804V11.5686ZM22.3529 12.8627C22.7103 12.8627 23 12.5731 23 12.2157C23 11.8583 22.7103 11.5686 22.3529 11.5686V12.8627ZM19.9804 12.8627H22.3529V11.5686H19.9804V12.8627ZM12.4314 20.1961V19.549H11.1373V20.1961H12.4314ZM11.1373 22.5686C11.1373 22.926 11.4269 23.2157 11.7843 23.2157C12.1417 23.2157 12.4314 22.926 12.4314 22.5686H11.1373ZM11.1373 20.1961V22.5686H12.4314V20.1961H11.1373ZM4.01961 11.5686H4.66667V12.8627H4.01961V11.5686ZM1.64706 12.8627C1.28969 12.8627 1 12.5731 1 12.2157C1 11.8583 1.28969 11.5686 1.64706 11.5686V12.8627ZM4.01961 12.8627H1.64706V11.5686H4.01961V12.8627ZM12.4314 4.01961V4.66667H11.1373V4.01961H12.4314ZM11.1373 1.64706C11.1373 1.28969 11.4269 1 11.7843 1C12.1417 1 12.4314 1.28969 12.4314 1.64706H11.1373ZM11.1373 4.01961V1.64706H12.4314V4.01961H11.1373Z" fill="#03012C"/>
<path d="M20.7304 12.8627V11.5686H19.2304V12.8627H20.7304ZM21.6029 11.5686V12.8627H23.1029V11.5686H21.6029ZM11.1373 20.9461H12.4314V19.4461H11.1373V20.9461ZM12.4314 21.8186H11.1373V23.3186H12.4314V21.8186ZM4.76961 12.8627V11.5686H3.26961V12.8627H4.76961ZM0.897059 11.5686V12.8627H2.39706V11.5686H0.897059ZM11.1373 4.76961H12.4314V3.26961H11.1373V4.76961ZM12.4314 0.897059H11.1373V2.39706H12.4314V0.897059ZM19.3333 11.5686V10.0686H17.8333V11.5686H19.3333ZM19.3333 12.8627H17.8333V14.3627H19.3333V12.8627ZM12.4314 19.549H13.9314V18.049H12.4314V19.549ZM11.1373 19.549V18.049H9.63725V19.549H11.1373ZM4.66667 11.5686H6.16667V10.0686H4.66667V11.5686ZM4.66667 12.8627V14.3627H6.16667V12.8627H4.66667ZM12.4314 4.66667V6.16667H13.9314V4.66667H12.4314ZM11.1373 4.66667H9.63725V6.16667H11.1373V4.66667ZM19.9804 10.0686H19.3333V13.0686H19.9804V10.0686ZM17.8333 11.5686V12.8627H20.8333V11.5686H17.8333ZM19.3333 14.3627H19.9804V11.3627H19.3333V14.3627ZM22.3529 14.3627C23.5388 14.3627 24.5 13.4015 24.5 12.2157H21.5C21.5 11.7447 21.8819 11.3627 22.3529 11.3627V14.3627ZM24.5 12.2157C24.5 11.0299 23.5388 10.0686 22.3529 10.0686V13.0686C21.8819 13.0686 21.5 12.6867 21.5 12.2157H24.5ZM19.9804 14.3627H22.3529V11.3627H19.9804V14.3627ZM22.3529 10.0686H19.9804V13.0686H22.3529V10.0686ZM13.9314 20.1961V19.549H10.9314V20.1961H13.9314ZM12.4314 18.049H11.1373V21.049H12.4314V18.049ZM9.63725 19.549V20.1961H12.6373V19.549H9.63725ZM9.63725 22.5686C9.63725 23.7545 10.5985 24.7157 11.7843 24.7157V21.7157C12.2553 21.7157 12.6373 22.0976 12.6373 22.5686H9.63725ZM11.7843 24.7157C12.9701 24.7157 13.9314 23.7545 13.9314 22.5686H10.9314C10.9314 22.0976 11.3133 21.7157 11.7843 21.7157V24.7157ZM9.63725 20.1961V22.5686H12.6373V20.1961H9.63725ZM13.9314 22.5686V20.1961H10.9314V22.5686H13.9314ZM4.01961 13.0686H4.66667V10.0686H4.01961V13.0686ZM3.16667 11.5686V12.8627H6.16667V11.5686H3.16667ZM4.66667 11.3627H4.01961V14.3627H4.66667V11.3627ZM1.64706 11.3627C2.11812 11.3627 2.5 11.7446 2.5 12.2157H-0.5C-0.5 13.4015 0.461261 14.3627 1.64706 14.3627V11.3627ZM2.5 12.2157C2.5 12.6867 2.11812 13.0686 1.64706 13.0686V10.0686C0.461261 10.0686 -0.5 11.0299 -0.5 12.2157H2.5ZM4.01961 11.3627H1.64706V14.3627H4.01961V11.3627ZM1.64706 13.0686H4.01961V10.0686H1.64706V13.0686ZM10.9314 4.01961V4.66667H13.9314V4.01961H10.9314ZM12.4314 3.16667H11.1373V6.16667H12.4314V3.16667ZM12.6373 4.66667V4.01961H9.63725V4.66667H12.6373ZM12.6373 1.64706C12.6373 2.11812 12.2554 2.5 11.7843 2.5V-0.5C10.5985 -0.5 9.63725 0.461261 9.63725 1.64706H12.6373ZM11.7843 2.5C11.3133 2.5 10.9314 2.11812 10.9314 1.64706H13.9314C13.9314 0.461261 12.9701 -0.5 11.7843 -0.5V2.5ZM12.6373 4.01961V1.64706H9.63725V4.01961H12.6373ZM10.9314 1.64706V4.01961H13.9314V1.64706H10.9314Z" fill="#03012C" mask="url(#path-6-inside-1_75_81)"/>
<path d="M4.88223 8.54932H3.15674" stroke="#03012C" stroke-width="1.5" stroke-linecap="round" stroke-linejoin="round"/>
<path d="M15.4512 5.09805V3.37256" stroke="#03012C" stroke-width="1.5" stroke-linecap="round"/>
</svg>
