<svg width="309" height="159" viewBox="0 0 309 159" fill="none" xmlns="http://www.w3.org/2000/svg">
<g filter="url(#filter0_d_459_87)">
<rect x="154" y="3" width="40" height="40" rx="20" transform="rotate(90 154 3)" fill="white"/>
<g filter="url(#filter1_d_459_87)">
<circle cx="134" cy="23.0001" r="17.8182" transform="rotate(90 134 23.0001)" fill="url(#paint0_linear_459_87)"/>
</g>
<path d="M137.039 20.5877L139.749 17.5911C140.284 17.0568 139.905 16.1428 139.149 16.1428H126.278C125.522 16.1428 125.144 17.0568 125.678 17.5911L130.571 23V27.1764C130.571 27.5136 130.73 27.8311 131 28.0336L133.142 29.6407C133.701 30.0596 134.441 29.8274 134.728 29.2772C133.753 28.3405 133.142 27.0272 133.142 25.5714C133.142 23.1663 134.805 21.1472 137.039 20.5877ZM138.285 21.2857C135.918 21.2857 134 23.2044 134 25.5714C134 27.9385 135.918 29.8571 138.285 29.8571C140.652 29.8571 142.571 27.9385 142.571 25.5714C142.571 23.2044 140.652 21.2857 138.285 21.2857ZM138.714 27.7111V28.1428C138.714 28.2612 138.618 28.3571 138.5 28.3571H138.071C137.953 28.3571 137.857 28.2612 137.857 28.1428V27.7065C137.554 27.691 137.26 27.5854 137.017 27.4025C136.912 27.324 136.907 27.1676 137.001 27.0773L137.316 26.777C137.39 26.7063 137.501 26.7031 137.587 26.7575C137.691 26.8223 137.809 26.8571 137.931 26.8571H138.684C138.858 26.8571 139 26.6986 139 26.5038C139 26.3445 138.903 26.2041 138.765 26.1628L137.559 25.8012C137.062 25.6518 136.714 25.1739 136.714 24.639C136.714 23.9822 137.224 23.4486 137.857 23.4318V23C137.857 22.8816 137.952 22.7857 138.071 22.7857H138.499C138.618 22.7857 138.714 22.8816 138.714 23V23.4363C139.016 23.4519 139.31 23.5571 139.554 23.7403C139.658 23.8188 139.664 23.9752 139.569 24.0655L139.254 24.3658C139.18 24.4365 139.07 24.4397 138.983 24.3853C138.879 24.3203 138.762 24.2857 138.64 24.2857H137.887C137.713 24.2857 137.571 24.4443 137.571 24.639C137.571 24.7984 137.667 24.9387 137.806 24.98L139.011 25.3416C139.509 25.4911 139.857 25.9689 139.857 26.5038C139.857 27.1609 139.347 27.6942 138.714 27.7111Z" fill="white"/>
</g>
<g filter="url(#filter2_d_459_87)">
<rect x="250" y="3" width="40" height="40" rx="20" transform="rotate(90 250 3)" fill="white"/>
<g filter="url(#filter3_d_459_87)">
<circle cx="230" cy="23.0001" r="17.8182" transform="rotate(90 230 23.0001)" fill="url(#paint1_linear_459_87)"/>
</g>
<path d="M225.928 22.1428H223.785C223.43 22.1428 223.143 22.4306 223.143 22.7857V29.2143C223.143 29.5693 223.43 29.8571 223.785 29.8571H225.928C226.283 29.8571 226.571 29.5693 226.571 29.2143V22.7857C226.571 22.4306 226.283 22.1428 225.928 22.1428ZM224.857 28.7857C224.502 28.7857 224.214 28.4979 224.214 28.1428C224.214 27.7878 224.502 27.5 224.857 27.5C225.212 27.5 225.5 27.7878 225.5 28.1428C225.5 28.4979 225.212 28.7857 224.857 28.7857ZM233.428 18.3246C233.428 19.4607 232.733 20.098 232.537 20.8571H235.262C236.156 20.8571 236.853 21.6003 236.857 22.4133C236.859 22.8938 236.655 23.411 236.336 23.7311L236.333 23.734C236.597 24.3591 236.554 25.235 236.084 25.8627C236.316 26.5563 236.082 27.4083 235.645 27.8651C235.76 28.3365 235.705 28.7376 235.48 29.0606C234.934 29.846 233.579 29.8571 232.433 29.8571L232.357 29.8571C231.063 29.8566 230.005 29.3857 229.154 29.0073C228.727 28.8172 228.168 28.5818 227.744 28.574C227.569 28.5708 227.428 28.4278 227.428 28.2526V22.5266C227.428 22.4409 227.463 22.3586 227.524 22.2984C228.585 21.2499 229.041 20.1398 229.911 19.2686C230.307 18.8713 230.451 18.2712 230.591 17.6909C230.71 17.1953 230.959 16.1428 231.5 16.1428C232.143 16.1428 233.428 16.3571 233.428 18.3246Z" fill="white"/>
</g>
<g filter="url(#filter4_d_459_87)">
<rect x="58" y="87" width="40" height="40" rx="20" transform="rotate(90 58 87)" fill="white"/>
<g filter="url(#filter5_d_459_87)">
<circle cx="37.9997" cy="107" r="17.8182" transform="rotate(90 37.9997 107)" fill="url(#paint2_linear_459_87)"/>
</g>
<circle cx="33.9881" cy="101.423" r="1.54466" fill="white" stroke="white" stroke-width="0.0401212"/>
<path d="M39.8054 110.852C37.013 110.852 30.6043 115.118 27.749 117.251L48.2509 117.171V114.563C46.5993 113.326 42.5979 110.852 39.8054 110.852Z" fill="white"/>
<path d="M39.4041 100.059L39.0441 97.5591C39.2911 97.6452 39.8638 97.7541 40.3469 97.5515C40.9688 97.2907 42.032 96.8293 42.4934 96.709C42.8625 96.6127 43.2089 96.7758 43.336 96.8694C43.1554 96.8694 42.353 97.8324 42.353 98.053C42.353 98.1734 43.0551 98.5345 43.7572 99.4171C43.1354 99.1363 42.5135 99.2165 41.5706 99.7983C40.8164 100.264 40.24 100.3 40.046 100.26C39.8695 100.244 39.5445 100.119 39.4041 100.059Z" fill="white"/>
<path d="M29.1343 100.197C28.8615 100.357 28.8736 100.692 28.9137 100.839L30.1574 103.266C30.8061 103.875 32.1234 105.132 32.2036 105.292C32.2839 105.453 32.3173 105.573 32.324 105.613C32.3173 108.221 32.3079 113.473 32.324 113.617C32.34 113.762 32.4778 113.932 32.5446 113.998L33.7483 113.276L33.8085 109.304H34.0291L35.1124 112.614L36.3762 111.932L35.4735 108.723V105.613C35.5002 105.58 35.4635 105.537 35.5939 105.413C35.6721 105.338 35.7343 105.292 35.8747 105.292C36.209 105.794 36.958 106.797 37.2789 106.797C37.5999 106.797 39.2449 106.703 40.0272 106.656C40.1476 106.603 40.3843 106.404 40.3683 106.034C40.3522 105.665 40.0005 105.546 39.8266 105.533L37.5798 105.613C37.1987 105.125 36.3963 104.105 36.2358 103.928C36.0753 103.752 34.9385 103.467 34.3902 103.346L33.989 104.008L34.4303 107.419L33.8887 108.02L33.3671 107.419L33.8085 104.008L33.327 103.346C32.9726 103.42 32.2437 103.559 32.1635 103.527C32.0833 103.495 31.4079 102.858 31.0802 102.544L29.8365 100.197C29.7161 100.13 29.4072 100.036 29.1343 100.197Z" fill="white"/>
<path d="M38.2607 97.5515L40.2467 110.531" stroke="white" stroke-width="0.641938" stroke-linecap="round"/>
</g>
<g filter="url(#filter6_d_459_87)">
<rect x="154" y="87" width="40" height="40" rx="20" transform="rotate(90 154 87)" fill="white"/>
<g filter="url(#filter7_d_459_87)">
<circle cx="134" cy="107" r="17.8182" transform="rotate(90 134 107)" fill="url(#paint3_linear_459_87)"/>
</g>
<path d="M137.482 101.169H134.874C134.631 101.169 134.397 101.26 134.218 101.424L131.234 104.156C131.231 104.159 131.228 104.165 131.225 104.168C130.721 104.642 130.73 105.398 131.161 105.869C131.547 106.291 132.357 106.403 132.864 105.951C132.867 105.948 132.873 105.948 132.876 105.944L135.302 103.722C135.5 103.543 135.809 103.555 135.988 103.752C136.171 103.95 136.155 104.256 135.958 104.439L135.166 105.164L139.586 108.753C139.674 108.826 139.753 108.905 139.826 108.987V103.112L138.168 101.454C137.989 101.272 137.74 101.169 137.482 101.169ZM140.801 103.118V109.916C140.801 110.453 141.235 110.887 141.772 110.887H143.715V103.118H140.801ZM142.258 109.916C141.991 109.916 141.772 109.697 141.772 109.43C141.772 109.163 141.991 108.944 142.258 108.944C142.525 108.944 142.744 109.163 142.744 109.43C142.744 109.697 142.525 109.916 142.258 109.916ZM124.284 110.884H126.227C126.765 110.884 127.199 110.45 127.199 109.913V103.118H124.284V110.884ZM125.742 108.944C126.009 108.944 126.227 109.163 126.227 109.43C126.227 109.697 126.009 109.916 125.742 109.916C125.474 109.916 125.256 109.697 125.256 109.43C125.256 109.16 125.474 108.944 125.742 108.944ZM138.976 109.509L134.443 105.829L133.532 106.664C132.63 107.487 131.249 107.408 130.444 106.53C129.628 105.638 129.691 104.256 130.578 103.443L133.062 101.169H130.517C130.259 101.169 130.013 101.272 129.831 101.454L128.17 103.112V109.91H128.726L131.474 112.396C132.306 113.073 133.529 112.946 134.206 112.114L134.212 112.108L134.756 112.578C135.238 112.973 135.952 112.897 136.344 112.414L137.297 111.242L137.461 111.376C137.877 111.713 138.49 111.652 138.827 111.233L139.116 110.878C139.456 110.459 139.392 109.849 138.976 109.509Z" fill="white"/>
</g>
<g filter="url(#filter8_d_459_87)">
<rect x="250" y="87" width="40" height="40" rx="20" transform="rotate(90 250 87)" fill="white"/>
<g filter="url(#filter9_d_459_87)">
<circle cx="230" cy="107" r="17.8182" transform="rotate(90 230 107)" fill="url(#paint4_linear_459_87)"/>
</g>
<path d="M231 103.25V99H224.75C224.334 99 224 99.3344 224 99.75V114.25C224 114.666 224.334 115 224.75 115H235.25C235.666 115 236 114.666 236 114.25V104H231.75C231.338 104 231 103.663 231 103.25ZM233 110.625C233 110.831 232.831 111 232.625 111H227.375C227.169 111 227 110.831 227 110.625V110.375C227 110.169 227.169 110 227.375 110H232.625C232.831 110 233 110.169 233 110.375V110.625ZM233 108.625C233 108.831 232.831 109 232.625 109H227.375C227.169 109 227 108.831 227 108.625V108.375C227 108.169 227.169 108 227.375 108H232.625C232.831 108 233 108.169 233 108.375V108.625ZM233 106.375V106.625C233 106.831 232.831 107 232.625 107H227.375C227.169 107 227 106.831 227 106.625V106.375C227 106.169 227.169 106 227.375 106H232.625C232.831 106 233 106.169 233 106.375ZM236 102.809V103H232V99H232.191C232.391 99 232.581 99.0781 232.722 99.2188L235.781 102.281C235.922 102.422 236 102.613 236 102.809Z" fill="white"/>
</g>
<g filter="url(#filter10_d_459_87)">
<rect x="58" y="3" width="40" height="40" rx="20" transform="rotate(90 58 3)" fill="white"/>
<g filter="url(#filter11_d_459_87)">
<circle cx="37.9997" cy="23.0001" r="17.8182" transform="rotate(90 37.9997 23.0001)" fill="url(#paint5_linear_459_87)"/>
</g>
<path d="M42.6419 21.6064C42.6419 22.9381 42.2096 24.1683 41.4814 25.1663L45.1545 28.8424C45.5172 29.205 45.5172 29.794 45.1545 30.1567C44.7918 30.5193 44.2029 30.5193 43.8402 30.1567L40.1671 26.4806C39.169 27.2118 37.9388 27.6412 36.6071 27.6412C33.2734 27.6412 30.5723 24.94 30.5723 21.6064C30.5723 18.2727 33.2734 15.5715 36.6071 15.5715C39.9408 15.5715 42.6419 18.2727 42.6419 21.6064ZM33.5897 21.8385V23.6953C33.5897 24.0812 33.9001 24.3917 34.286 24.3917C34.6719 24.3917 34.9823 24.0812 34.9823 23.6953V21.8385C34.9823 21.4526 34.6719 21.1421 34.286 21.1421C33.9001 21.1421 33.5897 21.4526 33.5897 21.8385ZM35.9108 19.0532V23.6953C35.9108 24.0812 36.2212 24.3917 36.6071 24.3917C36.993 24.3917 37.3034 24.0812 37.3034 23.6953V19.0532C37.3034 18.6673 36.993 18.3568 36.6071 18.3568C36.2212 18.3568 35.9108 18.6673 35.9108 19.0532ZM38.2319 20.91V23.6953C38.2319 24.0812 38.5423 24.3917 38.9282 24.3917C39.3141 24.3917 39.6245 24.0812 39.6245 23.6953V20.91C39.6245 20.5242 39.3141 20.2137 38.9282 20.2137C38.5423 20.2137 38.2319 20.5242 38.2319 20.91Z" fill="white"/>
<path d="M22 24H249.5C272.42 24 291 42.5802 291 65.5V65.5C291 88.4198 272.42 107 249.5 107H22" stroke="#26A96C" stroke-opacity="0.6" stroke-dasharray="10 10"/>
</g>
<defs>
<filter id="filter0_d_459_87" x="96.5455" y="0.09091" width="74.9091" height="74.9091" filterUnits="userSpaceOnUse" color-interpolation-filters="sRGB">
<feFlood flood-opacity="0" result="BackgroundImageFix"/>
<feColorMatrix in="SourceAlpha" type="matrix" values="0 0 0 0 0 0 0 0 0 0 0 0 0 0 0 0 0 0 127 0" result="hardAlpha"/>
<feOffset dy="14.5455"/>
<feGaussianBlur stdDeviation="8.72727"/>
<feColorMatrix type="matrix" values="0 0 0 0 0.541176 0 0 0 0 0.313726 0 0 0 0 0.901961 0 0 0 0.06 0"/>
<feBlend mode="normal" in2="BackgroundImageFix" result="effect1_dropShadow_459_87"/>
<feBlend mode="normal" in="SourceGraphic" in2="effect1_dropShadow_459_87" result="shape"/>
</filter>
<filter id="filter1_d_459_87" x="108.182" y="5.18188" width="51.6362" height="51.6364" filterUnits="userSpaceOnUse" color-interpolation-filters="sRGB">
<feFlood flood-opacity="0" result="BackgroundImageFix"/>
<feColorMatrix in="SourceAlpha" type="matrix" values="0 0 0 0 0 0 0 0 0 0 0 0 0 0 0 0 0 0 127 0" result="hardAlpha"/>
<feMorphology radius="9.45455" operator="erode" in="SourceAlpha" result="effect1_dropShadow_459_87"/>
<feOffset dy="8"/>
<feGaussianBlur stdDeviation="8.72727"/>
<feColorMatrix type="matrix" values="0 0 0 0 0.14902 0 0 0 0 0.662745 0 0 0 0 0.423529 0 0 0 1 0"/>
<feBlend mode="normal" in2="BackgroundImageFix" result="effect1_dropShadow_459_87"/>
<feBlend mode="normal" in="SourceGraphic" in2="effect1_dropShadow_459_87" result="shape"/>
</filter>
<filter id="filter2_d_459_87" x="192.545" y="0.09091" width="74.9091" height="74.9091" filterUnits="userSpaceOnUse" color-interpolation-filters="sRGB">
<feFlood flood-opacity="0" result="BackgroundImageFix"/>
<feColorMatrix in="SourceAlpha" type="matrix" values="0 0 0 0 0 0 0 0 0 0 0 0 0 0 0 0 0 0 127 0" result="hardAlpha"/>
<feOffset dy="14.5455"/>
<feGaussianBlur stdDeviation="8.72727"/>
<feColorMatrix type="matrix" values="0 0 0 0 0.541176 0 0 0 0 0.313726 0 0 0 0 0.901961 0 0 0 0.06 0"/>
<feBlend mode="normal" in2="BackgroundImageFix" result="effect1_dropShadow_459_87"/>
<feBlend mode="normal" in="SourceGraphic" in2="effect1_dropShadow_459_87" result="shape"/>
</filter>
<filter id="filter3_d_459_87" x="204.182" y="5.18188" width="51.6362" height="51.6364" filterUnits="userSpaceOnUse" color-interpolation-filters="sRGB">
<feFlood flood-opacity="0" result="BackgroundImageFix"/>
<feColorMatrix in="SourceAlpha" type="matrix" values="0 0 0 0 0 0 0 0 0 0 0 0 0 0 0 0 0 0 127 0" result="hardAlpha"/>
<feMorphology radius="9.45455" operator="erode" in="SourceAlpha" result="effect1_dropShadow_459_87"/>
<feOffset dy="8"/>
<feGaussianBlur stdDeviation="8.72727"/>
<feColorMatrix type="matrix" values="0 0 0 0 0.14902 0 0 0 0 0.662745 0 0 0 0 0.423529 0 0 0 1 0"/>
<feBlend mode="normal" in2="BackgroundImageFix" result="effect1_dropShadow_459_87"/>
<feBlend mode="normal" in="SourceGraphic" in2="effect1_dropShadow_459_87" result="shape"/>
</filter>
<filter id="filter4_d_459_87" x="0.545456" y="84.0909" width="74.9091" height="74.9091" filterUnits="userSpaceOnUse" color-interpolation-filters="sRGB">
<feFlood flood-opacity="0" result="BackgroundImageFix"/>
<feColorMatrix in="SourceAlpha" type="matrix" values="0 0 0 0 0 0 0 0 0 0 0 0 0 0 0 0 0 0 127 0" result="hardAlpha"/>
<feOffset dy="14.5455"/>
<feGaussianBlur stdDeviation="8.72727"/>
<feColorMatrix type="matrix" values="0 0 0 0 0.541176 0 0 0 0 0.313726 0 0 0 0 0.901961 0 0 0 0.06 0"/>
<feBlend mode="normal" in2="BackgroundImageFix" result="effect1_dropShadow_459_87"/>
<feBlend mode="normal" in="SourceGraphic" in2="effect1_dropShadow_459_87" result="shape"/>
</filter>
<filter id="filter5_d_459_87" x="12.1816" y="89.1819" width="51.6362" height="51.6364" filterUnits="userSpaceOnUse" color-interpolation-filters="sRGB">
<feFlood flood-opacity="0" result="BackgroundImageFix"/>
<feColorMatrix in="SourceAlpha" type="matrix" values="0 0 0 0 0 0 0 0 0 0 0 0 0 0 0 0 0 0 127 0" result="hardAlpha"/>
<feMorphology radius="9.45455" operator="erode" in="SourceAlpha" result="effect1_dropShadow_459_87"/>
<feOffset dy="8"/>
<feGaussianBlur stdDeviation="8.72727"/>
<feColorMatrix type="matrix" values="0 0 0 0 0.14902 0 0 0 0 0.662745 0 0 0 0 0.423529 0 0 0 1 0"/>
<feBlend mode="normal" in2="BackgroundImageFix" result="effect1_dropShadow_459_87"/>
<feBlend mode="normal" in="SourceGraphic" in2="effect1_dropShadow_459_87" result="shape"/>
</filter>
<filter id="filter6_d_459_87" x="96.5455" y="84.0909" width="74.9091" height="74.9091" filterUnits="userSpaceOnUse" color-interpolation-filters="sRGB">
<feFlood flood-opacity="0" result="BackgroundImageFix"/>
<feColorMatrix in="SourceAlpha" type="matrix" values="0 0 0 0 0 0 0 0 0 0 0 0 0 0 0 0 0 0 127 0" result="hardAlpha"/>
<feOffset dy="14.5455"/>
<feGaussianBlur stdDeviation="8.72727"/>
<feColorMatrix type="matrix" values="0 0 0 0 0.541176 0 0 0 0 0.313726 0 0 0 0 0.901961 0 0 0 0.06 0"/>
<feBlend mode="normal" in2="BackgroundImageFix" result="effect1_dropShadow_459_87"/>
<feBlend mode="normal" in="SourceGraphic" in2="effect1_dropShadow_459_87" result="shape"/>
</filter>
<filter id="filter7_d_459_87" x="108.182" y="89.1819" width="51.6362" height="51.6364" filterUnits="userSpaceOnUse" color-interpolation-filters="sRGB">
<feFlood flood-opacity="0" result="BackgroundImageFix"/>
<feColorMatrix in="SourceAlpha" type="matrix" values="0 0 0 0 0 0 0 0 0 0 0 0 0 0 0 0 0 0 127 0" result="hardAlpha"/>
<feMorphology radius="9.45455" operator="erode" in="SourceAlpha" result="effect1_dropShadow_459_87"/>
<feOffset dy="8"/>
<feGaussianBlur stdDeviation="8.72727"/>
<feColorMatrix type="matrix" values="0 0 0 0 0.14902 0 0 0 0 0.662745 0 0 0 0 0.423529 0 0 0 1 0"/>
<feBlend mode="normal" in2="BackgroundImageFix" result="effect1_dropShadow_459_87"/>
<feBlend mode="normal" in="SourceGraphic" in2="effect1_dropShadow_459_87" result="shape"/>
</filter>
<filter id="filter8_d_459_87" x="192.545" y="84.0909" width="74.9091" height="74.9091" filterUnits="userSpaceOnUse" color-interpolation-filters="sRGB">
<feFlood flood-opacity="0" result="BackgroundImageFix"/>
<feColorMatrix in="SourceAlpha" type="matrix" values="0 0 0 0 0 0 0 0 0 0 0 0 0 0 0 0 0 0 127 0" result="hardAlpha"/>
<feOffset dy="14.5455"/>
<feGaussianBlur stdDeviation="8.72727"/>
<feColorMatrix type="matrix" values="0 0 0 0 0.541176 0 0 0 0 0.313726 0 0 0 0 0.901961 0 0 0 0.06 0"/>
<feBlend mode="normal" in2="BackgroundImageFix" result="effect1_dropShadow_459_87"/>
<feBlend mode="normal" in="SourceGraphic" in2="effect1_dropShadow_459_87" result="shape"/>
</filter>
<filter id="filter9_d_459_87" x="204.182" y="89.1819" width="51.6362" height="51.6364" filterUnits="userSpaceOnUse" color-interpolation-filters="sRGB">
<feFlood flood-opacity="0" result="BackgroundImageFix"/>
<feColorMatrix in="SourceAlpha" type="matrix" values="0 0 0 0 0 0 0 0 0 0 0 0 0 0 0 0 0 0 127 0" result="hardAlpha"/>
<feMorphology radius="9.45455" operator="erode" in="SourceAlpha" result="effect1_dropShadow_459_87"/>
<feOffset dy="8"/>
<feGaussianBlur stdDeviation="8.72727"/>
<feColorMatrix type="matrix" values="0 0 0 0 0.14902 0 0 0 0 0.662745 0 0 0 0 0.423529 0 0 0 1 0"/>
<feBlend mode="normal" in2="BackgroundImageFix" result="effect1_dropShadow_459_87"/>
<feBlend mode="normal" in="SourceGraphic" in2="effect1_dropShadow_459_87" result="shape"/>
</filter>
<filter id="filter10_d_459_87" x="0.545456" y="0.0909119" width="308.409" height="139.409" filterUnits="userSpaceOnUse" color-interpolation-filters="sRGB">
<feFlood flood-opacity="0" result="BackgroundImageFix"/>
<feColorMatrix in="SourceAlpha" type="matrix" values="0 0 0 0 0 0 0 0 0 0 0 0 0 0 0 0 0 0 127 0" result="hardAlpha"/>
<feOffset dy="14.5455"/>
<feGaussianBlur stdDeviation="8.72727"/>
<feColorMatrix type="matrix" values="0 0 0 0 0.541176 0 0 0 0 0.313726 0 0 0 0 0.901961 0 0 0 0.06 0"/>
<feBlend mode="normal" in2="BackgroundImageFix" result="effect1_dropShadow_459_87"/>
<feBlend mode="normal" in="SourceGraphic" in2="effect1_dropShadow_459_87" result="shape"/>
</filter>
<filter id="filter11_d_459_87" x="12.1816" y="5.18188" width="51.6362" height="51.6363" filterUnits="userSpaceOnUse" color-interpolation-filters="sRGB">
<feFlood flood-opacity="0" result="BackgroundImageFix"/>
<feColorMatrix in="SourceAlpha" type="matrix" values="0 0 0 0 0 0 0 0 0 0 0 0 0 0 0 0 0 0 127 0" result="hardAlpha"/>
<feMorphology radius="9.45455" operator="erode" in="SourceAlpha" result="effect1_dropShadow_459_87"/>
<feOffset dy="8"/>
<feGaussianBlur stdDeviation="8.72727"/>
<feColorMatrix type="matrix" values="0 0 0 0 0.14902 0 0 0 0 0.662745 0 0 0 0 0.423529 0 0 0 1 0"/>
<feBlend mode="normal" in2="BackgroundImageFix" result="effect1_dropShadow_459_87"/>
<feBlend mode="normal" in="SourceGraphic" in2="effect1_dropShadow_459_87" result="shape"/>
</filter>
<linearGradient id="paint0_linear_459_87" x1="134" y1="5.18188" x2="134" y2="40.8182" gradientUnits="userSpaceOnUse">
<stop stop-color="#26A96C"/>
<stop offset="0.9999" stop-color="#26A96C" stop-opacity="0.01"/>
<stop offset="1" stop-color="#26A96C" stop-opacity="0"/>
</linearGradient>
<linearGradient id="paint1_linear_459_87" x1="230" y1="5.18188" x2="230" y2="40.8182" gradientUnits="userSpaceOnUse">
<stop stop-color="#26A96C"/>
<stop offset="0.9999" stop-color="#26A96C" stop-opacity="0.01"/>
<stop offset="1" stop-color="#26A96C" stop-opacity="0"/>
</linearGradient>
<linearGradient id="paint2_linear_459_87" x1="37.9997" y1="89.1819" x2="37.9997" y2="124.818" gradientUnits="userSpaceOnUse">
<stop stop-color="#26A96C"/>
<stop offset="0.9999" stop-color="#26A96C" stop-opacity="0.01"/>
<stop offset="1" stop-color="#26A96C" stop-opacity="0"/>
</linearGradient>
<linearGradient id="paint3_linear_459_87" x1="134" y1="89.1819" x2="134" y2="124.818" gradientUnits="userSpaceOnUse">
<stop stop-color="#26A96C"/>
<stop offset="0.9999" stop-color="#26A96C" stop-opacity="0.01"/>
<stop offset="1" stop-color="#26A96C" stop-opacity="0"/>
</linearGradient>
<linearGradient id="paint4_linear_459_87" x1="230" y1="89.1819" x2="230" y2="124.818" gradientUnits="userSpaceOnUse">
<stop stop-color="#26A96C"/>
<stop offset="0.9999" stop-color="#26A96C" stop-opacity="0.01"/>
<stop offset="1" stop-color="#26A96C" stop-opacity="0"/>
</linearGradient>
<linearGradient id="paint5_linear_459_87" x1="37.9997" y1="5.18188" x2="37.9997" y2="40.8182" gradientUnits="userSpaceOnUse">
<stop stop-color="#26A96C"/>
<stop offset="0.9999" stop-color="#26A96C" stop-opacity="0.01"/>
<stop offset="1" stop-color="#26A96C" stop-opacity="0"/>
</linearGradient>
</defs>
</svg>
