<svg width="44" height="44" viewBox="0 0 44 44" fill="none" xmlns="http://www.w3.org/2000/svg">
<g filter="url(#filter0_d_409_775)">
<circle cx="22" cy="22" r="16" fill="#26A96C"/>
<path d="M30.2963 14.8887H13.7037C13.3894 14.8887 13.088 15.0135 12.8657 15.2358C12.6434 15.4581 12.5186 15.7595 12.5186 16.0739V27.9257C12.5186 28.24 12.6434 28.5415 12.8657 28.7638C13.088 28.986 13.3894 29.1109 13.7037 29.1109H30.2963C30.6107 29.1109 30.9121 28.986 31.1344 28.7638C31.3567 28.5415 31.4815 28.24 31.4815 27.9257V16.0739C31.4815 15.7595 31.3567 15.4581 31.1344 15.2358C30.9121 15.0135 30.6107 14.8887 30.2963 14.8887ZM29.3837 27.9257H14.6874L18.8356 23.6353L17.9823 22.8116L13.7037 27.2383V16.9746L21.0697 24.305C21.2917 24.5257 21.5921 24.6496 21.9052 24.6496C22.2183 24.6496 22.5187 24.5257 22.7408 24.305L30.2963 16.7909V27.1613L25.9349 22.7998L25.0993 23.6353L29.3837 27.9257ZM14.48 16.0739H29.3363L21.9052 23.4635L14.48 16.0739Z" fill="white"/>
</g>
<defs>
<filter id="filter0_d_409_775" x="0.0740738" y="0.0740738" width="43.8519" height="43.8519" filterUnits="userSpaceOnUse" color-interpolation-filters="sRGB">
<feFlood flood-opacity="0" result="BackgroundImageFix"/>
<feColorMatrix in="SourceAlpha" type="matrix" values="0 0 0 0 0 0 0 0 0 0 0 0 0 0 0 0 0 0 127 0" result="hardAlpha"/>
<feOffset/>
<feGaussianBlur stdDeviation="2.96296"/>
<feComposite in2="hardAlpha" operator="out"/>
<feColorMatrix type="matrix" values="0 0 0 0 0 0 0 0 0 0 0 0 0 0 0 0 0 0 0.05 0"/>
<feBlend mode="normal" in2="BackgroundImageFix" result="effect1_dropShadow_409_775"/>
<feBlend mode="normal" in="SourceGraphic" in2="effect1_dropShadow_409_775" result="shape"/>
</filter>
</defs>
</svg>
