<svg width="78" height="80" viewBox="0 0 78 80" fill="none" xmlns="http://www.w3.org/2000/svg">
<g filter="url(#filter0_d_52_224)">
<rect x="9" y="5" width="60" height="62" rx="10" fill="white"/>
</g>
<path d="M45.1193 39.6851C45.3553 39.7158 45.5726 39.8297 45.7322 40.0063L50.8411 45.6614C51.2113 46.0712 51.1793 46.7035 50.7694 47.0738L48.9181 48.7463C48.5083 49.1165 47.876 49.0844 47.5057 48.6746L42.3546 42.9728C42.221 42.8249 42.1346 42.6405 42.1066 42.4433L41.8352 40.5356C41.7421 39.8809 42.2986 39.3178 42.9544 39.4032L45.1193 39.6851Z" fill="#26A96C"/>
<path d="M46.1452 33.7392C46.1452 39.2561 41.6729 43.7285 36.156 43.7285C30.6391 43.7285 26.1667 39.2561 26.1667 33.7392C26.1667 28.2223 30.6391 23.75 36.156 23.75C41.6729 23.75 46.1452 28.2223 46.1452 33.7392ZM29.2734 33.7392C29.2734 37.5404 32.3548 40.6218 36.156 40.6218C39.9571 40.6218 43.0386 37.5404 43.0386 33.7392C43.0386 29.9381 39.9571 26.8567 36.156 26.8567C32.3548 26.8567 29.2734 29.9381 29.2734 33.7392Z" fill="#26A96C"/>
<path opacity="0.5" d="M35.7612 29.2441H36.7887L36.7506 30.901H35.7993L35.7612 29.2441ZM35.7993 36.618H36.7506L36.7887 38.2556H35.7612L35.7993 36.618ZM37.5212 32.3545C37.4261 32.1672 37.3183 31.9992 37.1977 31.8506C37.0836 31.702 36.9504 31.5858 36.7982 31.5018C36.6523 31.4114 36.4811 31.3661 36.2844 31.3661C36.0878 31.3661 35.9261 31.3984 35.7993 31.463C35.6724 31.5212 35.5773 31.6019 35.5138 31.7053C35.4568 31.8086 35.4282 31.9346 35.4282 32.0832C35.4282 32.2899 35.498 32.4579 35.6375 32.587C35.7834 32.7162 35.9737 32.8293 36.2083 32.9262C36.443 33.0166 36.6935 33.1135 36.9599 33.2169C37.1692 33.2944 37.3722 33.3913 37.5688 33.5076C37.7717 33.6239 37.9557 33.7627 38.1206 33.9242C38.2855 34.0857 38.4155 34.2795 38.5106 34.5056C38.6057 34.7253 38.6533 34.9869 38.6533 35.2905C38.6533 35.6975 38.555 36.0495 38.3584 36.3467C38.1681 36.6438 37.8954 36.8732 37.5402 37.0346C37.1851 37.1897 36.7601 37.2672 36.2654 37.2672C35.8722 37.2672 35.5043 37.1897 35.1618 37.0346C34.8194 36.8732 34.5181 36.66 34.258 36.3951C33.998 36.1303 33.7982 35.8331 33.6587 35.5037L34.6576 34.8157C34.8035 35.0999 34.9557 35.3389 35.1143 35.5327C35.2728 35.7265 35.4504 35.8751 35.647 35.9785C35.8436 36.0754 36.0656 36.1238 36.313 36.1238C36.5159 36.1238 36.684 36.0947 36.8172 36.0366C36.9567 35.972 37.0582 35.8816 37.1216 35.7653C37.1914 35.6426 37.2263 35.494 37.2263 35.3196C37.2263 35.1064 37.1597 34.932 37.0265 34.7963C36.8933 34.6542 36.7189 34.5315 36.5033 34.4281C36.2876 34.3247 36.0498 34.2246 35.7897 34.1277C35.6248 34.0696 35.4409 33.9888 35.2379 33.8855C35.035 33.7821 34.8415 33.6497 34.6576 33.4882C34.4737 33.3267 34.3215 33.1297 34.201 32.8971C34.0868 32.6646 34.0297 32.3868 34.0297 32.0638C34.0297 31.7408 34.1249 31.4469 34.3151 31.182C34.5054 30.9107 34.7686 30.6943 35.1048 30.5328C35.4409 30.3713 35.8214 30.2906 36.2464 30.2906C36.6777 30.2906 37.0424 30.3616 37.3405 30.5037C37.6385 30.6394 37.8859 30.8171 38.0825 31.0367C38.2855 31.2563 38.444 31.4856 38.5582 31.7247L37.5212 32.3545Z" fill="#26A96C"/>
<defs>
<filter id="filter0_d_52_224" x="0" y="0" width="78" height="80" filterUnits="userSpaceOnUse" color-interpolation-filters="sRGB">
<feFlood flood-opacity="0" result="BackgroundImageFix"/>
<feColorMatrix in="SourceAlpha" type="matrix" values="0 0 0 0 0 0 0 0 0 0 0 0 0 0 0 0 0 0 127 0" result="hardAlpha"/>
<feOffset dy="4"/>
<feGaussianBlur stdDeviation="4.5"/>
<feComposite in2="hardAlpha" operator="out"/>
<feColorMatrix type="matrix" values="0 0 0 0 0 0 0 0 0 0 0 0 0 0 0 0 0 0 0.05 0"/>
<feBlend mode="normal" in2="BackgroundImageFix" result="effect1_dropShadow_52_224"/>
<feBlend mode="normal" in="SourceGraphic" in2="effect1_dropShadow_52_224" result="shape"/>
</filter>
</defs>
</svg>
