<svg width="78" height="80" viewBox="0 0 78 80" fill="none" xmlns="http://www.w3.org/2000/svg">
<g filter="url(#filter0_d_54_40)">
<rect x="9" y="5" width="60" height="62" rx="10" fill="white"/>
</g>
<path d="M27.3333 36C27.3333 30.5003 27.3333 27.7504 29.0418 26.0419C30.7503 24.3333 33.5002 24.3333 38.9999 24.3333C44.4996 24.3333 47.2495 24.3333 48.958 26.0419C50.6666 27.7504 50.6666 30.5003 50.6666 36C50.6666 41.4997 50.6666 44.2496 48.958 45.9581C47.2495 47.6666 44.4996 47.6666 38.9999 47.6666C33.5002 47.6666 30.7503 47.6666 29.0418 45.9581C27.3333 44.2496 27.3333 41.4997 27.3333 36Z" stroke="#26A96C" stroke-width="1.5"/>
<path d="M40.75 36C40.75 36.9665 39.9665 37.75 39 37.75C38.0335 37.75 37.25 36.9665 37.25 36C37.25 35.0335 38.0335 34.25 39 34.25C39.9665 34.25 40.75 35.0335 40.75 36Z" fill="#26A96C"/>
<path opacity="0.5" d="M39.7501 36V31.3333H38.2501V36H39.7501ZM38.7046 36.6893L42.788 38.4393L43.3789 37.0606L39.2955 35.3106L38.7046 36.6893ZM38.7046 35.3106L34.6213 37.0606L35.2122 38.4393L39.2955 36.6893L38.7046 35.3106Z" fill="#26A96C"/>
<path d="M38.9999 39.9166C36.8368 39.9166 35.0833 38.1631 35.0833 36H33.5833C33.5833 38.9915 36.0084 41.4166 38.9999 41.4166V39.9166ZM42.9166 36C42.9166 38.1631 41.163 39.9166 38.9999 39.9166V41.4166C41.9915 41.4166 44.4166 38.9915 44.4166 36H42.9166ZM38.9999 32.0833C41.163 32.0833 42.9166 33.8369 42.9166 36H44.4166C44.4166 33.0084 41.9915 30.5833 38.9999 30.5833V32.0833ZM38.9999 30.5833C36.0084 30.5833 33.5833 33.0084 33.5833 36H35.0833C35.0833 33.8369 36.8368 32.0833 38.9999 32.0833V30.5833Z" fill="#26A96C"/>
<path opacity="0.5" d="M31 30.1666C31 29.7524 30.6642 29.4166 30.25 29.4166C29.8358 29.4166 29.5 29.7524 29.5 30.1666H31ZM29.5 33.6666C29.5 34.0809 29.8358 34.4166 30.25 34.4166C30.6642 34.4166 31 34.0809 31 33.6666H29.5ZM31 38.3333C31 37.9191 30.6642 37.5833 30.25 37.5833C29.8358 37.5833 29.5 37.9191 29.5 38.3333H31ZM29.5 41.8333C29.5 42.2475 29.8358 42.5833 30.25 42.5833C30.6642 42.5833 31 42.2475 31 41.8333H29.5ZM37.8333 28.5833H40.1667V27.0833H37.8333V28.5833ZM46.4167 34.8333V37.1666H47.9167V34.8333H46.4167ZM40.1667 43.4166H37.8333V44.9166H40.1667V43.4166ZM31.5833 37.1666V34.8333H30.0833V37.1666H31.5833ZM37.8333 43.4166C36.1622 43.4166 34.9843 43.4151 34.0928 43.2952C33.2229 43.1782 32.7388 42.9612 32.3888 42.6112L31.3281 43.6719C32.0033 44.347 32.8567 44.6425 33.8929 44.7818C34.9076 44.9182 36.2046 44.9166 37.8333 44.9166V43.4166ZM30.0833 37.1666C30.0833 38.7954 30.0817 40.0923 30.2182 41.107C30.3575 42.1433 30.653 42.9967 31.3281 43.6719L32.3888 42.6112C32.0388 42.2612 31.8217 41.7771 31.7048 40.9072C31.5849 40.0157 31.5833 38.8378 31.5833 37.1666H30.0833ZM46.4167 37.1666C46.4167 38.8378 46.4151 40.0157 46.2952 40.9072C46.1783 41.7771 45.9612 42.2612 45.6112 42.6112L46.6719 43.6719C47.347 42.9967 47.6425 42.1433 47.7818 41.107C47.9183 40.0923 47.9167 38.7954 47.9167 37.1666H46.4167ZM40.1667 44.9166C41.7954 44.9166 43.0924 44.9182 44.1071 44.7818C45.1433 44.6425 45.9967 44.347 46.6719 43.6719L45.6112 42.6112C45.2612 42.9612 44.7771 43.1782 43.9072 43.2952C43.0157 43.4151 41.8378 43.4166 40.1667 43.4166V44.9166ZM40.1667 28.5833C41.8378 28.5833 43.0157 28.5849 43.9072 28.7048C44.7771 28.8217 45.2612 29.0388 45.6112 29.3888L46.6719 28.3281C45.9967 27.653 45.1433 27.3575 44.1071 27.2181C43.0924 27.0817 41.7954 27.0833 40.1667 27.0833V28.5833ZM47.9167 34.8333C47.9167 33.2046 47.9183 31.9076 47.7818 30.8929C47.6425 29.8567 47.347 29.0032 46.6719 28.3281L45.6112 29.3888C45.9612 29.7388 46.1783 30.2229 46.2952 31.0928C46.4151 31.9843 46.4167 33.1622 46.4167 34.8333H47.9167ZM37.8333 27.0833C36.2046 27.0833 34.9076 27.0817 33.8929 27.2181C32.8567 27.3575 32.0033 27.653 31.3281 28.3281L32.3888 29.3888C32.7388 29.0388 33.2229 28.8217 34.0928 28.7048C34.9843 28.5849 36.1622 28.5833 37.8333 28.5833V27.0833ZM31.5833 34.8333C31.5833 33.1622 31.5849 31.9843 31.7048 31.0928C31.8217 30.2229 32.0388 29.7388 32.3888 29.3888L31.3281 28.3281C30.653 29.0032 30.3575 29.8567 30.2182 30.8929C30.0817 31.9076 30.0833 33.2046 30.0833 34.8333H31.5833ZM29.5 30.1666V33.6666H31V30.1666H29.5ZM29.5 38.3333V41.8333H31V38.3333H29.5Z" fill="#26A96C"/>
<defs>
<filter id="filter0_d_54_40" x="0" y="0" width="78" height="80" filterUnits="userSpaceOnUse" color-interpolation-filters="sRGB">
<feFlood flood-opacity="0" result="BackgroundImageFix"/>
<feColorMatrix in="SourceAlpha" type="matrix" values="0 0 0 0 0 0 0 0 0 0 0 0 0 0 0 0 0 0 127 0" result="hardAlpha"/>
<feOffset dy="4"/>
<feGaussianBlur stdDeviation="4.5"/>
<feComposite in2="hardAlpha" operator="out"/>
<feColorMatrix type="matrix" values="0 0 0 0 0 0 0 0 0 0 0 0 0 0 0 0 0 0 0.05 0"/>
<feBlend mode="normal" in2="BackgroundImageFix" result="effect1_dropShadow_54_40"/>
<feBlend mode="normal" in="SourceGraphic" in2="effect1_dropShadow_54_40" result="shape"/>
</filter>
</defs>
</svg>
