<svg width="57" height="56" viewBox="0 0 57 56" fill="none" xmlns="http://www.w3.org/2000/svg">
<path d="M42.5059 18.6636C42.5059 19.9017 42.0143 21.089 41.1391 21.9645C40.2639 22.84 39.077 23.3318 37.8393 23.3318C36.6016 23.3318 35.4146 22.84 34.5394 21.9645C33.6643 21.089 33.1726 19.9017 33.1726 18.6636C33.1726 17.4255 33.6643 16.2381 34.5394 15.3626C35.4146 14.4872 36.6016 13.9954 37.8393 13.9954C39.077 13.9954 40.2639 14.4872 41.1391 15.3626C42.0143 16.2381 42.5059 17.4255 42.5059 18.6636Z" fill="black"/>
<path fill-rule="evenodd" clip-rule="evenodd" d="M28.3729 2.90845H28.6389C34.0266 2.90845 38.2476 2.90845 41.5423 3.35193C44.9116 3.80474 47.5716 4.75239 49.6599 6.83908C51.7483 8.92811 52.6933 11.589 53.1459 14.9618C53.5893 18.2552 53.5893 22.4776 53.5893 27.8671V28.0725C53.5893 32.5283 53.5893 36.1741 53.3466 39.1431C53.1039 42.1308 52.6069 44.6213 51.4916 46.694C51.0016 47.6066 50.3949 48.4259 49.6599 49.1611C47.5716 51.2501 44.9116 52.1955 41.5399 52.6483C38.2476 53.0918 34.0266 53.0918 28.6389 53.0918H28.3729C22.9853 53.0918 18.7643 53.0918 15.4696 52.6483C12.1003 52.1955 9.44027 51.2478 7.35194 49.1611C5.50161 47.3102 4.54494 45.0064 4.03861 42.1448C3.53694 39.3369 3.44594 35.8427 3.42727 31.5059C3.42261 30.4019 3.42261 29.2348 3.42261 28.0024V27.8671C3.42261 22.4776 3.42261 18.2552 3.86594 14.9594C4.31861 11.589 5.26594 8.92811 7.35194 6.83908C9.44027 4.75006 12.1003 3.80474 15.4719 3.35193C18.7643 2.90845 22.9853 2.90845 28.3729 2.90845ZM15.9363 6.82041C12.9543 7.22188 11.1553 7.98746 9.82761 9.31557C8.49761 10.646 7.73461 12.4433 7.33327 15.4286C6.92727 18.4629 6.92261 22.4496 6.92261 28.0001V29.9701L9.25827 27.9254C10.2828 27.0283 11.6099 26.5543 12.9707 26.5993C14.3315 26.6444 15.6243 27.2052 16.5873 28.1682L26.5973 38.1815C27.3741 38.9584 28.3999 39.4363 29.4942 39.531C30.5886 39.6258 31.6812 39.3314 32.5799 38.6996L33.2753 38.2095C34.5719 37.2981 36.1392 36.8538 37.7211 36.9492C39.3029 37.0446 40.8055 37.674 41.9833 38.7347L48.5866 44.6796C49.2539 43.2838 49.6483 41.4492 49.8583 38.8607C50.0869 36.0481 50.0893 32.5423 50.0893 28.0001C50.0893 22.4496 50.0846 18.4629 49.6786 15.4286C49.2773 12.4433 48.5119 10.6437 47.1843 9.31324C45.8543 7.98513 44.0576 7.22188 41.0733 6.82041C38.0399 6.41428 34.0546 6.40961 28.5059 6.40961C22.9573 6.40961 18.9696 6.41428 15.9363 6.82041Z" fill="black"/>
</svg>
