<svg width="489" height="353" viewBox="0 0 489 353" fill="none" xmlns="http://www.w3.org/2000/svg">
<path d="M11.0527 178.782C11.0527 178.782 6.00644 43.1562 140.262 70.5285C211.987 85.1509 249.286 58.0974 265.941 38.9727C277.928 25.2268 294.184 15.9235 312.016 12.0786C357.133 2.3569 434.384 -1.02976 471.224 74.9511C525.078 185.994 436.458 308.133 385.656 337.398C334.854 366.662 221.462 313.771 221.462 313.771C221.462 313.771 141.04 290.98 88.1834 343.753C35.3269 396.525 11.0527 178.782 11.0527 178.782Z" stroke="#26A96C" stroke-width="0.316" stroke-miterlimit="10"/>
<path d="M408.474 287.933H62.7125C54.3552 287.933 47.5935 281.16 47.5935 272.832V77.8003C47.5935 69.4531 54.3751 62.6997 62.7125 62.6997H408.474C416.831 62.6997 423.593 69.473 423.593 77.8003V272.812C423.593 281.159 416.831 287.933 408.474 287.933Z" fill="#03012C"/>
<path d="M410.674 268.276V82.3286L60.5045 82.3286V268.276H410.674Z" fill="white"/>
<path d="M275.575 287.933H195.632V312.855H275.575V287.933Z" fill="#03012C"/>
<path d="M296.758 331.441H174.43C174.43 321.182 182.767 312.854 193.039 312.854H278.168C288.42 312.854 296.758 321.182 296.758 331.441Z" fill="#03012C"/>
<path d="M100.031 175.934H78.8286V253.349H100.031V175.934Z" fill="#26A96C"/>
<path d="M141.798 192.966H120.595V253.348H141.798V192.966Z" fill="white" stroke="#03012C" stroke-width="0.316" stroke-miterlimit="10"/>
<path d="M183.564 219.78H162.362V253.348H183.564V219.78Z" fill="#26A96C"/>
<path d="M225.312 208.445H204.109V253.349H225.312V208.445Z" fill="white" stroke="#03012C" stroke-width="0.316" stroke-miterlimit="10"/>
<path d="M308.844 160.255H287.642V253.348H308.844V160.255Z" fill="white" stroke="#03012C" stroke-width="0.316" stroke-miterlimit="10"/>
<path d="M267.078 203.525H245.875V253.349H267.078V203.525Z" fill="#26A96C"/>
<path d="M350.611 130.114H329.408V253.349H350.611V130.114Z" fill="#26A96C"/>
<path d="M392.358 141.13H371.156V253.368H392.358V141.13Z" fill="white" stroke="#03012C" stroke-width="0.316" stroke-miterlimit="10"/>
<path d="M291.132 102.006H472.4C473.577 102.006 474.534 101.05 474.534 99.8742V2.75661C474.534 1.58123 473.577 0.625 472.4 0.625H291.132C289.955 0.625 288.998 1.58123 288.998 2.75661V99.8543C288.998 101.05 289.955 102.006 291.132 102.006Z" fill="white" stroke="#03012C" stroke-width="0.316" stroke-miterlimit="10"/>
<path d="M288.998 11.9605H474.534V2.61726C474.534 1.52157 473.657 0.64502 472.56 0.64502H290.973C289.876 0.64502 288.998 1.52157 288.998 2.61726V11.9605Z" fill="#03012C"/>
<path d="M3.29409 158.88H196.769C198.026 158.88 199.043 157.864 199.043 156.609V52.9576C199.043 51.7025 198.026 50.6865 196.769 50.6865H3.29409C2.0375 50.6865 1.02026 51.7025 1.02026 52.9576V156.609C1.02026 157.864 2.0375 158.88 3.29409 158.88Z" fill="white" stroke="#03012C" stroke-width="0.316" stroke-miterlimit="10"/>
<path d="M1.01995 62.7789H199.042V52.7982C199.042 51.6428 198.105 50.6865 196.928 50.6865H3.11426C1.9574 50.6865 1 51.6228 1 52.7982V62.7789H1.01995Z" fill="#03012C"/>
</svg>
