<svg width="24" height="24" viewBox="0 0 24 24" fill="none" xmlns="http://www.w3.org/2000/svg">
<path d="M3.48871 6.92586H20.5116C20.8732 6.92586 21.1664 6.63275 21.1664 6.27113V4.63431C21.1664 4.2727 20.8732 3.97958 20.5116 3.97958H3.48871C3.1271 3.97958 2.83398 4.2727 2.83398 4.63431V6.27113C2.83398 6.63275 3.1271 6.92586 3.48871 6.92586ZM3.48871 13.4731H20.5116C20.8732 13.4731 21.1664 13.18 21.1664 12.8184V11.1816C21.1664 10.82 20.8732 10.5269 20.5116 10.5269H3.48871C3.1271 10.5269 2.83398 10.82 2.83398 11.1816V12.8184C2.83398 13.18 3.1271 13.4731 3.48871 13.4731ZM3.48871 20.0204H20.5116C20.8732 20.0204 21.1664 19.7273 21.1664 19.3657V17.7289C21.1664 17.3673 20.8732 17.0741 20.5116 17.0741H3.48871C3.1271 17.0741 2.83398 17.3673 2.83398 17.7289V19.3657C2.83398 19.7273 3.1271 20.0204 3.48871 20.0204Z" fill="#03012C"/>
</svg>
