<svg width="170" height="150" viewBox="0 0 170 150" fill="none" xmlns="http://www.w3.org/2000/svg">
<g filter="url(#filter0_bd_379_47)">
<path d="M20.2559 27.8054C20.2559 23.9111 23.4129 20.754 27.3073 20.754H118.476C122.371 20.754 125.528 23.9111 125.528 27.8054V98.1946C125.528 102.089 122.37 105.246 118.476 105.246H27.3072C23.4129 105.246 20.2559 102.089 20.2559 98.1946V27.8054Z" fill="white" fill-opacity="0.8" shape-rendering="crispEdges"/>
<path d="M20.5077 27.8054C20.5077 24.0501 23.552 21.0059 27.3073 21.0059H118.476C122.231 21.0059 125.276 24.0501 125.276 27.8054V98.1946C125.276 101.95 122.231 104.994 118.476 104.994H27.3072C23.552 104.994 20.5077 101.95 20.5077 98.1946V27.8054Z" stroke="white" stroke-opacity="0.65" stroke-width="0.503671" shape-rendering="crispEdges"/>
<circle cx="42.4177" cy="42.9156" r="11.5215" fill="#D9D9D9" stroke="white" stroke-width="1.13326"/>
<g clip-path="url(#clip0_379_47)">
<path d="M45.4395 40.9009C45.4395 41.168 45.3334 41.4243 45.1444 41.6132C44.9555 41.8021 44.6993 41.9082 44.4321 41.9082C44.165 41.9082 43.9088 41.8021 43.7198 41.6132C43.5309 41.4243 43.4248 41.168 43.4248 40.9009C43.4248 40.6337 43.5309 40.3775 43.7198 40.1886C43.9088 39.9997 44.165 39.8935 44.4321 39.8935C44.6993 39.8935 44.9555 39.9997 45.1444 40.1886C45.3334 40.3775 45.4395 40.6337 45.4395 40.9009Z" fill="black"/>
<path fill-rule="evenodd" clip-rule="evenodd" d="M42.3887 37.5011H42.4461C43.6091 37.5011 44.5202 37.5011 45.2314 37.5968C45.9587 37.6945 46.5329 37.899 46.9837 38.3493C47.4345 38.8001 47.6384 39.3743 47.7362 40.1021C47.8319 40.8127 47.8319 41.7239 47.8319 42.8869V42.9312C47.8319 43.8927 47.8319 44.6794 47.7795 45.3201C47.7271 45.9648 47.6198 46.5022 47.3791 46.9495C47.2733 47.1464 47.1423 47.3232 46.9837 47.4818C46.5329 47.9326 45.9587 48.1366 45.2309 48.2343C44.5202 48.33 43.6091 48.33 42.4461 48.33H42.3887C41.2257 48.33 40.3146 48.33 39.6034 48.2343C38.8761 48.1366 38.3019 47.9321 37.8511 47.4818C37.4517 47.0824 37.2452 46.5853 37.1359 45.9678C37.0276 45.3619 37.008 44.6079 37.0039 43.6721C37.0029 43.4338 37.0029 43.182 37.0029 42.9161V42.8869C37.0029 41.7239 37.0029 40.8127 37.0986 40.1016C37.1963 39.3743 37.4008 38.8001 37.8511 38.3493C38.3019 37.8985 38.8761 37.6945 39.6039 37.5968C40.3146 37.5011 41.2257 37.5011 42.3887 37.5011ZM39.7041 38.3453C39.0604 38.4319 38.6721 38.5971 38.3855 38.8837C38.0984 39.1708 37.9337 39.5586 37.8471 40.2028C37.7594 40.8576 37.7584 41.7178 37.7584 42.9156V43.3407L38.2626 42.8994C38.4838 42.7059 38.7702 42.6036 39.064 42.6133C39.3577 42.623 39.6368 42.744 39.8446 42.9518L42.0054 45.1126C42.1731 45.2802 42.3945 45.3833 42.6307 45.4038C42.8669 45.4242 43.1028 45.3607 43.2968 45.2244L43.4469 45.1186C43.7268 44.922 44.0651 44.8261 44.4066 44.8467C44.748 44.8672 45.0724 45.0031 45.3266 45.2319L46.752 46.5148C46.896 46.2136 46.9812 45.8177 47.0265 45.2591C47.0758 44.6522 47.0764 43.8957 47.0764 42.9156C47.0764 41.7178 47.0753 40.8576 46.9877 40.2028C46.9011 39.5586 46.7359 39.1703 46.4493 38.8832C46.1622 38.5966 45.7744 38.4319 45.1302 38.3453C44.4754 38.2576 43.6151 38.2566 42.4174 38.2566C41.2197 38.2566 40.3589 38.2576 39.7041 38.3453Z" fill="black"/>
</g>
<circle cx="54.5056" cy="42.9156" r="11.5215" fill="#D9D9D9" stroke="white" stroke-width="1.13326"/>
<g clip-path="url(#clip1_379_47)">
<path d="M57.5279 40.9009C57.5279 41.168 57.4217 41.4243 57.2328 41.6132C57.0439 41.8021 56.7877 41.9082 56.5205 41.9082C56.2534 41.9082 55.9971 41.8021 55.8082 41.6132C55.6193 41.4243 55.5132 41.168 55.5132 40.9009C55.5132 40.6337 55.6193 40.3775 55.8082 40.1886C55.9971 39.9997 56.2534 39.8935 56.5205 39.8935C56.7877 39.8935 57.0439 39.9997 57.2328 40.1886C57.4217 40.3775 57.5279 40.6337 57.5279 40.9009Z" fill="black"/>
<path fill-rule="evenodd" clip-rule="evenodd" d="M54.4766 37.5011H54.534C55.697 37.5011 56.6081 37.5011 57.3193 37.5968C58.0466 37.6945 58.6208 37.899 59.0716 38.3493C59.5224 38.8001 59.7263 39.3743 59.824 40.1021C59.9197 40.8127 59.9197 41.7239 59.9197 42.8869V42.9312C59.9197 43.8927 59.9197 44.6794 59.8674 45.3201C59.815 45.9648 59.7077 46.5022 59.4669 46.9495C59.3612 47.1464 59.2302 47.3232 59.0716 47.4818C58.6208 47.9326 58.0466 48.1366 57.3188 48.2343C56.6081 48.33 55.697 48.33 54.534 48.33H54.4766C53.3136 48.33 52.4025 48.33 51.6913 48.2343C50.964 48.1366 50.3898 47.9321 49.939 47.4818C49.5396 47.0824 49.3331 46.5853 49.2238 45.9678C49.1155 45.3619 49.0959 44.6079 49.0918 43.6721C49.0908 43.4338 49.0908 43.182 49.0908 42.9161V42.8869C49.0908 41.7239 49.0908 40.8127 49.1865 40.1016C49.2842 39.3743 49.4887 38.8001 49.939 38.3493C50.3898 37.8985 50.964 37.6945 51.6918 37.5968C52.4025 37.5011 53.3136 37.5011 54.4766 37.5011ZM51.792 38.3453C51.1483 38.4319 50.76 38.5971 50.4734 38.8837C50.1863 39.1708 50.0216 39.5586 49.935 40.2028C49.8473 40.8576 49.8463 41.7178 49.8463 42.9156V43.3407L50.3505 42.8994C50.5716 42.7059 50.8581 42.6036 51.1519 42.6133C51.4456 42.623 51.7247 42.744 51.9325 42.9518L54.0933 45.1126C54.261 45.2802 54.4824 45.3833 54.7186 45.4038C54.9548 45.4242 55.1907 45.3607 55.3847 45.2244L55.5348 45.1186C55.8147 44.922 56.153 44.8261 56.4945 44.8467C56.8359 44.8672 57.1603 45.0031 57.4145 45.2319L58.8399 46.5148C58.9839 46.2136 59.069 45.8177 59.1144 45.2591C59.1637 44.6522 59.1642 43.8957 59.1642 42.9156C59.1642 41.7178 59.1632 40.8576 59.0756 40.2028C58.989 39.5586 58.8238 39.1703 58.5372 38.8832C58.2501 38.5966 57.8623 38.4319 57.2181 38.3453C56.5633 38.2576 55.703 38.2566 54.5053 38.2566C53.3076 38.2566 52.4468 38.2576 51.792 38.3453Z" fill="black"/>
</g>
<circle cx="66.594" cy="42.9156" r="11.5215" fill="#D9D9D9" stroke="white" stroke-width="1.13326"/>
<g clip-path="url(#clip2_379_47)">
<path d="M69.6162 40.9009C69.6162 41.168 69.5101 41.4243 69.3212 41.6132C69.1323 41.8021 68.8761 41.9082 68.6089 41.9082C68.3417 41.9082 68.0855 41.8021 67.8966 41.6132C67.7077 41.4243 67.6016 41.168 67.6016 40.9009C67.6016 40.6337 67.7077 40.3775 67.8966 40.1886C68.0855 39.9997 68.3417 39.8935 68.6089 39.8935C68.8761 39.8935 69.1323 39.9997 69.3212 40.1886C69.5101 40.3775 69.6162 40.6337 69.6162 40.9009Z" fill="black"/>
<path fill-rule="evenodd" clip-rule="evenodd" d="M66.565 37.5011H66.6224C67.7853 37.5011 68.6965 37.5011 69.4077 37.5968C70.135 37.6945 70.7092 37.899 71.1599 38.3493C71.6107 38.8001 71.8147 39.3743 71.9124 40.1021C72.0081 40.8127 72.0081 41.7239 72.0081 42.8869V42.9312C72.0081 43.8927 72.0081 44.6794 71.9557 45.3201C71.9034 45.9648 71.7961 46.5022 71.5553 46.9495C71.4496 47.1464 71.3186 47.3232 71.1599 47.4818C70.7092 47.9326 70.135 48.1366 69.4072 48.2343C68.6965 48.33 67.7853 48.33 66.6224 48.33H66.565C65.402 48.33 64.4908 48.33 63.7797 48.2343C63.0524 48.1366 62.4782 47.9321 62.0274 47.4818C61.628 47.0824 61.4215 46.5853 61.3122 45.9678C61.2039 45.3619 61.1842 44.6079 61.1802 43.6721C61.1792 43.4338 61.1792 43.182 61.1792 42.9161V42.8869C61.1792 41.7239 61.1792 40.8127 61.2749 40.1016C61.3726 39.3743 61.5771 38.8001 62.0274 38.3493C62.4782 37.8985 63.0524 37.6945 63.7802 37.5968C64.4908 37.5011 65.402 37.5011 66.565 37.5011ZM63.8804 38.3453C63.2367 38.4319 62.8484 38.5971 62.5618 38.8837C62.2747 39.1708 62.11 39.5586 62.0234 40.2028C61.9357 40.8576 61.9347 41.7178 61.9347 42.9156V43.3407L62.4389 42.8994C62.66 42.7059 62.9465 42.6036 63.2402 42.6133C63.534 42.623 63.8131 42.744 64.0209 42.9518L66.1817 45.1126C66.3493 45.2802 66.5708 45.3833 66.807 45.4038C67.0432 45.4242 67.2791 45.3607 67.4731 45.2244L67.6232 45.1186C67.903 44.922 68.2414 44.8261 68.5828 44.8467C68.9243 44.8672 69.2486 45.0031 69.5029 45.2319L70.9283 46.5148C71.0723 46.2136 71.1574 45.8177 71.2028 45.2591C71.2521 44.6522 71.2526 43.8957 71.2526 42.9156C71.2526 41.7178 71.2516 40.8576 71.164 40.2028C71.0773 39.5586 70.9121 39.1703 70.6255 38.8832C70.3385 38.5966 69.9506 38.4319 69.3064 38.3453C68.6517 38.2576 67.7914 38.2566 66.5937 38.2566C65.3959 38.2566 64.5352 38.2576 63.8804 38.3453Z" fill="black"/>
</g>
<rect x="66.216" y="30.4497" width="24.9317" height="24.9317" rx="12.4659" fill="#FAFAFA"/>
<rect x="66.216" y="30.4497" width="24.9317" height="24.9317" rx="12.4659" stroke="white" stroke-width="0.755507"/>
<path d="M83.215 42.9156C83.215 43.0158 83.1752 43.1118 83.1044 43.1827C83.0335 43.2535 82.9374 43.2933 82.8373 43.2933H79.0597V47.0709C79.0597 47.1711 79.0199 47.2671 78.9491 47.338C78.8782 47.4088 78.7822 47.4486 78.682 47.4486C78.5818 47.4486 78.4857 47.4088 78.4149 47.338C78.344 47.2671 78.3042 47.1711 78.3042 47.0709V43.2933H74.5267C74.4265 43.2933 74.3304 43.2535 74.2596 43.1827C74.1887 43.1118 74.1489 43.0158 74.1489 42.9156C74.1489 42.8154 74.1887 42.7193 74.2596 42.6485C74.3304 42.5776 74.4265 42.5378 74.5267 42.5378H78.3042V38.7603C78.3042 38.6601 78.344 38.564 78.4149 38.4932C78.4857 38.4223 78.5818 38.3825 78.682 38.3825C78.7822 38.3825 78.8782 38.4223 78.9491 38.4932C79.0199 38.564 79.0597 38.6601 79.0597 38.7603V42.5378H82.8373C82.9374 42.5378 83.0335 42.5776 83.1044 42.6485C83.1752 42.7193 83.215 42.8154 83.215 42.9156Z" fill="#737373"/>
<path d="M34.956 63.249V72.0404H33.3635V64.7987H33.3119L31.2558 66.1122V64.6527L33.4407 63.249H34.956ZM37.1882 72.0404V70.89L40.2403 67.898C40.5322 67.6032 40.7754 67.3414 40.97 67.1124C41.1646 66.8835 41.3106 66.6617 41.4079 66.4471C41.5052 66.2324 41.5538 66.0035 41.5538 65.7602C41.5538 65.4826 41.4909 65.2451 41.365 65.0477C41.239 64.8473 41.0659 64.6928 40.8455 64.5841C40.6252 64.4753 40.3748 64.4209 40.0943 64.4209C39.8053 64.4209 39.552 64.481 39.3345 64.6012C39.117 64.7186 38.9482 64.886 38.828 65.1035C38.7107 65.321 38.652 65.5799 38.652 65.8804H37.1367C37.1367 65.3224 37.264 64.8373 37.5187 64.4252C37.7734 64.0131 38.124 63.694 38.5704 63.468C39.0197 63.2419 39.5349 63.1288 40.1158 63.1288C40.7053 63.1288 41.2233 63.239 41.6697 63.4594C42.1162 63.6797 42.4624 63.9817 42.7086 64.3651C42.9575 64.7486 43.082 65.1865 43.082 65.6787C43.082 66.0078 43.0191 66.3312 42.8931 66.6488C42.7672 66.9665 42.5454 67.3185 42.2278 67.7048C41.913 68.0912 41.4708 68.559 40.9013 69.1085L39.386 70.6496V70.7097H43.2151V72.0404H37.1882ZM47.9456 72.2078C47.2387 72.2078 46.632 72.0289 46.1255 71.6712C45.6218 71.3106 45.2341 70.7912 44.9622 70.113C44.6932 69.4319 44.5587 68.612 44.5587 67.6533C44.5615 66.6946 44.6975 65.879 44.9665 65.2065C45.2384 64.5311 45.6261 64.016 46.1298 63.6611C46.6363 63.3063 47.2416 63.1288 47.9456 63.1288C48.6496 63.1288 49.2548 63.3063 49.7614 63.6611C50.2679 64.016 50.6557 64.5311 50.9247 65.2065C51.1966 65.8819 51.3325 66.6975 51.3325 67.6533C51.3325 68.6149 51.1966 69.4362 50.9247 70.1173C50.6557 70.7955 50.2679 71.3135 49.7614 71.6712C49.2577 72.0289 48.6524 72.2078 47.9456 72.2078ZM47.9456 70.8642C48.495 70.8642 48.9286 70.5938 49.2463 70.0529C49.5668 69.5092 49.727 68.7093 49.727 67.6533C49.727 66.955 49.6541 66.3684 49.5081 65.8933C49.3622 65.4183 49.1561 65.0605 48.89 64.8202C48.6238 64.5769 48.309 64.4553 47.9456 64.4553C47.399 64.4553 46.9669 64.7271 46.6492 65.2709C46.3316 65.8118 46.1713 66.6059 46.1684 67.6533C46.1656 68.3544 46.2357 68.944 46.3788 69.4219C46.5247 69.8998 46.7308 70.2604 46.9969 70.5036C47.2631 70.744 47.5793 70.8642 47.9456 70.8642ZM55.3687 70.6324V64.6914H56.7165V70.6324H55.3687ZM53.0721 68.3358V66.9879H59.0131V68.3358H53.0721ZM71.5015 66.2153H69.8961C69.8503 65.952 69.7659 65.7187 69.6428 65.5156C69.5197 65.3095 69.3666 65.1349 69.1835 64.9919C69.0003 64.8488 68.7914 64.7415 68.5568 64.6699C68.325 64.5955 68.0745 64.5583 67.8055 64.5583C67.3276 64.5583 66.9041 64.6785 66.5349 64.9189C66.1657 65.1564 65.8767 65.5055 65.6678 65.9663C65.4589 66.4242 65.3544 66.9836 65.3544 67.6447C65.3544 68.3172 65.4589 68.8839 65.6678 69.3446C65.8796 69.8025 66.1686 70.1488 66.5349 70.3834C66.9041 70.6152 67.3262 70.7311 67.8012 70.7311C68.0645 70.7311 68.3106 70.6968 68.5396 70.6281C68.7714 70.5566 68.9789 70.4521 69.162 70.3147C69.348 70.1774 69.504 70.0085 69.6299 69.8082C69.7587 69.6079 69.8474 69.3789 69.8961 69.1214L71.5015 69.13C71.4414 69.5478 71.3112 69.9399 71.1109 70.3062C70.9134 70.6725 70.6544 70.9958 70.3339 71.2763C70.0134 71.5539 69.6385 71.7714 69.2092 71.9288C68.78 72.0833 68.3035 72.1606 67.7798 72.1606C67.0071 72.1606 66.3174 71.9817 65.7107 71.624C65.104 71.2663 64.6261 70.7497 64.277 70.0744C63.9278 69.399 63.7533 68.5891 63.7533 67.6447C63.7533 66.6975 63.9293 65.8876 64.2813 65.2151C64.6333 64.5397 65.1126 64.0231 65.7193 63.6654C66.326 63.3077 67.0128 63.1288 67.7798 63.1288C68.2691 63.1288 68.7242 63.1975 69.1448 63.3349C69.5655 63.4723 69.9404 63.674 70.2695 63.9402C70.5986 64.2034 70.8691 64.5268 71.0808 64.9103C71.2955 65.2909 71.4357 65.7259 71.5015 66.2153ZM74.4452 63.249V72.0404H72.8913V63.249H74.4452ZM76.0431 72.0404V65.4469H77.5971V72.0404H76.0431ZM76.8244 64.5111C76.5783 64.5111 76.3665 64.4295 76.1891 64.2664C76.0117 64.1004 75.9229 63.9015 75.9229 63.6697C75.9229 63.4351 76.0117 63.2362 76.1891 63.073C76.3665 62.9071 76.5783 62.8241 76.8244 62.8241C77.0734 62.8241 77.2851 62.9071 77.4597 63.073C77.6371 63.2362 77.7259 63.4351 77.7259 63.6697C77.7259 63.9015 77.6371 64.1004 77.4597 64.2664C77.2851 64.4295 77.0734 64.5111 76.8244 64.5111ZM82.114 72.1692C81.453 72.1692 80.882 72.0318 80.4013 71.7571C79.9233 71.4795 79.5556 71.0874 79.298 70.5809C79.0405 70.0715 78.9117 69.472 78.9117 68.7823C78.9117 68.104 79.0405 67.5088 79.298 66.9965C79.5585 66.4814 79.9219 66.0808 80.3884 65.7946C80.8548 65.5055 81.4029 65.361 82.0325 65.361C82.4388 65.361 82.8223 65.4268 83.1829 65.5585C83.5463 65.6873 83.8669 65.8876 84.1444 66.1595C84.4249 66.4313 84.6453 66.7776 84.8055 67.1983C84.9658 67.6161 85.0459 68.114 85.0459 68.6921V69.1686H79.6415V68.1212H83.5564C83.5535 67.8236 83.4891 67.5589 83.3632 67.3271C83.2373 67.0924 83.0613 66.9078 82.8352 66.7733C82.612 66.6388 82.3515 66.5716 82.0539 66.5716C81.7363 66.5716 81.4572 66.6488 81.2169 66.8034C80.9765 66.955 80.789 67.1554 80.6545 67.4043C80.5229 67.6504 80.4556 67.9209 80.4528 68.2156V69.13C80.4528 69.5134 80.5229 69.8426 80.6631 70.1173C80.8033 70.3892 80.9994 70.5981 81.2512 70.744C81.503 70.8871 81.7978 70.9586 82.1355 70.9586C82.3616 70.9586 82.5662 70.9272 82.7493 70.8642C82.9325 70.7984 83.0913 70.7025 83.2258 70.5766C83.3603 70.4507 83.4619 70.2947 83.5306 70.1087L84.9815 70.2718C84.8899 70.6553 84.7154 70.9901 84.4578 71.2763C84.2031 71.5596 83.8769 71.78 83.4791 71.9374C83.0813 72.0919 82.6263 72.1692 82.114 72.1692ZM87.9145 68.177V72.0404H86.3605V65.4469H87.8458V66.5673H87.9231C88.0747 66.1981 88.3165 65.9048 88.6485 65.6873C88.9833 65.4698 89.3969 65.361 89.8891 65.361C90.3441 65.361 90.7405 65.4583 91.0781 65.6529C91.4187 65.8475 91.682 66.1294 91.868 66.4986C92.0569 66.8677 92.1499 67.3156 92.147 67.8422V72.0404H90.5931V68.0826C90.5931 67.6419 90.4786 67.297 90.2497 67.048C90.0236 66.7991 89.7102 66.6746 89.3096 66.6746C89.0377 66.6746 88.7959 66.7347 88.5841 66.8549C88.3752 66.9722 88.2107 67.1425 88.0905 67.3657C87.9731 67.5889 87.9145 67.8593 87.9145 68.177ZM97.0192 65.4469V66.6488H93.2288V65.4469H97.0192ZM94.1646 63.8672H95.7185V70.0572C95.7185 70.2661 95.75 70.4264 95.8129 70.538C95.8788 70.6467 95.9646 70.7211 96.0705 70.7612C96.1764 70.8012 96.2937 70.8213 96.4225 70.8213C96.5198 70.8213 96.6085 70.8141 96.6886 70.7998C96.7716 70.7855 96.8346 70.7726 96.8775 70.7612L97.1394 71.976C97.0564 72.0046 96.9376 72.0361 96.7831 72.0704C96.6314 72.1048 96.4454 72.1248 96.225 72.1305C95.8358 72.142 95.4853 72.0833 95.1733 71.9545C94.8614 71.8229 94.6139 71.6197 94.4307 71.345C94.2504 71.0703 94.1617 70.7268 94.1646 70.3147V63.8672ZM103.436 67.1897L102.019 67.3442C101.979 67.2011 101.909 67.0666 101.809 66.9407C101.711 66.8148 101.58 66.7132 101.414 66.6359C101.248 66.5587 101.045 66.52 100.804 66.52C100.481 66.52 100.209 66.5902 99.9886 66.7304C99.7711 66.8706 99.6638 67.0523 99.6667 67.2755C99.6638 67.4673 99.7339 67.6233 99.877 67.7434C100.023 67.8636 100.263 67.9624 100.598 68.0396L101.723 68.28C102.347 68.4145 102.81 68.6277 103.114 68.9196C103.42 69.2115 103.574 69.5936 103.577 70.0658C103.574 70.4807 103.453 70.847 103.212 71.1647C102.975 71.4795 102.644 71.7256 102.221 71.903C101.797 72.0805 101.311 72.1692 100.761 72.1692C99.9543 72.1692 99.3047 72.0003 98.8124 71.6626C98.3202 71.3221 98.0269 70.8485 97.9324 70.2418L99.4477 70.0958C99.5164 70.3934 99.6624 70.6181 99.8856 70.7698C100.109 70.9214 100.399 70.9973 100.757 70.9973C101.126 70.9973 101.422 70.9214 101.646 70.7698C101.872 70.6181 101.985 70.4306 101.985 70.2074C101.985 70.0186 101.912 69.8626 101.766 69.7395C101.623 69.6165 101.399 69.522 101.096 69.4562L99.9714 69.2201C99.339 69.0885 98.8711 68.8667 98.5677 68.5548C98.2644 68.24 98.1142 67.8422 98.117 67.3614C98.1142 66.955 98.2243 66.603 98.4476 66.3054C98.6736 66.0049 98.987 65.7731 99.3876 65.61C99.7912 65.444 100.256 65.361 100.783 65.361C101.555 65.361 102.164 65.5256 102.607 65.8547C103.054 66.1838 103.33 66.6288 103.436 67.1897Z" fill="#1E1F4B"/>
<path d="M36.4257 82.9923C36.6104 82.6179 37.1442 82.6179 37.329 82.9923L38.6845 85.7388C38.7578 85.8874 38.8996 85.9905 39.0637 86.0143L42.0946 86.4547C42.5077 86.5147 42.6727 87.0224 42.3738 87.3138L40.1806 89.4517C40.0618 89.5674 40.0077 89.7341 40.0357 89.8975L40.5535 92.9162C40.624 93.3276 40.1922 93.6414 39.8226 93.4471L37.1117 92.0219C36.965 91.9448 36.7897 91.9448 36.6429 92.0219L33.932 93.4471C33.5625 93.6414 33.1306 93.3276 33.2012 92.9162L33.7189 89.8975C33.7469 89.7341 33.6928 89.5674 33.5741 89.4517L31.3809 87.3138C31.0819 87.0224 31.2469 86.5147 31.66 86.4547L34.6909 86.0143C34.855 85.9905 34.9968 85.8874 35.0702 85.7388L36.4257 82.9923Z" fill="#F4C700"/>
<path opacity="0.8" d="M50.2525 91.2215C49.9409 91.2215 49.6508 91.1678 49.3822 91.0604C49.1189 90.9529 48.8879 90.7998 48.6891 90.601C48.4904 90.4022 48.3399 90.1658 48.2379 89.8918L48.7294 89.6501C48.853 89.9617 49.0545 90.2088 49.3338 90.3915C49.6186 90.5688 49.9248 90.6574 50.2525 90.6574C50.5158 90.6574 50.7495 90.5956 50.9537 90.4721C51.1632 90.3485 51.327 90.182 51.4452 89.9724C51.5634 89.7575 51.6225 89.5185 51.6225 89.2552C51.6225 88.9812 51.5607 88.7394 51.4372 88.5299C51.319 88.3204 51.1578 88.1565 50.9537 88.0383C50.7495 87.9148 50.5185 87.853 50.2606 87.853C49.9973 87.853 49.7529 87.9148 49.5273 88.0383C49.307 88.1565 49.1458 88.3016 49.0437 88.4735L48.536 88.3768L48.9873 85.1211H52.0255V85.6852H49.221L49.4708 85.4676L49.1082 88.0303L48.8584 87.9175C49.0464 87.6864 49.2667 87.5226 49.5192 87.4259C49.7717 87.3238 50.0296 87.2728 50.2928 87.2728C50.6797 87.2728 51.0208 87.3641 51.3163 87.5468C51.6118 87.724 51.8428 87.9631 52.0093 88.264C52.1813 88.5595 52.2672 88.8899 52.2672 89.2552C52.2672 89.6259 52.1786 89.9617 52.0013 90.2625C51.8294 90.558 51.5903 90.7917 51.2841 90.9637C50.9832 91.1356 50.6394 91.2215 50.2525 91.2215ZM53.6147 91.1248V90.2384H54.2594V91.1248H53.6147ZM58.0481 91.2215C57.5753 91.2215 57.159 91.0926 56.799 90.8347C56.4444 90.5715 56.1677 90.2088 55.969 89.7468C55.7702 89.2794 55.6708 88.7368 55.6708 88.1189C55.6708 87.5011 55.7702 86.9612 55.969 86.4991C56.1677 86.0317 56.4444 85.6691 56.799 85.4112C57.1536 85.1533 57.5673 85.0244 58.0401 85.0244C58.5128 85.0244 58.9265 85.1533 59.2811 85.4112C59.6357 85.6691 59.9124 86.0317 60.1111 86.4991C60.3099 86.9612 60.4093 87.5011 60.4093 88.1189C60.4093 88.7368 60.3099 89.2794 60.1111 89.7468C59.9177 90.2142 59.6437 90.5768 59.2892 90.8347C58.9346 91.0926 58.5209 91.2215 58.0481 91.2215ZM58.0481 90.6171C58.3919 90.6171 58.6928 90.5124 58.9507 90.3028C59.2086 90.0933 59.41 89.8032 59.5551 89.4325C59.7002 89.0564 59.7727 88.6186 59.7727 88.1189C59.7727 87.6193 59.7002 87.1841 59.5551 86.8134C59.41 86.4373 59.2086 86.1472 58.9507 85.9431C58.6928 85.7335 58.3893 85.6288 58.0401 85.6288C57.6962 85.6288 57.3954 85.7335 57.1375 85.9431C56.8796 86.1472 56.6781 86.4373 56.5331 86.8134C56.388 87.1841 56.3155 87.6193 56.3155 88.1189C56.3155 88.6132 56.388 89.0484 56.5331 89.4244C56.6781 89.8005 56.8796 90.0933 57.1375 90.3028C57.4007 90.5124 57.7043 90.6171 58.0481 90.6171ZM64.0546 92.2531C63.6302 91.7695 63.3052 91.2242 63.0795 90.6171C62.8593 90.01 62.7491 89.3653 62.7491 88.683C62.7491 87.9954 62.8593 87.3507 63.0795 86.7489C63.3052 86.1418 63.6302 85.5992 64.0546 85.1211H64.5785C64.1916 85.6583 63.8962 86.2305 63.692 86.8376C63.4932 87.4447 63.3938 88.0598 63.3938 88.683C63.3938 89.3062 63.4932 89.9214 63.692 90.5285C63.8962 91.1356 64.1916 91.7104 64.5785 92.2531H64.0546ZM67.1083 91.2215C66.7967 91.2215 66.5092 91.1678 66.246 91.0604C65.9827 90.9529 65.7517 90.7998 65.5529 90.601C65.3595 90.4022 65.2118 90.1658 65.1097 89.8918L65.6255 89.6501C65.749 89.9617 65.9424 90.2088 66.2057 90.3915C66.4689 90.5688 66.7698 90.6574 67.1083 90.6574C67.3769 90.6574 67.616 90.6064 67.8255 90.5043C68.035 90.3969 68.1989 90.2437 68.3171 90.045C68.4353 89.8462 68.4944 89.6044 68.4944 89.3197C68.4944 89.0349 68.4326 88.7932 68.309 88.5944C68.1908 88.3956 68.027 88.2452 67.8174 88.1431C67.6079 88.041 67.3688 87.99 67.1002 87.99C67.0304 87.99 66.9525 87.9927 66.8665 87.998C66.7859 88.0034 66.7188 88.0115 66.665 88.0222L66.5361 87.7402L68.1559 85.6852H65.3918V85.1211H68.8812V85.6852L67.3662 87.5951L67.2856 87.4903C67.6455 87.5011 67.9652 87.587 68.2446 87.7482C68.5239 87.904 68.7415 88.1162 68.8973 88.3849C69.0585 88.6535 69.1391 88.9651 69.1391 89.3197C69.1391 89.6743 69.0531 89.9966 68.8812 90.2867C68.7093 90.5715 68.4702 90.7998 68.164 90.9717C67.8577 91.1383 67.5058 91.2215 67.1083 91.2215ZM70.4798 91.1248V90.2384H71.1245V91.1248H70.4798ZM73.2569 91.1248V85.6852H72.1287V85.1211H73.9016V91.1248H73.2569ZM75.498 91.1248V85.1211H76.1427V88.6266L75.9976 88.5541L79.0197 85.1211H79.8255L77.3998 87.8772L77.4321 87.4178L79.9706 91.1248H79.1969L77.15 88.1673L76.1427 89.3116V91.1248H75.498ZM82.1401 91.1248V85.1211H84.2032C84.5954 85.1211 84.9392 85.199 85.2347 85.3548C85.5302 85.5052 85.7585 85.7201 85.9197 85.9995C86.0862 86.2735 86.1695 86.5931 86.1695 86.9585C86.1695 87.3829 86.0567 87.7455 85.831 88.0464C85.6108 88.3473 85.3099 88.5595 84.9285 88.683L86.3307 91.1248H85.5732L84.1065 88.538L84.5416 88.7878H82.7848V91.1248H82.1401ZM82.7848 88.1834H84.2354C84.4933 88.1834 84.7189 88.135 84.9124 88.0383C85.1058 87.9363 85.2562 87.7939 85.3636 87.6112C85.4711 87.4232 85.5248 87.2029 85.5248 86.9504C85.5248 86.6979 85.4711 86.4803 85.3636 86.2976C85.2562 86.115 85.1058 85.9753 84.9124 85.8786C84.7189 85.7765 84.4933 85.7255 84.2354 85.7255H82.7848V88.1834ZM88.9365 91.2215C88.5336 91.2215 88.1682 91.1248 87.8405 90.9314C87.5182 90.7326 87.263 90.4613 87.0749 90.1175C86.8869 89.7737 86.7929 89.3841 86.7929 88.949C86.7929 88.5138 86.8842 88.1297 87.0669 87.7966C87.2495 87.4581 87.4967 87.1922 87.8083 86.9988C88.1252 86.8053 88.4798 86.7086 88.872 86.7086C89.1836 86.7086 89.4603 86.7677 89.7021 86.8859C89.9492 86.9988 90.1587 87.1546 90.3307 87.3533C90.5026 87.5468 90.6342 87.767 90.7255 88.0142C90.8169 88.2559 90.8625 88.5057 90.8625 88.7636C90.8625 88.8173 90.8598 88.8791 90.8545 88.949C90.8491 89.0134 90.841 89.0806 90.8303 89.1504H87.1797V88.5863H90.4838L90.1937 88.8281C90.242 88.5326 90.2071 88.2694 90.0889 88.0383C89.9761 87.8019 89.8122 87.6166 89.5973 87.4823C89.3824 87.3426 89.1406 87.2728 88.872 87.2728C88.6034 87.2728 88.3536 87.3426 88.1226 87.4823C87.8969 87.622 87.7196 87.8181 87.5907 88.0706C87.4617 88.3177 87.4107 88.6132 87.4376 88.957C87.4107 89.3009 87.4644 89.6017 87.5987 89.8596C87.7384 90.1121 87.9265 90.3082 88.1629 90.4479C88.4046 90.5876 88.6625 90.6574 88.9365 90.6574C89.2535 90.6574 89.5194 90.5822 89.7343 90.4318C89.9492 90.2814 90.1238 90.0933 90.2581 89.8677L90.7739 90.1417C90.6879 90.3351 90.5563 90.5151 90.379 90.6816C90.2017 90.8428 89.9895 90.9744 89.7424 91.0765C89.5006 91.1732 89.232 91.2215 88.9365 91.2215ZM93.0019 91.1248L91.3176 86.8053H91.9945L93.4129 90.593H93.1953L94.6217 86.8053H95.3067L93.6063 91.1248H93.0019ZM96.0126 91.1248V86.8053H96.617V91.1248H96.0126ZM96.0126 86.0075V85.1211H96.617V86.0075H96.0126ZM99.8205 91.2215C99.4176 91.2215 99.0522 91.1248 98.7245 90.9314C98.4022 90.7326 98.147 90.4613 97.9589 90.1175C97.7709 89.7737 97.6769 89.3841 97.6769 88.949C97.6769 88.5138 97.7682 88.1297 97.9509 87.7966C98.1336 87.4581 98.3807 87.1922 98.6923 86.9988C99.0093 86.8053 99.3639 86.7086 99.756 86.7086C100.068 86.7086 100.344 86.7677 100.586 86.8859C100.833 86.9988 101.043 87.1546 101.215 87.3533C101.387 87.5468 101.518 87.767 101.61 88.0142C101.701 88.2559 101.747 88.5057 101.747 88.7636C101.747 88.8173 101.744 88.8791 101.738 88.949C101.733 89.0134 101.725 89.0806 101.714 89.1504H98.0637V88.5863H101.368L101.078 88.8281C101.126 88.5326 101.091 88.2694 100.973 88.0383C100.86 87.8019 100.696 87.6166 100.481 87.4823C100.266 87.3426 100.025 87.2728 99.756 87.2728C99.4874 87.2728 99.2376 87.3426 99.0066 87.4823C98.7809 87.622 98.6036 87.8181 98.4747 88.0706C98.3458 88.3177 98.2947 88.6132 98.3216 88.957C98.2947 89.3009 98.3484 89.6017 98.4828 89.8596C98.6224 90.1121 98.8105 90.3082 99.0469 90.4479C99.2886 90.5876 99.5465 90.6574 99.8205 90.6574C100.137 90.6574 100.403 90.5822 100.618 90.4318C100.833 90.2814 101.008 90.0933 101.142 89.8677L101.658 90.1417C101.572 90.3351 101.44 90.5151 101.263 90.6816C101.086 90.8428 100.874 90.9744 100.626 91.0765C100.385 91.1732 100.116 91.2215 99.8205 91.2215ZM103.763 91.1248L102.28 86.8053H102.965L104.19 90.5849H103.948L105.101 86.8053H105.705L106.858 90.5849H106.616L107.849 86.8053H108.526L107.043 91.1248H106.439L105.318 87.4259H105.488L104.368 91.1248H103.763ZM110.733 91.2215C110.319 91.2215 109.957 91.1168 109.645 90.9072C109.333 90.6977 109.108 90.413 108.968 90.053L109.476 89.8113C109.599 90.0745 109.771 90.284 109.992 90.4398C110.217 90.5956 110.464 90.6735 110.733 90.6735C110.991 90.6735 111.208 90.6118 111.386 90.4882C111.563 90.3593 111.652 90.1927 111.652 89.9886C111.652 89.8381 111.609 89.7199 111.523 89.634C111.437 89.5426 111.337 89.4728 111.225 89.4244C111.112 89.3761 111.012 89.3412 110.926 89.3197L110.306 89.1424C109.908 89.0296 109.621 88.8711 109.444 88.6669C109.266 88.4628 109.178 88.2264 109.178 87.9577C109.178 87.7052 109.242 87.485 109.371 87.2969C109.5 87.1089 109.675 86.9638 109.895 86.8618C110.115 86.7597 110.36 86.7086 110.628 86.7086C110.993 86.7086 111.324 86.8053 111.619 86.9988C111.92 87.1868 112.132 87.45 112.256 87.7885L111.74 88.0303C111.633 87.7885 111.477 87.6005 111.273 87.4662C111.074 87.3265 110.851 87.2566 110.604 87.2566C110.362 87.2566 110.169 87.3184 110.024 87.442C109.879 87.5656 109.806 87.7214 109.806 87.9094C109.806 88.0545 109.844 88.17 109.919 88.2559C109.994 88.3419 110.08 88.4064 110.177 88.4493C110.279 88.4923 110.368 88.5245 110.443 88.546L111.16 88.7556C111.509 88.8576 111.781 89.0161 111.974 89.231C112.173 89.4459 112.272 89.6984 112.272 89.9886C112.272 90.2249 112.205 90.4372 112.071 90.6252C111.942 90.8132 111.762 90.961 111.531 91.0684C111.3 91.1705 111.034 91.2215 110.733 91.2215ZM112.875 92.2531C113.262 91.7104 113.554 91.1356 113.753 90.5285C113.957 89.9214 114.059 89.3062 114.059 88.683C114.059 88.0598 113.957 87.4447 113.753 86.8376C113.554 86.2305 113.262 85.6583 112.875 85.1211H113.399C113.828 85.5992 114.154 86.1418 114.374 86.7489C114.594 87.3507 114.704 87.9954 114.704 88.683C114.704 89.3653 114.594 90.01 114.374 90.6171C114.154 91.2242 113.828 91.7695 113.399 92.2531H112.875Z" fill="#2E3E5C"/>
</g>
<defs>
<filter id="filter0_bd_379_47" x="0.109015" y="0.607199" width="169.741" height="148.962" filterUnits="userSpaceOnUse" color-interpolation-filters="sRGB">
<feFlood flood-opacity="0" result="BackgroundImageFix"/>
<feGaussianBlur in="BackgroundImageFix" stdDeviation="6.04405"/>
<feComposite in2="SourceAlpha" operator="in" result="effect1_backgroundBlur_379_47"/>
<feColorMatrix in="SourceAlpha" type="matrix" values="0 0 0 0 0 0 0 0 0 0 0 0 0 0 0 0 0 0 127 0" result="hardAlpha"/>
<feOffset dx="12.0881" dy="12.0881"/>
<feGaussianBlur stdDeviation="16.1175"/>
<feComposite in2="hardAlpha" operator="out"/>
<feColorMatrix type="matrix" values="0 0 0 0 0 0 0 0 0 0 0 0 0 0 0 0 0 0 0.15 0"/>
<feBlend mode="normal" in2="effect1_backgroundBlur_379_47" result="effect2_dropShadow_379_47"/>
<feBlend mode="normal" in="SourceGraphic" in2="effect2_dropShadow_379_47" result="shape"/>
</filter>
<clipPath id="clip0_379_47">
<rect width="12.0881" height="12.0881" fill="white" transform="translate(36.373 36.8715)"/>
</clipPath>
<clipPath id="clip1_379_47">
<rect width="12.0881" height="12.0881" fill="white" transform="translate(48.4614 36.8715)"/>
</clipPath>
<clipPath id="clip2_379_47">
<rect width="12.0881" height="12.0881" fill="white" transform="translate(60.5503 36.8715)"/>
</clipPath>
</defs>
</svg>
