<svg width="24" height="24" viewBox="0 0 24 24" fill="none" xmlns="http://www.w3.org/2000/svg">
<path d="M5.09975 5.13316C5.09975 4.34745 5.73615 3.71105 6.52186 3.71105C7.30757 3.71105 7.94397 4.34745 7.94397 5.13316C7.94397 5.91888 7.30757 6.55527 6.52186 6.55527C5.73615 6.55527 5.09975 5.91888 5.09975 5.13316ZM11.4992 6.55527C12.4812 6.55527 13.2769 5.7596 13.2769 4.77763C13.2769 3.79567 12.4812 3 11.4992 3C10.5173 3 9.7216 3.79567 9.7216 4.77763C9.7216 5.7596 10.5173 6.55527 11.4992 6.55527ZM16.4766 6.55527C17.2623 6.55527 17.8987 5.91888 17.8987 5.13316C17.8987 4.34745 17.2623 3.71105 16.4766 3.71105C15.6909 3.71105 15.0545 4.34745 15.0545 5.13316C15.0545 5.91888 15.6909 6.55527 16.4766 6.55527ZM11.4999 20.0653C7.05444 20.0653 3.40176 16.7297 3.00286 12.3077C2.96801 11.9166 3.25599 11.571 3.64707 11.5355C4.04739 11.5014 4.38443 11.7886 4.41927 12.1797C4.46549 12.6952 4.57073 13.1908 4.71721 13.6658H7.16323C7.05017 13.2278 6.962 12.7777 6.9165 12.3127C6.8781 11.9216 7.16465 11.5739 7.55502 11.5362C7.94823 11.5006 8.29381 11.7844 8.33149 12.1747C8.38127 12.6881 8.4929 13.1858 8.64009 13.6658H14.3598C14.507 13.1858 14.6186 12.6881 14.6684 12.1747C14.7061 11.7836 15.0524 11.4999 15.4449 11.5362C15.836 11.5739 16.1218 11.9216 16.0834 12.3127C16.0386 12.7777 15.9497 13.2278 15.8367 13.6658H18.2827C18.4299 13.1908 18.5344 12.6952 18.5806 12.1797C18.6162 11.7886 18.9546 11.4999 19.3528 11.5355C19.7439 11.571 20.0326 11.9166 19.997 12.3077C19.5981 16.7297 15.9455 20.0646 11.4999 20.0653ZM9.20822 15.0879C9.93563 16.5662 10.9211 17.7352 11.4985 18.3488C12.0766 17.7352 13.0614 16.5662 13.7888 15.0879H9.20822ZM9.65405 18.3993C8.98282 17.5681 8.20564 16.4304 7.64248 15.0879H5.33582C6.26588 16.7112 7.81029 17.9122 9.65405 18.3993ZM17.6626 15.0879H15.356C14.7928 16.4311 14.0157 17.5681 13.3444 18.3993C15.1882 17.9122 16.7326 16.7112 17.6626 15.0879ZM9.1165 10.0657C9.48482 10.203 9.89439 10.0181 10.0323 9.64906C10.2478 9.07453 10.8372 8.68843 11.4992 8.68843C12.1612 8.68843 12.7514 9.07453 12.9661 9.64906C13.1034 10.0217 13.5236 10.2016 13.882 10.0657C14.2496 9.9278 14.4359 9.51752 14.2979 9.15061C13.8756 8.02359 12.7507 7.26703 11.4985 7.26703C10.2464 7.26703 9.12147 8.02359 8.69911 9.15061C8.56116 9.51823 8.74746 9.9278 9.11507 10.0657H9.1165ZM16.0158 7.30045C15.6276 7.35876 15.3595 7.72069 15.4179 8.10963C15.4762 8.49787 15.8367 8.76025 16.2263 8.70763C16.9452 8.60097 17.701 9.00129 17.9442 9.64906C18.0815 10.0217 18.5017 10.2016 18.8601 10.0657C19.2277 9.9278 19.414 9.51752 19.276 9.15061C18.8537 8.02359 17.7288 7.26703 16.4766 7.26703C16.3202 7.26703 16.1659 7.27841 16.0158 7.30045ZM4.13912 10.0657C4.49749 10.2023 4.91701 10.0217 5.05496 9.64906C5.29743 9.00058 6.05399 8.59741 6.77286 8.70763C7.1611 8.76096 7.52302 8.49787 7.58133 8.10963C7.63964 7.72069 7.37228 7.35876 6.98333 7.30045C6.8333 7.27841 6.679 7.26632 6.52257 7.26632C5.27041 7.26632 4.14552 8.02288 3.72315 9.1499C3.58521 9.51752 3.7715 9.92708 4.13912 10.065V10.0657Z" fill="black"/>
</svg>
