<svg width="56" height="56" viewBox="0 0 56 56" fill="none" xmlns="http://www.w3.org/2000/svg">
<path d="M41.9998 18.6667C41.9998 19.9043 41.5082 21.0913 40.633 21.9665C39.7578 22.8417 38.5708 23.3333 37.3332 23.3333C36.0955 23.3333 34.9085 22.8417 34.0333 21.9665C33.1582 21.0913 32.6665 19.9043 32.6665 18.6667C32.6665 17.429 33.1582 16.242 34.0333 15.3668C34.9085 14.4917 36.0955 14 37.3332 14C38.5708 14 39.7578 14.4917 40.633 15.3668C41.5082 16.242 41.9998 17.429 41.9998 18.6667Z" fill="black"/>
<path fill-rule="evenodd" clip-rule="evenodd" d="M27.8668 2.91675H28.1328C33.5205 2.91675 37.7415 2.91675 41.0362 3.36008C44.4055 3.81275 47.0655 4.76008 49.1538 6.84608C51.2422 8.93442 52.1872 11.5944 52.6398 14.9661C53.0832 18.2584 53.0832 22.4794 53.0832 27.8671V28.0724C53.0832 32.5268 53.0832 36.1714 52.8405 39.1394C52.5978 42.1261 52.1008 44.6158 50.9855 46.6878C50.4955 47.6001 49.8888 48.4191 49.1538 49.1541C47.0655 51.2424 44.4055 52.1874 41.0338 52.6401C37.7415 53.0834 33.5205 53.0834 28.1328 53.0834H27.8668C22.4792 53.0834 18.2582 53.0834 14.9635 52.6401C11.5942 52.1874 8.93417 51.2401 6.84584 49.1541C4.9955 47.3038 4.03884 45.0007 3.5325 42.1401C3.03084 39.3331 2.93984 35.8401 2.92117 31.5047C2.9165 30.4011 2.9165 29.2344 2.9165 28.0024V27.8671C2.9165 22.4794 2.9165 18.2584 3.35984 14.9637C3.8125 11.5944 4.75984 8.93442 6.84584 6.84608C8.93417 4.75775 11.5942 3.81275 14.9658 3.36008C18.2582 2.91675 22.4792 2.91675 27.8668 2.91675ZM15.4302 6.82742C12.4482 7.22875 10.6492 7.99408 9.3215 9.32175C7.9915 10.6517 7.2285 12.4484 6.82717 15.4327C6.42117 18.4661 6.4165 22.4514 6.4165 28.0001V29.9694L8.75217 27.9254C9.77667 27.0286 11.1038 26.5547 12.4646 26.5998C13.8254 26.6448 15.1182 27.2055 16.0812 28.1681L26.0912 38.1781C26.868 38.9547 27.8938 39.4324 28.9881 39.5272C30.0825 39.6219 31.1751 39.3276 32.0738 38.6961L32.7692 38.2061C34.0658 37.295 35.6331 36.8508 37.215 36.9462C38.7968 37.0415 40.2994 37.6708 41.4772 38.7311L48.0805 44.6741C48.7478 43.2788 49.1422 41.4448 49.3522 38.8571C49.5808 36.0454 49.5832 32.5408 49.5832 28.0001C49.5832 22.4514 49.5785 18.4661 49.1725 15.4327C48.7712 12.4484 48.0058 10.6494 46.6782 9.31942C45.3482 7.99175 43.5515 7.22875 40.5672 6.82742C37.5338 6.42142 33.5485 6.41675 27.9998 6.41675C22.4512 6.41675 18.4635 6.42142 15.4302 6.82742Z" fill="black"/>
</svg>
