<svg width="538" height="390" viewBox="0 0 538 390" fill="none" xmlns="http://www.w3.org/2000/svg">
<path d="M10.3045 178.782C10.3045 178.782 5.25815 43.1562 139.514 70.5285C211.239 85.1509 248.538 58.0974 265.193 38.9727C277.18 25.2268 293.436 15.9235 311.268 12.0786C356.385 2.3569 433.635 -1.02976 470.475 74.9511C524.329 185.994 435.71 308.133 384.908 337.398C334.106 366.662 220.713 313.771 220.713 313.771C220.713 313.771 140.292 290.98 87.4351 343.753C34.5786 396.525 10.3045 178.782 10.3045 178.782Z" stroke="#26A96C" stroke-width="0.316" stroke-miterlimit="10"/>
<path d="M407.726 287.933H61.9647C53.6074 287.933 46.8457 281.16 46.8457 272.832V77.8003C46.8457 69.4531 53.6273 62.6997 61.9647 62.6997H407.726C416.084 62.6997 422.845 69.473 422.845 77.8003V272.812C422.845 281.159 416.084 287.933 407.726 287.933Z" fill="#03012C"/>
<path d="M409.926 268.276V82.3286L59.7567 82.3286V268.276H409.926Z" fill="white"/>
<path d="M274.827 287.933H194.884V312.855H274.827V287.933Z" fill="#03012C"/>
<path d="M296.01 331.441H173.682C173.682 321.182 182.019 312.854 192.291 312.854H277.42C287.672 312.854 296.01 321.182 296.01 331.441Z" fill="#03012C"/>
<path d="M99.283 175.934H78.0806V253.349H99.283V175.934Z" fill="#26A96C"/>
<path d="M141.05 192.966H119.848V253.348H141.05V192.966Z" fill="white" stroke="#03012C" stroke-width="0.316" stroke-miterlimit="10"/>
<path d="M182.816 219.78H161.614V253.348H182.816V219.78Z" fill="#26A96C"/>
<path d="M224.564 208.445H203.361V253.349H224.564V208.445Z" fill="white" stroke="#03012C" stroke-width="0.316" stroke-miterlimit="10"/>
<path d="M308.096 160.255H286.894V253.348H308.096V160.255Z" fill="white" stroke="#03012C" stroke-width="0.316" stroke-miterlimit="10"/>
<path d="M266.329 203.525H245.127V253.349H266.329V203.525Z" fill="#26A96C"/>
<path d="M349.863 130.114H328.66V253.349H349.863V130.114Z" fill="#26A96C"/>
<path d="M391.61 141.13H370.407V253.368H391.61V141.13Z" fill="white" stroke="#03012C" stroke-width="0.316" stroke-miterlimit="10"/>
<path d="M290.384 102.006H471.652C472.829 102.006 473.786 101.05 473.786 99.8742V2.75661C473.786 1.58123 472.829 0.625 471.652 0.625H290.384C289.207 0.625 288.25 1.58123 288.25 2.75661V99.8543C288.25 101.05 289.207 102.006 290.384 102.006Z" fill="white" stroke="#03012C" stroke-width="0.316" stroke-miterlimit="10"/>
<path d="M288.25 11.9605H473.786V2.61726C473.786 1.52157 472.909 0.64502 471.812 0.64502H290.225C289.128 0.64502 288.25 1.52157 288.25 2.61726V11.9605Z" fill="#03012C"/>
<path d="M2.5458 158.88H196.021C197.277 158.88 198.295 157.864 198.295 156.609V52.9576C198.295 51.7025 197.277 50.6865 196.021 50.6865H2.5458C1.28921 50.6865 0.271973 51.7025 0.271973 52.9576V156.609C0.271973 157.864 1.28921 158.88 2.5458 158.88Z" fill="white" stroke="#03012C" stroke-width="0.316" stroke-miterlimit="10"/>
<path d="M0.271899 62.7789H198.294V52.7982C198.294 51.6428 197.357 50.6865 196.18 50.6865H2.36621C1.20935 50.6865 0.251953 51.6228 0.251953 52.7982V62.7789H0.271899Z" fill="#03012C"/>
<path d="M54.2592 130.597V72.4152H57.9865V130.597H54.2592ZM63.2365 92.1879C63.085 90.5212 62.4107 89.2258 61.2138 88.3015C60.032 87.3621 58.3426 86.8924 56.1456 86.8924C54.6911 86.8924 53.4789 87.0818 52.5092 87.4606C51.5395 87.8394 50.8123 88.3621 50.3274 89.0288C49.8426 89.6803 49.5926 90.4303 49.5774 91.2788C49.5471 91.9758 49.6835 92.5894 49.9865 93.1197C50.3047 93.65 50.7592 94.1197 51.3501 94.5288C51.9562 94.9227 52.6835 95.2712 53.532 95.5743C54.3804 95.8773 55.335 96.1424 56.3956 96.3697L60.3956 97.2788C62.6986 97.7788 64.7289 98.4455 66.4865 99.2788C68.2592 100.112 69.7441 101.105 70.9411 102.256C72.1532 103.408 73.0698 104.733 73.6911 106.233C74.3123 107.733 74.6304 109.415 74.6456 111.279C74.6304 114.218 73.888 116.741 72.4183 118.847C70.9486 120.953 68.835 122.567 66.0774 123.688C63.335 124.809 60.0244 125.37 56.1456 125.37C52.2517 125.37 48.8577 124.786 45.9638 123.62C43.0698 122.453 40.8198 120.68 39.2138 118.302C37.6077 115.923 36.782 112.915 36.7365 109.279H47.5092C47.6001 110.779 48.0017 112.029 48.7138 113.029C49.4259 114.029 50.4032 114.786 51.6456 115.302C52.9032 115.817 54.3577 116.074 56.0092 116.074C57.5244 116.074 58.8123 115.87 59.8729 115.461C60.9486 115.052 61.7744 114.483 62.3501 113.756C62.9259 113.029 63.2214 112.195 63.2365 111.256C63.2214 110.377 62.9486 109.627 62.4183 109.006C61.888 108.37 61.0698 107.824 59.9638 107.37C58.8729 106.9 57.4789 106.468 55.782 106.074L50.9183 104.938C46.888 104.014 43.7138 102.521 41.3956 100.461C39.0774 98.3849 37.9259 95.5818 37.9411 92.0515C37.9259 89.1727 38.6986 86.65 40.2592 84.4834C41.8198 82.3167 43.9789 80.6273 46.7365 79.4152C49.4941 78.203 52.638 77.597 56.1683 77.597C59.7744 77.597 62.9032 78.2106 65.5547 79.4379C68.2214 80.65 70.2895 82.3546 71.7592 84.5515C73.2289 86.7485 73.9789 89.294 74.0092 92.1879H63.2365ZM79.6683 117.052V108.279L98.7365 78.2334H106.532V90.1424H102.009L90.8501 107.824V108.188H118.464V117.052H79.6683ZM102.146 124.779V114.37L102.373 110.529V78.2334H112.896V124.779H102.146ZM141.884 77.597C144.43 77.597 146.862 78.0137 149.18 78.847C151.498 79.6652 153.566 80.9758 155.384 82.7788C157.202 84.5667 158.634 86.9227 159.68 89.847C160.725 92.7712 161.248 96.3394 161.248 100.552C161.263 104.43 160.808 107.908 159.884 110.983C158.96 114.044 157.634 116.65 155.907 118.802C154.195 120.953 152.134 122.597 149.725 123.733C147.316 124.855 144.627 125.415 141.657 125.415C138.384 125.415 135.498 124.786 132.998 123.529C130.513 122.256 128.521 120.544 127.021 118.392C125.536 116.241 124.649 113.832 124.362 111.165H135.43C135.778 112.711 136.513 113.877 137.634 114.665C138.755 115.438 140.096 115.824 141.657 115.824C144.505 115.824 146.634 114.589 148.043 112.12C149.452 109.65 150.157 106.294 150.157 102.052H149.884C149.233 103.445 148.308 104.642 147.112 105.642C145.93 106.642 144.558 107.408 142.998 107.938C141.437 108.468 139.793 108.733 138.066 108.733C135.278 108.733 132.816 108.097 130.68 106.824C128.558 105.552 126.892 103.802 125.68 101.574C124.483 99.347 123.877 96.8015 123.862 93.9379C123.846 90.7258 124.596 87.8924 126.112 85.4379C127.627 82.9682 129.74 81.044 132.452 79.6652C135.165 78.2712 138.308 77.5818 141.884 77.597ZM141.952 86.2334C140.558 86.2334 139.316 86.5591 138.225 87.2106C137.149 87.8621 136.301 88.7409 135.68 89.847C135.058 90.953 134.755 92.1955 134.771 93.5743C134.786 94.9531 135.096 96.1955 135.702 97.3015C136.324 98.4076 137.165 99.2864 138.225 99.9379C139.301 100.589 140.528 100.915 141.907 100.915C142.937 100.915 143.892 100.726 144.771 100.347C145.649 99.9682 146.415 99.4455 147.066 98.7788C147.718 98.097 148.225 97.3091 148.589 96.4152C148.968 95.5212 149.149 94.5667 149.134 93.5515C149.119 92.2031 148.801 90.9758 148.18 89.8697C147.558 88.7637 146.702 87.8849 145.612 87.2334C144.536 86.5667 143.316 86.2334 141.952 86.2334Z" fill="#26A96C"/>
<path d="M313.816 79.7786V21.5968H317.544V79.7786H313.816ZM322.794 41.3695C322.642 39.7029 321.968 38.4074 320.771 37.4832C319.589 36.5438 317.9 36.0741 315.703 36.0741C314.248 36.0741 313.036 36.2635 312.066 36.6423C311.097 37.0211 310.369 37.5438 309.885 38.2104C309.4 38.862 309.15 39.612 309.135 40.4604C309.104 41.1574 309.241 41.7711 309.544 42.3014C309.862 42.8317 310.316 43.3014 310.907 43.7104C311.513 44.1044 312.241 44.4529 313.089 44.7559C313.938 45.0589 314.892 45.3241 315.953 45.5514L319.953 46.4604C322.256 46.9604 324.286 47.6271 326.044 48.4604C327.816 49.2938 329.301 50.2862 330.498 51.4377C331.71 52.5892 332.627 53.915 333.248 55.415C333.869 56.915 334.188 58.5968 334.203 60.4604C334.188 63.3998 333.445 65.9226 331.975 68.0286C330.506 70.1347 328.392 71.7483 325.635 72.8695C322.892 73.9908 319.582 74.5514 315.703 74.5514C311.809 74.5514 308.415 73.968 305.521 72.8014C302.627 71.6347 300.377 69.862 298.771 67.4832C297.165 65.1044 296.339 62.0968 296.294 58.4604H307.066C307.157 59.9604 307.559 61.2104 308.271 62.2104C308.983 63.2104 309.96 63.968 311.203 64.4832C312.46 64.9983 313.915 65.2559 315.566 65.2559C317.082 65.2559 318.369 65.0514 319.43 64.6423C320.506 64.2332 321.332 63.665 321.907 62.9377C322.483 62.2104 322.778 61.3771 322.794 60.4377C322.778 59.5589 322.506 58.8089 321.975 58.1877C321.445 57.5514 320.627 57.0059 319.521 56.5514C318.43 56.0817 317.036 55.6498 315.339 55.2559L310.475 54.1195C306.445 53.1953 303.271 51.7029 300.953 49.6423C298.635 47.5665 297.483 44.7635 297.498 41.2332C297.483 38.3544 298.256 35.8317 299.816 33.665C301.377 31.4983 303.536 29.8089 306.294 28.5968C309.051 27.3847 312.195 26.7786 315.725 26.7786C319.332 26.7786 322.46 27.3923 325.112 28.6195C327.778 29.8317 329.847 31.5362 331.316 33.7332C332.786 35.9301 333.536 38.4756 333.566 41.3695H322.794ZM339.225 66.2332V57.4604L358.294 27.415H366.089V39.3241H361.566L350.407 57.0059V57.3695H378.021V66.2332H339.225ZM361.703 73.9604V63.5514L361.93 59.7104V27.415H372.453V73.9604H361.703ZM401.737 74.5968C398.343 74.5968 395.328 73.9832 392.691 72.7559C390.055 71.5286 387.972 69.8392 386.441 67.6877C384.926 65.5362 384.138 63.0665 384.078 60.2786H394.987C395.078 61.9908 395.775 63.3695 397.078 64.415C398.381 65.4453 399.934 65.9604 401.737 65.9604C403.146 65.9604 404.396 65.6498 405.487 65.0286C406.578 64.4074 407.434 63.5362 408.055 62.415C408.676 61.2786 408.979 59.9756 408.964 58.5059C408.979 57.0059 408.669 55.6953 408.032 54.5741C407.411 53.4529 406.547 52.5817 405.441 51.9604C404.35 51.3241 403.093 51.0059 401.669 51.0059C400.32 50.9908 399.04 51.2862 397.828 51.8923C396.631 52.4983 395.722 53.3241 395.1 54.3695L385.169 52.5059L387.191 27.415H417.055V36.4832H396.441L395.373 47.4604H395.646C396.419 46.1726 397.661 45.112 399.373 44.2786C401.1 43.4301 403.063 43.0059 405.26 43.0059C408.047 43.0059 410.532 43.6574 412.714 44.9604C414.911 46.2483 416.638 48.0362 417.896 50.3241C419.169 52.612 419.805 55.2332 419.805 58.1877C419.805 61.3847 419.047 64.218 417.532 66.6877C416.032 69.1574 413.926 71.0968 411.214 72.5059C408.517 73.8998 405.358 74.5968 401.737 74.5968ZM445.231 75.0968C441.171 75.0968 437.671 74.1347 434.731 72.2104C431.792 70.2711 429.527 67.4908 427.936 63.8695C426.345 60.2332 425.557 55.862 425.572 50.7559C425.587 45.6498 426.383 41.3165 427.958 37.7559C429.549 34.1801 431.807 31.4604 434.731 29.5968C437.671 27.718 441.171 26.7786 445.231 26.7786C449.292 26.7786 452.792 27.718 455.731 29.5968C458.686 31.4604 460.958 34.1801 462.549 37.7559C464.14 41.3317 464.928 45.665 464.913 50.7559C464.913 55.8771 464.117 60.2559 462.527 63.8923C460.936 67.5286 458.671 70.3089 455.731 72.2332C452.807 74.1423 449.307 75.0968 445.231 75.0968ZM445.231 65.8923C447.655 65.8923 449.617 64.6574 451.117 62.1877C452.617 59.7029 453.36 55.8923 453.345 50.7559C453.345 47.3923 453.004 44.6195 452.322 42.4377C451.64 40.2408 450.693 38.6044 449.481 37.5286C448.269 36.4529 446.852 35.915 445.231 35.915C442.822 35.915 440.875 37.1347 439.39 39.5741C437.905 41.9983 437.155 45.7256 437.14 50.7559C437.125 54.165 437.451 56.9908 438.117 59.2332C438.799 61.4756 439.754 63.1498 440.981 64.2559C442.208 65.3468 443.625 65.8923 445.231 65.8923Z" fill="#26A96C"/>
<path d="M56.9022 149.682V136.182H58.3596V137.741H58.5385C58.6493 137.571 58.8027 137.354 58.9988 137.089C59.199 136.821 59.4846 136.582 59.8553 136.374C60.2303 136.161 60.7374 136.054 61.3766 136.054C62.2033 136.054 62.932 136.261 63.5627 136.674C64.1934 137.087 64.6855 137.673 65.0392 138.432C65.3929 139.19 65.5698 140.085 65.5698 141.116C65.5698 142.156 65.3929 143.058 65.0392 143.82C64.6855 144.579 64.1955 145.167 63.5691 145.585C62.9426 145.998 62.2203 146.205 61.4022 146.205C60.7715 146.205 60.2665 146.1 59.8873 145.891C59.508 145.678 59.2161 145.437 59.0115 145.169C58.807 144.896 58.6493 144.67 58.5385 144.491H58.4107V149.682H56.9022ZM58.3851 141.091C58.3851 141.832 58.4938 142.487 58.7111 143.053C58.9284 143.616 59.2459 144.057 59.6635 144.376C60.0811 144.692 60.5925 144.849 61.1976 144.849C61.8283 144.849 62.3546 144.683 62.7765 144.351C63.2026 144.014 63.5222 143.562 63.7353 142.996C63.9526 142.425 64.0613 141.79 64.0613 141.091C64.0613 140.401 63.9547 139.778 63.7417 139.224C63.5328 138.666 63.2154 138.225 62.7892 137.901C62.3674 137.573 61.8368 137.409 61.1976 137.409C60.584 137.409 60.0684 137.565 59.6507 137.876C59.2331 138.183 58.9178 138.613 58.7047 139.167C58.4917 139.717 58.3851 140.358 58.3851 141.091ZM71.9874 146.205C71.0414 146.205 70.2253 145.996 69.5392 145.578C68.8574 145.156 68.3311 144.568 67.9604 143.814C67.5939 143.055 67.4107 142.173 67.4107 141.168C67.4107 140.162 67.5939 139.276 67.9604 138.509C68.3311 137.737 68.8468 137.136 69.5073 136.706C70.1721 136.271 70.9476 136.054 71.834 136.054C72.3453 136.054 72.8503 136.139 73.3489 136.31C73.8475 136.48 74.3013 136.757 74.7104 137.141C75.1195 137.52 75.4455 138.023 75.6884 138.649C75.9313 139.276 76.0527 140.047 76.0527 140.963V141.602H68.4846V140.298H74.5186C74.5186 139.744 74.4078 139.25 74.1863 138.815C73.9689 138.381 73.6578 138.038 73.253 137.786C72.8525 137.535 72.3794 137.409 71.834 137.409C71.2331 137.409 70.7132 137.558 70.2743 137.857C69.8397 138.151 69.5051 138.534 69.2708 139.007C69.0364 139.48 68.9192 139.987 68.9192 140.528V141.398C68.9192 142.139 69.0471 142.768 69.3027 143.283C69.5627 143.795 69.9228 144.185 70.383 144.453C70.8432 144.717 71.378 144.849 71.9874 144.849C72.3837 144.849 72.7417 144.794 73.0613 144.683C73.3851 144.568 73.6642 144.398 73.8986 144.172C74.133 143.942 74.3141 143.656 74.4419 143.315L75.8993 143.724C75.7459 144.219 75.4881 144.653 75.1259 145.028C74.7637 145.399 74.3162 145.689 73.7836 145.898C73.2509 146.102 72.6522 146.205 71.9874 146.205ZM78.3475 146V136.182H79.8049V137.665H79.9071C80.0861 137.179 80.41 136.785 80.8787 136.482C81.3475 136.18 81.8759 136.028 82.464 136.028C82.5748 136.028 82.7132 136.031 82.8794 136.035C83.0456 136.039 83.1713 136.045 83.2566 136.054V137.588C83.2054 137.575 83.0882 137.556 82.905 137.531C82.726 137.501 82.5364 137.486 82.3361 137.486C81.8588 137.486 81.4327 137.586 81.0577 137.786C80.687 137.982 80.3929 138.255 80.1756 138.604C79.9625 138.95 79.856 139.344 79.856 139.787V146H78.3475ZM90.1072 146V136.182H91.5646V137.716H91.6925C91.897 137.192 92.2273 136.785 92.6832 136.495C93.1392 136.201 93.6868 136.054 94.326 136.054C94.9737 136.054 95.5128 136.201 95.9432 136.495C96.3778 136.785 96.7166 137.192 96.9595 137.716H97.0618C97.3132 137.209 97.6903 136.806 98.1932 136.508C98.696 136.205 99.299 136.054 100.002 136.054C100.88 136.054 101.598 136.329 102.156 136.879C102.714 137.424 102.994 138.274 102.994 139.429V146H101.485V139.429C101.485 138.705 101.287 138.187 100.891 137.876C100.494 137.565 100.028 137.409 99.4908 137.409C98.8004 137.409 98.2656 137.618 97.8864 138.036C97.5071 138.449 97.3175 138.973 97.3175 139.608V146H95.7834V139.276C95.7834 138.717 95.6023 138.268 95.2401 137.927C94.8778 137.582 94.4112 137.409 93.8402 137.409C93.4482 137.409 93.0817 137.513 92.7408 137.722C92.4041 137.931 92.1314 138.221 91.9226 138.592C91.718 138.958 91.6158 139.382 91.6158 139.864V146H90.1072ZM109.74 146.205C108.854 146.205 108.076 145.994 107.407 145.572C106.743 145.15 106.223 144.56 105.848 143.801C105.477 143.043 105.292 142.156 105.292 141.142C105.292 140.119 105.477 139.227 105.848 138.464C106.223 137.701 106.743 137.109 107.407 136.687C108.076 136.265 108.854 136.054 109.74 136.054C110.627 136.054 111.402 136.265 112.067 136.687C112.736 137.109 113.256 137.701 113.627 138.464C114.002 139.227 114.189 140.119 114.189 141.142C114.189 142.156 114.002 143.043 113.627 143.801C113.256 144.56 112.736 145.15 112.067 145.572C111.402 145.994 110.627 146.205 109.74 146.205ZM109.74 144.849C110.414 144.849 110.968 144.677 111.402 144.332C111.837 143.987 112.159 143.533 112.368 142.97C112.576 142.408 112.681 141.798 112.681 141.142C112.681 140.486 112.576 139.874 112.368 139.308C112.159 138.741 111.837 138.283 111.402 137.933C110.968 137.584 110.414 137.409 109.74 137.409C109.067 137.409 108.513 137.584 108.078 137.933C107.644 138.283 107.322 138.741 107.113 139.308C106.904 139.874 106.8 140.486 106.8 141.142C106.8 141.798 106.904 142.408 107.113 142.97C107.322 143.533 107.644 143.987 108.078 144.332C108.513 144.677 109.067 144.849 109.74 144.849ZM118.001 140.094V146H116.492V136.182H117.949V137.716H118.077C118.307 137.217 118.657 136.817 119.126 136.514C119.594 136.207 120.199 136.054 120.941 136.054C121.606 136.054 122.187 136.19 122.686 136.463C123.184 136.732 123.572 137.141 123.849 137.69C124.126 138.236 124.265 138.926 124.265 139.761V146H122.756V139.864C122.756 139.092 122.556 138.491 122.155 138.061C121.755 137.626 121.205 137.409 120.506 137.409C120.025 137.409 119.594 137.513 119.215 137.722C118.84 137.931 118.544 138.236 118.327 138.636C118.109 139.037 118.001 139.523 118.001 140.094ZM131.291 136.182V137.46H126.203V136.182H131.291ZM127.686 133.83H129.195V143.188C129.195 143.614 129.256 143.933 129.38 144.146C129.508 144.355 129.67 144.496 129.866 144.568C130.066 144.636 130.277 144.67 130.499 144.67C130.665 144.67 130.801 144.662 130.908 144.645C131.014 144.624 131.099 144.607 131.163 144.594L131.47 145.949C131.368 145.987 131.225 146.026 131.042 146.064C130.859 146.107 130.626 146.128 130.345 146.128C129.919 146.128 129.501 146.036 129.092 145.853C128.688 145.67 128.351 145.391 128.082 145.016C127.818 144.641 127.686 144.168 127.686 143.597V133.83ZM135.28 140.094V146H133.771V132.909H135.28V137.716H135.408C135.638 137.209 135.983 136.806 136.443 136.508C136.908 136.205 137.526 136.054 138.297 136.054C138.966 136.054 139.552 136.188 140.055 136.457C140.558 136.721 140.947 137.128 141.224 137.678C141.506 138.223 141.646 138.918 141.646 139.761V146H140.138V139.864C140.138 139.084 139.935 138.481 139.531 138.055C139.13 137.624 138.574 137.409 137.862 137.409C137.368 137.409 136.925 137.513 136.533 137.722C136.145 137.931 135.838 138.236 135.612 138.636C135.391 139.037 135.28 139.523 135.28 140.094Z" fill="#8F8F8F"/>
<path d="M347.304 98.8635V85.3635H348.761V86.9231H348.94C349.051 86.7527 349.205 86.5353 349.401 86.2711C349.601 86.0027 349.886 85.764 350.257 85.5552C350.632 85.3422 351.139 85.2356 351.778 85.2356C352.605 85.2356 353.334 85.4423 353.965 85.8556C354.595 86.269 355.087 86.8549 355.441 87.6135C355.795 88.372 355.972 89.2669 355.972 90.2981C355.972 91.3379 355.795 92.2392 355.441 93.002C355.087 93.7605 354.597 94.3485 353.971 94.7662C353.345 95.1795 352.622 95.3862 351.804 95.3862C351.173 95.3862 350.668 95.2818 350.289 95.073C349.91 94.8599 349.618 94.6191 349.413 94.3507C349.209 94.0779 349.051 93.8521 348.94 93.6731H348.813V98.8635H347.304ZM348.787 90.2725C348.787 91.014 348.896 91.6681 349.113 92.2349C349.33 92.7974 349.648 93.2385 350.065 93.5581C350.483 93.8734 350.994 94.0311 351.599 94.0311C352.23 94.0311 352.756 93.8649 353.178 93.5325C353.604 93.1958 353.924 92.7441 354.137 92.1774C354.354 91.6064 354.463 90.9714 354.463 90.2725C354.463 89.5822 354.357 88.96 354.144 88.4061C353.935 87.8478 353.617 87.4068 353.191 87.0829C352.769 86.7548 352.239 86.5907 351.599 86.5907C350.986 86.5907 350.47 86.7463 350.053 87.0574C349.635 87.3642 349.32 87.7946 349.107 88.3485C348.894 88.8983 348.787 89.5396 348.787 90.2725ZM362.389 95.3862C361.443 95.3862 360.627 95.1774 359.941 94.7598C359.259 94.3379 358.733 93.7498 358.362 92.9956C357.996 92.237 357.813 91.3549 357.813 90.3493C357.813 89.3436 357.996 88.4572 358.362 87.6902C358.733 86.9189 359.249 86.318 359.909 85.8876C360.574 85.4529 361.349 85.2356 362.236 85.2356C362.747 85.2356 363.252 85.3208 363.751 85.4913C364.249 85.6618 364.703 85.9387 365.112 86.3223C365.521 86.7015 365.847 87.2044 366.09 87.8308C366.333 88.4572 366.455 89.2285 366.455 90.1447V90.7839H358.886V89.4799H364.92C364.92 88.926 364.81 88.4316 364.588 87.997C364.371 87.5623 364.06 87.2193 363.655 86.9679C363.254 86.7164 362.781 86.5907 362.236 86.5907C361.635 86.5907 361.115 86.7399 360.676 87.0382C360.242 87.3322 359.907 87.7157 359.673 88.1887C359.438 88.6618 359.321 89.1689 359.321 89.71V90.5794C359.321 91.3208 359.449 91.9494 359.705 92.465C359.965 92.9764 360.325 93.3663 360.785 93.6348C361.245 93.899 361.78 94.0311 362.389 94.0311C362.786 94.0311 363.144 93.9757 363.463 93.8649C363.787 93.7498 364.066 93.5794 364.3 93.3535C364.535 93.1234 364.716 92.8379 364.844 92.497L366.301 92.9061C366.148 93.4004 365.89 93.835 365.528 94.21C365.166 94.5808 364.718 94.8706 364.185 95.0794C363.653 95.2839 363.054 95.3862 362.389 95.3862ZM368.749 95.1816V85.3635H370.207V86.8464H370.309C370.488 86.3606 370.812 85.9664 371.281 85.6639C371.749 85.3613 372.278 85.21 372.866 85.21C372.977 85.21 373.115 85.2122 373.281 85.2164C373.447 85.2207 373.573 85.2271 373.658 85.2356V86.7697C373.607 86.7569 373.49 86.7377 373.307 86.7122C373.128 86.6824 372.938 86.6674 372.738 86.6674C372.261 86.6674 371.835 86.7676 371.46 86.9679C371.089 87.1639 370.795 87.4366 370.577 87.786C370.364 88.1312 370.258 88.5254 370.258 88.9686V95.1816H368.749ZM381.481 98.8635C381.225 98.8635 380.997 98.8422 380.797 98.7995C380.596 98.7612 380.458 98.7228 380.381 98.6845L380.765 97.3549C381.131 97.4487 381.455 97.4828 381.736 97.4572C382.018 97.4316 382.267 97.3059 382.484 97.0801C382.706 96.8585 382.908 96.4984 383.091 95.9998L383.373 95.2328L379.742 85.3635H381.378L384.089 93.1873H384.191L386.901 85.3635H388.538L384.37 96.6135C384.182 97.1206 383.95 97.5403 383.673 97.8727C383.396 98.2093 383.074 98.4586 382.708 98.6206C382.346 98.7825 381.937 98.8635 381.481 98.8635ZM394.294 95.3862C393.348 95.3862 392.531 95.1774 391.845 94.7598C391.164 94.3379 390.637 93.7498 390.267 92.9956C389.9 92.237 389.717 91.3549 389.717 90.3493C389.717 89.3436 389.9 88.4572 390.267 87.6902C390.637 86.9189 391.153 86.318 391.813 85.8876C392.478 85.4529 393.254 85.2356 394.14 85.2356C394.652 85.2356 395.156 85.3208 395.655 85.4913C396.154 85.6618 396.607 85.9387 397.017 86.3223C397.426 86.7015 397.752 87.2044 397.995 87.8308C398.237 88.4572 398.359 89.2285 398.359 90.1447V90.7839H390.791V89.4799H396.825C396.825 88.926 396.714 88.4316 396.492 87.997C396.275 87.5623 395.964 87.2193 395.559 86.9679C395.159 86.7164 394.686 86.5907 394.14 86.5907C393.539 86.5907 393.019 86.7399 392.58 87.0382C392.146 87.3322 391.811 87.7157 391.577 88.1887C391.343 88.6618 391.225 89.1689 391.225 89.71V90.5794C391.225 91.3208 391.353 91.9494 391.609 92.465C391.869 92.9764 392.229 93.3663 392.689 93.6348C393.149 93.899 393.684 94.0311 394.294 94.0311C394.69 94.0311 395.048 93.9757 395.367 93.8649C395.691 93.7498 395.97 93.5794 396.205 93.3535C396.439 93.1234 396.62 92.8379 396.748 92.497L398.205 92.9061C398.052 93.4004 397.794 93.835 397.432 94.21C397.07 94.5808 396.622 94.8706 396.09 95.0794C395.557 95.2839 394.958 95.3862 394.294 95.3862ZM403.543 95.4118C402.921 95.4118 402.356 95.2946 401.849 95.0602C401.342 94.8216 400.939 94.4785 400.641 94.0311C400.343 93.5794 400.193 93.0339 400.193 92.3947C400.193 91.8322 400.304 91.3762 400.526 91.0268C400.747 90.6731 401.044 90.3961 401.414 90.1958C401.785 89.9956 402.194 89.8464 402.642 89.7484C403.093 89.6461 403.547 89.5652 404.003 89.5055C404.6 89.4288 405.083 89.3713 405.454 89.3329C405.829 89.2903 406.102 89.22 406.272 89.122C406.447 89.024 406.534 88.8535 406.534 88.6106V88.5595C406.534 87.9288 406.362 87.4387 406.017 87.0893C405.676 86.7399 405.158 86.5652 404.463 86.5652C403.743 86.5652 403.178 86.7228 402.769 87.0382C402.36 87.3535 402.073 87.6902 401.906 88.0481L400.475 87.5368C400.73 86.9402 401.071 86.4757 401.497 86.1433C401.928 85.8066 402.397 85.5723 402.904 85.4402C403.415 85.3038 403.918 85.2356 404.412 85.2356C404.727 85.2356 405.09 85.274 405.499 85.3507C405.912 85.4231 406.311 85.5744 406.694 85.8045C407.082 86.0346 407.404 86.3819 407.659 86.8464C407.915 87.3109 408.043 87.9331 408.043 88.7129V95.1816H406.534V93.8521H406.458C406.355 94.0652 406.185 94.2931 405.946 94.536C405.708 94.7789 405.39 94.9856 404.994 95.1561C404.598 95.3265 404.114 95.4118 403.543 95.4118ZM403.773 94.0566C404.37 94.0566 404.872 93.9395 405.281 93.7051C405.695 93.4707 406.006 93.1681 406.215 92.7974C406.428 92.4267 406.534 92.0368 406.534 91.6277V90.247C406.47 90.3237 406.33 90.394 406.112 90.4579C405.899 90.5176 405.652 90.5708 405.371 90.6177C405.094 90.6603 404.823 90.6987 404.559 90.7328C404.299 90.7626 404.088 90.7882 403.926 90.8095C403.534 90.8606 403.168 90.9437 402.827 91.0588C402.49 91.1696 402.218 91.3379 402.009 91.5637C401.804 91.7853 401.702 92.0879 401.702 92.4714C401.702 92.9956 401.896 93.3919 402.284 93.6603C402.676 93.9245 403.172 94.0566 403.773 94.0566ZM410.796 95.1816V85.3635H412.254V86.8464H412.356C412.535 86.3606 412.859 85.9664 413.327 85.6639C413.796 85.3613 414.325 85.21 414.913 85.21C415.023 85.21 415.162 85.2122 415.328 85.2164C415.494 85.2207 415.62 85.2271 415.705 85.2356V86.7697C415.654 86.7569 415.537 86.7377 415.354 86.7122C415.175 86.6824 414.985 86.6674 414.785 86.6674C414.308 86.6674 413.881 86.7676 413.506 86.9679C413.136 87.1639 412.842 87.4366 412.624 87.786C412.411 88.1312 412.305 88.5254 412.305 88.9686V95.1816H410.796Z" fill="#8F8F8F"/>
<path d="M537.948 297.326H404.95V389.814H537.948V297.326Z" fill="#03012C"/>
<path d="M505.634 297.326H372.635V389.814H505.634V297.326Z" fill="white" stroke="#03012C" stroke-width="0.316" stroke-miterlimit="10"/>
<path d="M449.962 166.193C447.083 162.861 446.863 156.073 446.863 156.073C446.863 147.928 439.364 141.316 430.125 141.316C420.887 141.316 413.388 147.928 413.388 156.073C413.388 156.073 413.168 162.861 410.289 166.193C407.409 169.525 400.91 186.485 430.125 186.608C459.341 186.485 452.842 169.525 449.962 166.193Z" fill="#261616"/>
<path d="M434.845 190.434L417.208 190.875L421.247 173.509L421.807 170.212L422.327 167.233L439.004 166.052L434.845 190.434Z" fill="white" stroke="#03012C" stroke-width="0.316" stroke-miterlimit="10" stroke-linecap="round" stroke-linejoin="round"/>
<path d="M442.104 179.274L437.424 245.017L401.91 241.244L416.528 176.4C416.508 176.4 421.207 184.88 442.104 179.274Z" fill="#03012C"/>
<path d="M328.009 323.655L298.818 313.043L288.116 335.927L317.307 346.539L328.009 323.655Z" fill="white" stroke="#03012C" stroke-width="0.316" stroke-miterlimit="10" stroke-linecap="round" stroke-linejoin="round"/>
<path d="M320.823 351.767L258.713 345.174C259.113 342.177 261.333 339.603 264.492 338.439C272.791 335.389 288.308 329.747 288.728 329.624C289.308 329.447 289.968 329.906 290.428 330.452C290.428 330.452 292.308 332.815 294.267 333.837C294.787 334.102 295.407 334.384 296.127 334.648C298.727 335.636 302.626 336.535 307.985 337.046C314.004 337.628 318.244 336.835 318.784 336.87C319.323 336.905 320.183 337.892 320.243 338.598C320.263 338.756 320.283 339.479 320.343 340.537C320.503 344.239 320.823 351.767 320.823 351.767Z" fill="#26A96C"/>
<path d="M296.127 334.684L276.91 343.676C276.75 343.746 276.57 343.782 276.41 343.764C276.15 343.729 275.89 343.605 275.77 343.376C275.55 343.006 275.71 342.565 276.13 342.371L294.267 333.891C294.787 334.138 295.407 334.402 296.127 334.684Z" fill="#03012C"/>
<path d="M320.805 351.766L258.703 345.176L258.01 350.252L320.112 356.842L320.805 351.766Z" fill="#03012C"/>
<path d="M387.012 328.391H355.438V351.628H387.012V328.391Z" fill="white" stroke="#03012C" stroke-width="0.316" stroke-miterlimit="10" stroke-linecap="round" stroke-linejoin="round"/>
<path d="M359.877 256.107C325.603 255.913 310.945 262.172 304.966 278.339L303.866 281.195C303.866 281.195 303.886 281.195 303.906 281.212C303.826 281.459 303.726 281.688 303.646 281.935C297.527 301.293 292.768 320.898 292.768 320.898C292.768 320.898 298.347 324.001 309.125 327.721C319.904 331.441 331.002 332.305 331.002 332.305C331.002 332.305 339.581 310.955 346.16 294.453L429.626 294.876L442.164 256.125H359.877V256.107Z" fill="white" stroke="#03012C" stroke-width="0.316" stroke-miterlimit="10" stroke-linecap="round" stroke-linejoin="round"/>
<path d="M394.171 355.594L333.901 370.368C332.981 367.459 333.901 364.338 336.341 362.205C342.7 356.599 354.598 346.179 354.938 345.915C355.398 345.562 356.218 345.756 356.877 346.109C356.877 346.109 359.637 347.66 361.897 347.942C362.497 348.013 363.196 348.066 363.976 348.066C366.816 348.101 370.795 347.625 375.974 346.303C381.773 344.822 385.373 342.671 385.893 342.512C386.413 342.371 387.633 342.988 387.992 343.605C388.072 343.746 388.412 344.416 388.912 345.368C390.632 348.718 394.171 355.594 394.171 355.594Z" fill="#26A96C"/>
<path d="M363.956 348.084L350.079 362.84C349.959 362.964 349.819 363.052 349.659 363.087C349.399 363.158 349.119 363.105 348.899 362.946C348.539 362.682 348.479 362.223 348.779 361.888L361.897 347.943C362.497 348.031 363.176 348.084 363.956 348.084Z" fill="#03012C"/>
<path d="M394.148 355.614L333.885 370.389L335.658 376.011L395.922 361.236L394.148 355.614Z" fill="#03012C"/>
<path d="M343.34 292.583C342.88 272.291 361.317 255.366 384.573 255.243C384.833 255.243 385.093 255.243 385.353 255.243C391.872 255.243 399.011 255.472 406.27 255.842L464.6 243.36L465.64 273.807C466.08 286.589 454.362 297.114 439.864 296.973C436.705 296.938 405.03 297.238 392.952 297.026C390.612 296.991 388.752 298.701 388.872 300.746C389.892 317.918 391.092 337.593 391.092 337.593C391.092 337.593 380.474 340.52 368.896 340.714C357.317 340.908 350.819 339.903 350.819 339.903L343.5 295.21C343.36 294.329 343.32 293.447 343.34 292.583Z" fill="white" stroke="#03012C" stroke-width="0.316" stroke-miterlimit="10" stroke-linecap="round" stroke-linejoin="round"/>
<path d="M419.267 293.095L472.939 290.345C474.139 290.309 475.038 289.393 474.918 288.335L464.16 181.778L437.324 175.889L417.148 290.997C416.948 292.125 417.968 293.13 419.267 293.095Z" fill="#26A96C"/>
<path d="M427.986 226.77L446.983 197.892L441.144 189.553L449.823 178.639L437.325 175.889L427.986 226.77Z" fill="white" stroke="#03012C" stroke-width="0.316" stroke-miterlimit="10"/>
<path d="M412.488 257.782H368.755L392.692 181.584C393.871 177.846 397.731 175.237 402.13 175.237H420.847L412.488 257.782Z" fill="#26A96C"/>
<path d="M415.648 226.788L404.15 194.736L411.988 187.807L406.289 175.237H420.847L415.648 226.788Z" fill="white" stroke="#03012C" stroke-width="0.316" stroke-miterlimit="10"/>
<path d="M477.198 244.859C479.938 250.324 487.157 252.792 493.356 250.377C499.555 247.961 502.354 241.597 499.615 236.132L478.178 191.562C475.059 185.022 467.5 181.002 459.481 181.619L447.183 182.571L477.198 244.859Z" fill="#26A96C"/>
<path d="M402.27 175.237C394.631 175.237 387.712 179.186 384.573 185.321L358.037 237.207C355.338 242.672 358.177 249.055 364.376 251.435C370.575 253.815 377.814 251.311 380.514 245.846L404.15 199.567L402.27 175.237Z" fill="#26A96C"/>
<path d="M380.294 259.051H294.987C294.107 259.051 293.308 258.557 293.028 257.817L271.991 202.37C271.551 201.189 272.531 199.972 273.951 199.972H356.397C357.277 199.972 358.077 200.466 358.357 201.206L380.294 259.051Z" fill="white" stroke="#03012C" stroke-width="0.316" stroke-miterlimit="10"/>
<path d="M406.67 254.68H378.654L380.294 259.052H406.67V254.68Z" fill="white" stroke="#03012C" stroke-width="0.316" stroke-miterlimit="10"/>
<path d="M381.273 248.702C381.213 248.702 381.173 248.685 381.113 248.667C380.933 248.597 380.873 248.42 380.953 248.262L397.431 218.802C397.511 218.66 397.731 218.59 397.891 218.66C398.071 218.731 398.131 218.907 398.051 219.066L381.573 248.526C381.513 248.632 381.393 248.702 381.273 248.702Z" fill="#03012C"/>
<path d="M463.62 231.036C463.48 231.036 463.36 230.966 463.3 230.842L454.222 209.88C454.162 209.721 454.242 209.545 454.422 209.492C454.602 209.439 454.802 209.51 454.862 209.668L463.94 230.631C464 230.789 463.92 230.966 463.74 231.018C463.7 231.036 463.66 231.036 463.62 231.036Z" fill="#03012C"/>
<path d="M441.024 243.272C441.024 243.272 427.626 231.054 412.509 230.049C412.509 230.049 405.83 230.067 410.469 236.661C410.469 236.661 398.451 237.031 393.372 242.267C388.312 247.486 394.651 248.402 394.651 248.402L391.172 252.246C389.892 253.656 389.932 255.684 391.252 257.059L391.372 257.182C392.332 258.187 393.972 258.452 395.271 257.782C394.411 259.122 394.691 260.796 395.931 261.872L395.991 261.925C397.191 262.965 399.031 263.177 400.51 262.471L401.11 262.189L400.45 263.265C399.671 264.499 399.971 266.05 401.13 267.02C402.25 267.937 403.91 268.113 405.23 267.461L406.689 266.738C406.689 266.738 412.948 261.484 421.307 264.816C423.227 265.574 425.306 265.944 427.406 265.892L429.246 265.839C435.345 265.68 441.244 263.846 446.103 260.603L441.024 243.272Z" fill="white" stroke="#03012C" stroke-width="0.316" stroke-miterlimit="10" stroke-linecap="round" stroke-linejoin="round"/>
<path d="M410.489 236.66C410.489 236.66 416.927 235.797 423.226 238.282L410.489 236.66Z" fill="white"/>
<path d="M423.227 238.582C423.187 238.582 423.127 238.582 423.087 238.565C416.968 236.167 410.609 236.96 410.529 236.978C410.349 236.996 410.169 236.89 410.129 236.731C410.109 236.573 410.229 236.414 410.409 236.379C410.669 236.343 417.028 235.532 423.347 238.018C423.527 238.089 423.607 238.265 423.527 238.424C423.487 238.512 423.347 238.582 423.227 238.582Z" fill="#03012C"/>
<path d="M394.671 248.403C394.671 248.403 402.21 242.673 413.828 243.431L394.671 248.403Z" fill="white"/>
<path d="M394.671 248.703C394.571 248.703 394.471 248.667 394.411 248.597C394.291 248.473 394.311 248.279 394.451 248.174C394.531 248.121 402.21 242.373 413.848 243.131C414.028 243.149 414.188 243.29 414.168 243.449C414.148 243.607 413.988 243.731 413.808 243.731C402.47 242.99 394.971 248.579 394.911 248.632C394.831 248.667 394.751 248.703 394.671 248.703Z" fill="#03012C"/>
<path d="M395.271 257.782C395.271 257.782 403.23 248.72 417.148 249.425L395.271 257.782Z" fill="white"/>
<path d="M395.272 258.082C395.192 258.082 395.132 258.064 395.052 258.011C394.892 257.905 394.872 257.711 394.992 257.588C395.072 257.5 403.23 248.403 417.148 249.125C417.328 249.143 417.488 249.284 417.468 249.443C417.448 249.601 417.328 249.742 417.108 249.725C403.53 249.037 395.612 257.87 395.532 257.958C395.492 258.046 395.392 258.082 395.272 258.082Z" fill="#03012C"/>
<path d="M401.11 262.172C401.11 262.172 409.129 254.52 421.547 256.142L401.11 262.172Z" fill="white"/>
<path d="M401.111 262.472C401.031 262.472 400.951 262.437 400.871 262.384C400.731 262.278 400.731 262.084 400.851 261.961C400.931 261.89 409.129 254.221 421.587 255.843C421.767 255.861 421.907 256.019 421.867 256.178C421.847 256.336 421.667 256.46 421.467 256.425C409.369 254.856 401.41 262.296 401.33 262.366C401.31 262.437 401.211 262.472 401.111 262.472Z" fill="#03012C"/>
<path d="M481.317 227.14C489.796 225.395 498.274 230.049 500.254 237.507C502.234 244.982 496.975 252.457 488.496 254.203L441.683 265.592L433.665 236.431L481.317 227.14Z" fill="#26A96C"/>
<path d="M433.665 236.732C433.505 236.732 433.365 236.643 433.325 236.502C433.285 236.344 433.405 236.185 433.585 236.15L468.879 229.256C469.079 229.221 469.239 229.327 469.299 229.486C469.339 229.644 469.219 229.803 469.039 229.838L433.745 236.732C433.705 236.732 433.685 236.732 433.665 236.732Z" fill="#03012C"/>
<path d="M441.664 265.909C441.504 265.909 441.384 265.821 441.324 265.68C441.264 265.521 441.384 265.345 441.564 265.31L471.719 257.976C471.899 257.923 472.099 258.029 472.139 258.187C472.199 258.346 472.079 258.522 471.899 258.557L441.744 265.892C441.724 265.892 441.704 265.909 441.664 265.909Z" fill="#03012C"/>
<path d="M445.883 154.962C445.883 162.332 438.744 168.767 429.966 168.767C421.167 168.767 414.048 162.332 414.048 154.962C414.048 147.593 421.187 141.616 429.966 141.616C438.764 141.616 445.883 147.593 445.883 154.962Z" fill="#261616"/>
<path d="M416.508 154.081C416.508 154.081 415.788 174.832 429.546 174.832C444.483 174.832 443.543 154.081 443.543 154.081C443.543 154.081 443.463 144.561 429.906 144.561C417.488 144.561 416.508 154.081 416.508 154.081Z" fill="white" stroke="#03012C" stroke-width="0.316" stroke-miterlimit="10" stroke-linecap="round" stroke-linejoin="round"/>
<path d="M441.784 149.25C441.784 149.25 435.225 146.764 431.046 150.59C427.046 154.257 422.587 157.113 416.508 154.962C416.508 154.962 414.868 146.958 426.086 144.384C437.325 141.81 441.784 149.25 441.784 149.25Z" fill="#261616"/>
<path d="M448.601 163.434C449.265 161.263 448.204 159.122 446.232 158.653C444.259 158.184 442.121 159.565 441.457 161.736C440.793 163.908 441.854 166.049 443.827 166.517C445.799 166.986 447.937 165.606 448.601 163.434Z" fill="white"/>
<path d="M446.783 161.08C446.783 161.08 444.683 161.221 443.944 163.284C443.944 163.284 445.963 163.055 445.983 164.712" stroke="#03012C" stroke-width="0.316" stroke-miterlimit="10" stroke-linecap="round" stroke-linejoin="round"/>
<path d="M416.75 166.513C418.723 166.045 419.784 163.904 419.12 161.732C418.456 159.561 416.318 158.18 414.345 158.649C412.373 159.118 411.312 161.259 411.976 163.43C412.64 165.602 414.777 166.982 416.75 166.513Z" fill="white"/>
<path d="M422.627 165.434C425.531 165.434 427.886 163.358 427.886 160.797C427.886 158.237 425.531 156.161 422.627 156.161C419.722 156.161 417.368 158.237 417.368 160.797C417.368 163.358 419.722 165.434 422.627 165.434Z" stroke="#03012C" stroke-width="0.316" stroke-miterlimit="10"/>
<path d="M436.884 165.434C439.789 165.434 442.143 163.358 442.143 160.797C442.143 158.237 439.789 156.161 436.884 156.161C433.98 156.161 431.625 158.237 431.625 160.797C431.625 163.358 433.98 165.434 436.884 165.434Z" stroke="#03012C" stroke-width="0.316" stroke-miterlimit="10"/>
<path d="M427.866 160.798C427.866 160.798 429.745 159.898 431.625 160.798" stroke="#03012C" stroke-width="0.316" stroke-miterlimit="10"/>
<path d="M414.228 161.08C414.228 161.08 416.327 161.221 417.067 163.284C417.067 163.284 415.048 163.055 415.028 164.712" stroke="#03012C" stroke-width="0.316" stroke-miterlimit="10" stroke-linecap="round" stroke-linejoin="round"/>
</svg>
