<svg width="272" height="198" viewBox="0 0 272 198" fill="none" xmlns="http://www.w3.org/2000/svg">
<path d="M5.21312 90.722C5.21312 90.722 2.66977 22.4192 70.3348 36.2041C106.484 43.5682 125.283 29.9437 133.677 20.3123C139.719 13.3897 147.912 8.70442 156.899 6.7681C179.638 1.87213 218.572 0.166567 237.14 38.4314C264.282 94.3538 219.618 155.864 194.014 170.603C168.409 185.341 111.259 158.704 111.259 158.704C111.259 158.704 70.7268 147.226 44.0871 173.803C17.4473 200.38 5.21312 90.722 5.21312 90.722Z" stroke="#26A96C" stroke-width="0.173369" stroke-miterlimit="10"/>
<path d="M205.515 145.692H31.2508C27.0387 145.692 23.6309 142.281 23.6309 138.087V39.867C23.6309 35.6633 27.0488 32.2622 31.2508 32.2622H205.515C209.727 32.2622 213.135 35.6733 213.135 39.867V138.077C213.135 142.281 209.727 145.692 205.515 145.692Z" fill="#03012C"/>
<path d="M206.624 135.792V42.147L30.1382 42.147V135.792H206.624Z" fill="white"/>
<path d="M138.535 145.691H98.2432V158.242H138.535V145.691Z" fill="#03012C"/>
<path d="M149.21 167.603H87.5562C87.5562 162.436 91.7582 158.243 96.9354 158.243H139.84C145.008 158.243 149.21 162.436 149.21 167.603Z" fill="#03012C"/>
<path d="M50.0591 89.2871H39.373V128.274H50.0591V89.2871Z" fill="#26A96C"/>
<path d="M71.1094 97.8652H60.4233V128.274H71.1094V97.8652Z" fill="white" stroke="#03012C" stroke-width="0.173369" stroke-miterlimit="10"/>
<path d="M92.1597 111.369H81.4736V128.274H92.1597V111.369Z" fill="#26A96C"/>
<path d="M113.201 105.661H102.515V128.275H113.201V105.661Z" fill="white" stroke="#03012C" stroke-width="0.173369" stroke-miterlimit="10"/>
<path d="M155.302 81.3916H144.616V128.275H155.302V81.3916Z" fill="white" stroke="#03012C" stroke-width="0.173369" stroke-miterlimit="10"/>
<path d="M134.251 103.183H123.564V128.274H134.251V103.183Z" fill="#26A96C"/>
<path d="M176.352 66.2119H165.666V128.274H176.352V66.2119Z" fill="#26A96C"/>
<path d="M197.393 71.7603H186.707V128.285H197.393V71.7603Z" fill="white" stroke="#03012C" stroke-width="0.173369" stroke-miterlimit="10"/>
<path d="M146.374 52.0566H237.734C238.327 52.0566 238.809 51.575 238.809 50.9831V2.0735C238.809 1.48157 238.327 1 237.734 1H146.374C145.781 1 145.299 1.48157 145.299 2.0735V50.973C145.299 51.575 145.781 52.0566 146.374 52.0566Z" fill="white" stroke="#03012C" stroke-width="0.173369" stroke-miterlimit="10"/>
<path d="M145.299 6.70836H238.809V2.00301C238.809 1.45121 238.367 1.00977 237.814 1.00977H146.294C145.741 1.00977 145.299 1.45121 145.299 2.00301V6.70836Z" fill="#03012C"/>
<path d="M1.30373 80.6992H98.8153C99.4486 80.6992 99.9613 80.1875 99.9613 79.5554V27.3552C99.9613 26.7231 99.4486 26.2114 98.8153 26.2114H1.30373C0.670404 26.2114 0.157715 26.7231 0.157715 27.3552V79.5554C0.157715 80.1875 0.670404 80.6992 1.30373 80.6992Z" fill="white" stroke="#03012C" stroke-width="0.173369" stroke-miterlimit="10"/>
<path d="M0.157514 32.3013H99.9611V27.2749C99.9611 26.693 99.4886 26.2114 98.8955 26.2114H1.21305C0.629992 26.2114 0.147461 26.683 0.147461 27.2749V32.3013H0.157514Z" fill="#03012C"/>
<path d="M27.5474 66.2104V37.1194H29.4111V66.2104H27.5474ZM32.0361 47.0058C31.9603 46.1725 31.6232 45.5248 31.0247 45.0626C30.4338 44.5929 29.5891 44.3581 28.4906 44.3581C27.7634 44.3581 27.1573 44.4528 26.6724 44.6422C26.1876 44.8316 25.824 45.0929 25.5815 45.4263C25.3391 45.752 25.2141 46.127 25.2065 46.5513C25.1914 46.8998 25.2596 47.2066 25.4111 47.4717C25.5702 47.7369 25.7974 47.9717 26.0929 48.1763C26.3959 48.3732 26.7596 48.5475 27.1838 48.699C27.6081 48.8505 28.0853 48.9831 28.6156 49.0967L30.6156 49.5513C31.7671 49.8013 32.7823 50.1346 33.6611 50.5513C34.5474 50.9679 35.2899 51.4641 35.8884 52.0399C36.4944 52.6157 36.9527 53.2785 37.2634 54.0285C37.574 54.7785 37.7331 55.6195 37.7406 56.5513C37.7331 58.021 37.3618 59.2823 36.627 60.3354C35.8921 61.3884 34.8353 62.1952 33.4565 62.7558C32.0853 63.3164 30.43 63.5967 28.4906 63.5967C26.5437 63.5967 24.8467 63.3051 23.3997 62.7217C21.9527 62.1384 20.8277 61.252 20.0247 60.0626C19.2217 58.8732 18.8088 57.3695 18.7861 55.5513H24.1724C24.2179 56.3013 24.4187 56.9263 24.7747 57.4263C25.1308 57.9263 25.6194 58.3051 26.2406 58.5626C26.8694 58.8202 27.5967 58.949 28.4224 58.949C29.18 58.949 29.824 58.8467 30.3543 58.6422C30.8921 58.4376 31.305 58.1535 31.5929 57.7899C31.8808 57.4263 32.0285 57.0096 32.0361 56.5399C32.0285 56.1005 31.8921 55.7255 31.627 55.4149C31.3618 55.0967 30.9527 54.824 30.3997 54.5967C29.8543 54.3619 29.1573 54.146 28.3088 53.949L25.877 53.3808C23.8618 52.9187 22.2747 52.1725 21.1156 51.1422C19.9565 50.1043 19.3808 48.7028 19.3884 46.9376C19.3808 45.4982 19.7671 44.2369 20.5474 43.1535C21.3277 42.0702 22.4073 41.2255 23.7861 40.6195C25.1649 40.0134 26.7368 39.7104 28.502 39.7104C30.305 39.7104 31.8694 40.0172 33.1952 40.6308C34.5285 41.2369 35.5626 42.0891 36.2974 43.1876C37.0323 44.2861 37.4073 45.5588 37.4224 47.0058H32.0361ZM40.252 59.4376V55.0513L49.7861 40.0285H53.6838V45.9831H51.4224L45.8429 54.824V55.0058H59.6497V59.4376H40.252ZM51.4906 63.3013V58.0967L51.6043 56.1763V40.0285H56.8656V63.3013H51.4906ZM71.3599 39.7104C72.6327 39.7104 73.8486 39.9187 75.0077 40.3354C76.1668 40.7445 77.2009 41.3998 78.1099 42.3013C79.019 43.1952 79.7349 44.3732 80.2577 45.8354C80.7804 47.2975 81.0418 49.0816 81.0418 51.1876C81.0493 53.127 80.8221 54.8657 80.3599 56.4035C79.8978 57.9338 79.2349 59.2369 78.3713 60.3126C77.5152 61.3884 76.4849 62.2104 75.2804 62.7785C74.0759 63.3391 72.7312 63.6195 71.2463 63.6195C69.6099 63.6195 68.1668 63.3051 66.9168 62.6763C65.6743 62.0399 64.6781 61.1838 63.9281 60.1081C63.1857 59.0323 62.7425 57.8278 62.5986 56.4945H68.1327C68.3069 57.2672 68.6743 57.8505 69.2349 58.2445C69.7956 58.6308 70.466 58.824 71.2463 58.824C72.6706 58.824 73.7349 58.2066 74.4395 56.9717C75.144 55.7369 75.4963 54.0588 75.4963 51.9376H75.3599C75.0342 52.6346 74.5721 53.2331 73.9736 53.7331C73.3827 54.2331 72.6971 54.6157 71.9168 54.8808C71.1365 55.146 70.3145 55.2785 69.4509 55.2785C68.0569 55.2785 66.8259 54.9604 65.7577 54.324C64.6971 53.6876 63.8637 52.8126 63.2577 51.699C62.6592 50.5854 62.3562 49.3126 62.3486 47.8808C62.341 46.2748 62.716 44.8581 63.4736 43.6308C64.2312 42.396 65.288 41.4338 66.644 40.7445C68.0001 40.0475 69.5721 39.7028 71.3599 39.7104ZM71.394 44.0285C70.6971 44.0285 70.0759 44.1914 69.5304 44.5172C68.9925 44.8429 68.5683 45.2823 68.2577 45.8354C67.9471 46.3884 67.7956 47.0096 67.8031 47.699C67.8107 48.3884 67.966 49.0096 68.269 49.5626C68.5796 50.1157 69.0001 50.5551 69.5304 50.8808C70.0683 51.2066 70.6819 51.3695 71.3713 51.3695C71.8865 51.3695 72.3637 51.2748 72.8031 51.0854C73.2425 50.896 73.6251 50.6346 73.9509 50.3013C74.2766 49.9604 74.5304 49.5664 74.7122 49.1195C74.9016 48.6725 74.9925 48.1952 74.9849 47.6876C74.9774 47.0134 74.8183 46.3998 74.5077 45.8467C74.1971 45.2937 73.769 44.8543 73.2236 44.5285C72.6857 44.1952 72.0759 44.0285 71.394 44.0285Z" fill="#26A96C"/>
<path d="M158.7 40.6176V11.5267H160.564V40.6176H158.7ZM163.189 21.413C163.113 20.5797 162.776 19.932 162.177 19.4699C161.586 19.0002 160.742 18.7653 159.643 18.7653C158.916 18.7653 158.31 18.86 157.825 19.0494C157.34 19.2388 156.977 19.5002 156.734 19.8335C156.492 20.1593 156.367 20.5343 156.359 20.9585C156.344 21.307 156.412 21.6138 156.564 21.879C156.723 22.1441 156.95 22.379 157.246 22.5835C157.549 22.7805 157.912 22.9547 158.336 23.1062C158.761 23.2577 159.238 23.3903 159.768 23.504L161.768 23.9585C162.92 24.2085 163.935 24.5418 164.814 24.9585C165.7 25.3752 166.442 25.8714 167.041 26.4471C167.647 27.0229 168.105 27.6858 168.416 28.4358C168.727 29.1858 168.886 30.0267 168.893 30.9585C168.886 32.4282 168.514 33.6896 167.78 34.7426C167.045 35.7956 165.988 36.6024 164.609 37.163C163.238 37.7236 161.583 38.004 159.643 38.004C157.696 38.004 155.999 37.7123 154.552 37.129C153.105 36.5456 151.98 35.6593 151.177 34.4699C150.374 33.2805 149.961 31.7767 149.939 29.9585H155.325C155.371 30.7085 155.571 31.3335 155.927 31.8335C156.283 32.3335 156.772 32.7123 157.393 32.9699C158.022 33.2274 158.749 33.3562 159.575 33.3562C160.333 33.3562 160.977 33.254 161.507 33.0494C162.045 32.8449 162.458 32.5608 162.746 32.1971C163.033 31.8335 163.181 31.4168 163.189 30.9471C163.181 30.5077 163.045 30.1327 162.78 29.8221C162.514 29.504 162.105 29.2312 161.552 29.004C161.007 28.7691 160.31 28.5532 159.461 28.3562L157.03 27.788C155.014 27.3259 153.427 26.5797 152.268 25.5494C151.109 24.5115 150.533 23.11 150.541 21.3449C150.533 19.9055 150.92 18.6441 151.7 17.5608C152.48 16.4774 153.56 15.6327 154.939 15.0267C156.317 14.4206 157.889 14.1176 159.655 14.1176C161.458 14.1176 163.022 14.4244 164.348 15.038C165.681 15.6441 166.715 16.4964 167.45 17.5949C168.185 18.6933 168.56 19.9661 168.575 21.413H163.189ZM171.405 33.8449V29.4585L180.939 14.4358H184.836V20.3903H182.575L176.996 29.2312V29.413H190.802V33.8449H171.405ZM182.643 37.7085V32.504L182.757 30.5835V14.4358H188.018V37.7085H182.643ZM202.66 38.0267C200.963 38.0267 199.456 37.7199 198.138 37.1062C196.819 36.4926 195.778 35.6479 195.013 34.5721C194.255 33.4964 193.861 32.2615 193.831 30.8676H199.285C199.331 31.7236 199.679 32.413 200.331 32.9358C200.982 33.4509 201.759 33.7085 202.66 33.7085C203.365 33.7085 203.99 33.5532 204.535 33.2426C205.081 32.932 205.509 32.4964 205.819 31.9358C206.13 31.3676 206.282 30.7161 206.274 29.9812C206.282 29.2312 206.126 28.5759 205.808 28.0153C205.497 27.4547 205.066 27.0191 204.513 26.7085C203.967 26.3903 203.338 26.2312 202.626 26.2312C201.952 26.2236 201.312 26.3714 200.706 26.6744C200.107 26.9774 199.653 27.3903 199.342 27.913L194.376 26.9812L195.388 14.4358H210.319V18.9699H200.013L199.478 24.4585H199.615C200.001 23.8146 200.622 23.2843 201.478 22.8676C202.342 22.4433 203.323 22.2312 204.422 22.2312C205.816 22.2312 207.058 22.557 208.149 23.2085C209.247 23.8524 210.111 24.7464 210.74 25.8903C211.376 27.0343 211.694 28.3449 211.694 29.8221C211.694 31.4206 211.316 32.8373 210.558 34.0721C209.808 35.307 208.755 36.2767 207.399 36.9812C206.05 37.6782 204.471 38.0267 202.66 38.0267ZM224.407 38.2767C222.377 38.2767 220.627 37.7956 219.157 36.8335C217.688 35.8638 216.555 34.4736 215.76 32.663C214.964 30.8449 214.57 28.6593 214.578 26.1062C214.585 23.5532 214.983 21.3865 215.771 19.6062C216.567 17.8183 217.695 16.4585 219.157 15.5267C220.627 14.5873 222.377 14.1176 224.407 14.1176C226.438 14.1176 228.188 14.5873 229.657 15.5267C231.135 16.4585 232.271 17.8183 233.067 19.6062C233.862 21.3941 234.256 23.5608 234.248 26.1062C234.248 28.6668 233.851 30.8562 233.055 32.6744C232.26 34.4926 231.127 35.8827 229.657 36.8449C228.195 37.7994 226.445 38.2767 224.407 38.2767ZM224.407 33.6744C225.62 33.6744 226.601 33.057 227.351 31.8221C228.101 30.5797 228.472 28.6744 228.464 26.1062C228.464 24.4244 228.294 23.038 227.953 21.9471C227.612 20.8486 227.139 20.0305 226.532 19.4926C225.926 18.9547 225.218 18.6858 224.407 18.6858C223.203 18.6858 222.229 19.2956 221.487 20.5153C220.745 21.7274 220.37 23.5911 220.362 26.1062C220.354 27.8108 220.517 29.2236 220.851 30.3449C221.192 31.4661 221.669 32.3032 222.282 32.8562C222.896 33.4017 223.604 33.6744 224.407 33.6744Z" fill="#26A96C"/>
<path d="M31.2229 75.2946V69.2946H31.8707V69.9877H31.9502C31.9994 69.912 32.0676 69.8154 32.1547 69.698C32.2438 69.5787 32.3707 69.4726 32.5354 69.3798C32.7021 69.2851 32.9275 69.2377 33.2116 69.2377C33.579 69.2377 33.9029 69.3296 34.1832 69.5133C34.4635 69.697 34.6822 69.9574 34.8394 70.2946C34.9966 70.6317 35.0752 71.0294 35.0752 71.4877C35.0752 71.9499 34.9966 72.3504 34.8394 72.6895C34.6822 73.0266 34.4644 73.2879 34.186 73.4735C33.9076 73.6573 33.5866 73.7491 33.2229 73.7491C32.9426 73.7491 32.7182 73.7027 32.5496 73.6099C32.3811 73.5152 32.2513 73.4082 32.1604 73.2889C32.0695 73.1677 31.9994 73.0673 31.9502 72.9877H31.8934V75.2946H31.2229ZM31.882 71.4764C31.882 71.8059 31.9303 72.0967 32.0269 72.3485C32.1235 72.5985 32.2646 72.7946 32.4502 72.9366C32.6358 73.0768 32.8631 73.1468 33.132 73.1468C33.4123 73.1468 33.6462 73.073 33.8337 72.9252C34.0231 72.7756 34.1652 72.5749 34.2599 72.323C34.3565 72.0692 34.4047 71.787 34.4047 71.4764C34.4047 71.1696 34.3574 70.8931 34.2627 70.6468C34.1699 70.3987 34.0288 70.2027 33.8394 70.0588C33.6519 69.9129 33.4161 69.84 33.132 69.84C32.8593 69.84 32.6301 69.9091 32.4445 70.0474C32.2589 70.1838 32.1188 70.3751 32.0241 70.6213C31.9294 70.8656 31.882 71.1506 31.882 71.4764ZM37.9275 73.7491C37.507 73.7491 37.1443 73.6563 36.8394 73.4707C36.5364 73.2832 36.3025 73.0218 36.1377 72.6866C35.9748 72.3495 35.8934 71.9574 35.8934 71.5105C35.8934 71.0635 35.9748 70.6696 36.1377 70.3287C36.3025 69.9859 36.5316 69.7188 36.8252 69.5275C37.1207 69.3343 37.4654 69.2377 37.8593 69.2377C38.0866 69.2377 38.311 69.2756 38.5326 69.3514C38.7542 69.4271 38.9559 69.5502 39.1377 69.7207C39.3195 69.8893 39.4644 70.1127 39.5724 70.3912C39.6803 70.6696 39.7343 71.0124 39.7343 71.4196V71.7037H36.3707V71.1241H39.0525C39.0525 70.8779 39.0032 70.6582 38.9047 70.465C38.8082 70.2718 38.6699 70.1194 38.49 70.0076C38.3119 69.8959 38.1017 69.84 37.8593 69.84C37.5922 69.84 37.3612 69.9063 37.1661 70.0389C36.9729 70.1696 36.8243 70.34 36.7201 70.5502C36.6159 70.7605 36.5638 70.9859 36.5638 71.2264V71.6127C36.5638 71.9423 36.6207 72.2217 36.7343 72.4508C36.8498 72.6781 37.0099 72.8514 37.2144 72.9707C37.419 73.0881 37.6566 73.1468 37.9275 73.1468C38.1036 73.1468 38.2627 73.1222 38.4047 73.073C38.5487 73.0218 38.6727 72.9461 38.7769 72.8457C38.8811 72.7434 38.9616 72.6165 39.0184 72.465L39.6661 72.6468C39.5979 72.8665 39.4833 73.0597 39.3224 73.2264C39.1614 73.3912 38.9625 73.5199 38.7258 73.6127C38.489 73.7037 38.2229 73.7491 37.9275 73.7491ZM40.7542 73.6582V69.2946H41.4019V69.9537H41.4474C41.5269 69.7377 41.6708 69.5626 41.8792 69.4281C42.0875 69.2936 42.3224 69.2264 42.5837 69.2264C42.633 69.2264 42.6945 69.2273 42.7684 69.2292C42.8422 69.2311 42.8981 69.234 42.936 69.2377V69.9196C42.9133 69.9139 42.8612 69.9054 42.7797 69.894C42.7002 69.8807 42.6159 69.8741 42.5269 69.8741C42.3148 69.8741 42.1254 69.9186 41.9587 70.0076C41.794 70.0948 41.6633 70.216 41.5667 70.3713C41.472 70.5247 41.4246 70.6999 41.4246 70.8968V73.6582H40.7542ZM45.9807 73.6582V69.2946H46.6285V69.9764H46.6853C46.7762 69.7434 46.923 69.5626 47.1256 69.4338C47.3283 69.3031 47.5717 69.2377 47.8557 69.2377C48.1436 69.2377 48.3832 69.3031 48.5745 69.4338C48.7677 69.5626 48.9182 69.7434 49.0262 69.9764H49.0717C49.1834 69.751 49.351 69.572 49.5745 69.4395C49.798 69.305 50.066 69.2377 50.3785 69.2377C50.7686 69.2377 51.0877 69.3599 51.3359 69.6042C51.584 69.8466 51.708 70.2245 51.708 70.7377V73.6582H51.0376V70.7377C51.0376 70.4158 50.9495 70.1857 50.7734 70.0474C50.5972 69.9091 50.3898 69.84 50.1512 69.84C49.8444 69.84 49.6067 69.9328 49.4381 70.1184C49.2696 70.3021 49.1853 70.5351 49.1853 70.8173V73.6582H48.5035V70.6696C48.5035 70.4215 48.423 70.2217 48.262 70.0701C48.101 69.9167 47.8936 69.84 47.6398 69.84C47.4656 69.84 47.3027 69.8864 47.1512 69.9792C47.0016 70.072 46.8804 70.2008 46.7876 70.3656C46.6967 70.5285 46.6512 70.7169 46.6512 70.9309V73.6582H45.9807ZM54.7066 73.7491C54.3127 73.7491 53.967 73.6554 53.6697 73.4679C53.3742 73.2804 53.1431 73.0181 52.9765 72.6809C52.8117 72.3438 52.7293 71.9499 52.7293 71.4991C52.7293 71.0446 52.8117 70.6478 52.9765 70.3088C53.1431 69.9698 53.3742 69.7065 53.6697 69.519C53.967 69.3315 54.3127 69.2377 54.7066 69.2377C55.1005 69.2377 55.4452 69.3315 55.7407 69.519C56.038 69.7065 56.2691 69.9698 56.4339 70.3088C56.6005 70.6478 56.6839 71.0446 56.6839 71.4991C56.6839 71.9499 56.6005 72.3438 56.4339 72.6809C56.2691 73.0181 56.038 73.2804 55.7407 73.4679C55.4452 73.6554 55.1005 73.7491 54.7066 73.7491ZM54.7066 73.1468C55.0058 73.1468 55.252 73.0701 55.4452 72.9167C55.6384 72.7633 55.7814 72.5616 55.8742 72.3116C55.967 72.0616 56.0134 71.7908 56.0134 71.4991C56.0134 71.2074 55.967 70.9357 55.8742 70.6838C55.7814 70.4319 55.6384 70.2283 55.4452 70.073C55.252 69.9177 55.0058 69.84 54.7066 69.84C54.4074 69.84 54.1611 69.9177 53.968 70.073C53.7748 70.2283 53.6318 70.4319 53.539 70.6838C53.4462 70.9357 53.3998 71.2074 53.3998 71.4991C53.3998 71.7908 53.4462 72.0616 53.539 72.3116C53.6318 72.5616 53.7748 72.7633 53.968 72.9167C54.1611 73.0701 54.4074 73.1468 54.7066 73.1468ZM58.3778 71.0332V73.6582H57.7073V69.2946H58.355V69.9764H58.4118C58.5141 69.7548 58.6694 69.5768 58.8778 69.4423C59.0861 69.3059 59.355 69.2377 59.6846 69.2377C59.98 69.2377 60.2386 69.2984 60.4601 69.4196C60.6817 69.5389 60.8541 69.7207 60.9772 69.965C61.1003 70.2074 61.1618 70.5143 61.1618 70.8855V73.6582H60.4914V70.9309C60.4914 70.5881 60.4024 70.3211 60.2243 70.1298C60.0463 69.9366 59.802 69.84 59.4914 69.84C59.2774 69.84 59.0861 69.8864 58.9175 69.9792C58.7509 70.072 58.6192 70.2074 58.5226 70.3855C58.4261 70.5635 58.3778 70.7794 58.3778 71.0332ZM64.2847 69.2946V69.8627H62.0234V69.2946H64.2847ZM62.6824 68.2491H63.3529V72.4082C63.3529 72.5976 63.3804 72.7396 63.4353 72.8343C63.4921 72.9271 63.5641 72.9896 63.6512 73.0218C63.7402 73.0521 63.834 73.0673 63.9324 73.0673C64.0063 73.0673 64.0669 73.0635 64.1143 73.0559C64.1616 73.0465 64.1995 73.0389 64.2279 73.0332L64.3643 73.6355C64.3188 73.6525 64.2554 73.6696 64.1739 73.6866C64.0925 73.7056 63.9893 73.715 63.8643 73.715C63.6749 73.715 63.4893 73.6743 63.3074 73.5929C63.1275 73.5114 62.9779 73.3874 62.8586 73.2207C62.7412 73.054 62.6824 72.8438 62.6824 72.59V68.2491ZM66.0574 71.0332V73.6582H65.387V67.84H66.0574V69.9764H66.1143C66.2165 69.751 66.3699 69.572 66.5745 69.4395C66.7809 69.305 67.0556 69.2377 67.3984 69.2377C67.6957 69.2377 67.9561 69.2974 68.1796 69.4167C68.4031 69.5341 68.5764 69.715 68.6995 69.9593C68.8245 70.2018 68.887 70.5105 68.887 70.8855V73.6582H68.2165V70.9309C68.2165 70.5843 68.1266 70.3163 67.9466 70.127C67.7686 69.9357 67.5215 69.84 67.2052 69.84C66.9855 69.84 66.7885 69.8864 66.6143 69.9792C66.4419 70.072 66.3056 70.2074 66.2052 70.3855C66.1067 70.5635 66.0574 70.7794 66.0574 71.0332Z" fill="#8F8F8F"/>
<path d="M177.317 49.7023V43.7023H177.964V44.3955H178.044C178.093 44.3197 178.161 44.2231 178.249 44.1057C178.338 43.9864 178.464 43.8803 178.629 43.7875C178.796 43.6928 179.021 43.6455 179.305 43.6455C179.673 43.6455 179.997 43.7373 180.277 43.921C180.557 44.1047 180.776 44.3652 180.933 44.7023C181.09 45.0394 181.169 45.4371 181.169 45.8955C181.169 46.3576 181.09 46.7582 180.933 47.0972C180.776 47.4343 180.558 47.6957 180.28 47.8813C180.001 48.065 179.68 48.1568 179.317 48.1568C179.036 48.1568 178.812 48.1104 178.643 48.0176C178.475 47.9229 178.345 47.8159 178.254 47.6966C178.163 47.5754 178.093 47.475 178.044 47.3955H177.987V49.7023H177.317ZM177.976 45.8841C177.976 46.2136 178.024 46.5044 178.121 46.7563C178.217 47.0063 178.358 47.2023 178.544 47.3443C178.73 47.4845 178.957 47.5546 179.226 47.5546C179.506 47.5546 179.74 47.4807 179.928 47.333C180.117 47.1833 180.259 46.9826 180.354 46.7307C180.45 46.4769 180.499 46.1947 180.499 45.8841C180.499 45.5773 180.451 45.3008 180.356 45.0546C180.264 44.8064 180.123 44.6104 179.933 44.4665C179.746 44.3207 179.51 44.2477 179.226 44.2477C178.953 44.2477 178.724 44.3169 178.538 44.4551C178.353 44.5915 178.213 44.7828 178.118 45.029C178.023 45.2733 177.976 45.5583 177.976 45.8841ZM184.021 48.1568C183.601 48.1568 183.238 48.064 182.933 47.8784C182.63 47.6909 182.396 47.4296 182.231 47.0943C182.069 46.7572 181.987 46.3652 181.987 45.9182C181.987 45.4712 182.069 45.0773 182.231 44.7364C182.396 44.3936 182.625 44.1265 182.919 43.9352C183.214 43.7421 183.559 43.6455 183.953 43.6455C184.18 43.6455 184.405 43.6833 184.626 43.7591C184.848 43.8349 185.05 43.958 185.231 44.1284C185.413 44.297 185.558 44.5205 185.666 44.7989C185.774 45.0773 185.828 45.4201 185.828 45.8273V46.1114H182.464V45.5318H185.146C185.146 45.2856 185.097 45.0659 184.999 44.8727C184.902 44.6796 184.764 44.5271 184.584 44.4153C184.406 44.3036 184.196 44.2477 183.953 44.2477C183.686 44.2477 183.455 44.314 183.26 44.4466C183.067 44.5773 182.918 44.7477 182.814 44.958C182.71 45.1682 182.658 45.3936 182.658 45.6341V46.0205C182.658 46.35 182.714 46.6294 182.828 46.8585C182.944 47.0858 183.104 47.2591 183.308 47.3784C183.513 47.4958 183.75 47.5546 184.021 47.5546C184.197 47.5546 184.356 47.5299 184.499 47.4807C184.642 47.4296 184.767 47.3538 184.871 47.2534C184.975 47.1511 185.055 47.0243 185.112 46.8727L185.76 47.0546C185.692 47.2743 185.577 47.4674 185.416 47.6341C185.255 47.7989 185.056 47.9277 184.82 48.0205C184.583 48.1114 184.317 48.1568 184.021 48.1568ZM186.848 48.0659V43.7023H187.496V44.3614H187.541C187.621 44.1455 187.765 43.9703 187.973 43.8358C188.181 43.7013 188.416 43.6341 188.678 43.6341C188.727 43.6341 188.788 43.635 188.862 43.6369C188.936 43.6388 188.992 43.6417 189.03 43.6455V44.3273C189.007 44.3216 188.955 44.3131 188.874 44.3017C188.794 44.2885 188.71 44.2818 188.621 44.2818C188.409 44.2818 188.219 44.3263 188.053 44.4153C187.888 44.5025 187.757 44.6237 187.66 44.779C187.566 44.9324 187.518 45.1076 187.518 45.3046V48.0659H186.848ZM192.506 49.7023C192.393 49.7023 192.291 49.6928 192.202 49.6739C192.113 49.6568 192.052 49.6398 192.018 49.6227L192.188 49.0318C192.351 49.0735 192.495 49.0886 192.62 49.0773C192.745 49.0659 192.856 49.01 192.952 48.9097C193.051 48.8112 193.141 48.6511 193.222 48.4296L193.347 48.0886L191.734 43.7023H192.461L193.665 47.1796H193.711L194.915 43.7023H195.643L193.79 48.7023C193.707 48.9277 193.604 49.1142 193.481 49.2619C193.358 49.4116 193.215 49.5224 193.052 49.5943C192.891 49.6663 192.709 49.7023 192.506 49.7023ZM198.201 48.1568C197.781 48.1568 197.418 48.064 197.113 47.8784C196.81 47.6909 196.576 47.4296 196.411 47.0943C196.248 46.7572 196.167 46.3652 196.167 45.9182C196.167 45.4712 196.248 45.0773 196.411 44.7364C196.576 44.3936 196.805 44.1265 197.099 43.9352C197.394 43.7421 197.739 43.6455 198.133 43.6455C198.36 43.6455 198.584 43.6833 198.806 43.7591C199.028 43.8349 199.229 43.958 199.411 44.1284C199.593 44.297 199.738 44.5205 199.846 44.7989C199.954 45.0773 200.008 45.4201 200.008 45.8273V46.1114H196.644V45.5318H199.326C199.326 45.2856 199.277 45.0659 199.178 44.8727C199.082 44.6796 198.943 44.5271 198.763 44.4153C198.585 44.3036 198.375 44.2477 198.133 44.2477C197.866 44.2477 197.635 44.314 197.44 44.4466C197.246 44.5773 197.098 44.7477 196.994 44.958C196.889 45.1682 196.837 45.3936 196.837 45.6341V46.0205C196.837 46.35 196.894 46.6294 197.008 46.8585C197.123 47.0858 197.283 47.2591 197.488 47.3784C197.692 47.4958 197.93 47.5546 198.201 47.5546C198.377 47.5546 198.536 47.5299 198.678 47.4807C198.822 47.4296 198.946 47.3538 199.05 47.2534C199.155 47.1511 199.235 47.0243 199.292 46.8727L199.94 47.0546C199.871 47.2743 199.757 47.4674 199.596 47.6341C199.435 47.7989 199.236 47.9277 198.999 48.0205C198.763 48.1114 198.496 48.1568 198.201 48.1568ZM202.312 48.1682C202.035 48.1682 201.784 48.1161 201.559 48.0119C201.334 47.9059 201.155 47.7534 201.022 47.5546C200.889 47.3538 200.823 47.1114 200.823 46.8273C200.823 46.5773 200.872 46.3746 200.971 46.2193C201.069 46.0621 201.201 45.939 201.366 45.85C201.531 45.761 201.712 45.6947 201.911 45.6511C202.112 45.6057 202.314 45.5697 202.516 45.5432C202.781 45.5091 202.996 45.4835 203.161 45.4665C203.328 45.4475 203.449 45.4163 203.525 45.3727C203.602 45.3292 203.641 45.2534 203.641 45.1455V45.1227C203.641 44.8424 203.565 44.6246 203.411 44.4693C203.26 44.314 203.03 44.2364 202.721 44.2364C202.401 44.2364 202.15 44.3064 201.968 44.4466C201.786 44.5868 201.658 44.7364 201.584 44.8955L200.948 44.6682C201.062 44.403 201.213 44.1966 201.403 44.0489C201.594 43.8993 201.802 43.7951 202.028 43.7364C202.255 43.6758 202.478 43.6455 202.698 43.6455C202.838 43.6455 202.999 43.6625 203.181 43.6966C203.365 43.7288 203.542 43.796 203.712 43.8983C203.885 44.0006 204.028 44.1549 204.141 44.3614C204.255 44.5678 204.312 44.8443 204.312 45.1909V48.0659H203.641V47.475H203.607C203.562 47.5697 203.486 47.671 203.38 47.779C203.274 47.8869 203.133 47.9788 202.957 48.0546C202.781 48.1303 202.566 48.1682 202.312 48.1682ZM202.414 47.5659C202.679 47.5659 202.903 47.5138 203.084 47.4097C203.268 47.3055 203.406 47.171 203.499 47.0063C203.594 46.8415 203.641 46.6682 203.641 46.4864V45.8727C203.613 45.9068 203.55 45.9381 203.454 45.9665C203.359 45.993 203.249 46.0167 203.124 46.0375C203.001 46.0564 202.881 46.0735 202.763 46.0886C202.648 46.1019 202.554 46.1133 202.482 46.1227C202.308 46.1455 202.145 46.1824 201.994 46.2335C201.844 46.2828 201.723 46.3576 201.63 46.458C201.539 46.5564 201.494 46.6909 201.494 46.8614C201.494 47.0943 201.58 47.2705 201.752 47.3898C201.926 47.5072 202.147 47.5659 202.414 47.5659ZM205.535 48.0659V43.7023H206.183V44.3614H206.229C206.308 44.1455 206.452 43.9703 206.66 43.8358C206.869 43.7013 207.104 43.6341 207.365 43.6341C207.414 43.6341 207.476 43.635 207.55 43.6369C207.624 43.6388 207.679 43.6417 207.717 43.6455V44.3273C207.695 44.3216 207.642 44.3131 207.561 44.3017C207.481 44.2885 207.397 44.2818 207.308 44.2818C207.096 44.2818 206.907 44.3263 206.74 44.4153C206.575 44.5025 206.445 44.6237 206.348 44.779C206.253 44.9324 206.206 45.1076 206.206 45.3046V48.0659H205.535Z" fill="#8F8F8F"/>
<path d="M271.147 150.422H204.116V197H271.147V150.422Z" fill="#03012C"/>
<path d="M254.861 150.422H187.829V197H254.861V150.422Z" fill="white" stroke="#03012C" stroke-width="0.173369" stroke-miterlimit="10"/>
<path d="M226.801 84.382C225.35 82.7039 225.239 79.2856 225.239 79.2856C225.239 75.1836 221.459 71.854 216.803 71.854C212.147 71.854 208.367 75.1836 208.367 79.2856C208.367 79.2856 208.257 82.7039 206.805 84.382C205.354 86.0601 202.078 94.6015 216.803 94.6636C231.528 94.6015 228.252 86.0601 226.801 84.382Z" fill="#261616"/>
<path d="M219.182 96.5899L210.293 96.8119L212.329 88.0663L212.611 86.4059L212.873 84.9054L221.278 84.3105L219.182 96.5899Z" fill="white" stroke="#03012C" stroke-width="0.173369" stroke-miterlimit="10" stroke-linecap="round" stroke-linejoin="round"/>
<path d="M222.841 90.9697L220.483 124.079L202.583 122.179L209.951 89.5225C209.941 89.5225 212.309 93.7932 222.841 90.9697Z" fill="#03012C"/>
<path d="M165.337 163.682L150.625 158.338L145.231 169.863L159.943 175.207L165.337 163.682Z" fill="white" stroke="#03012C" stroke-width="0.173369" stroke-miterlimit="10" stroke-linecap="round" stroke-linejoin="round"/>
<path d="M161.715 177.84L130.412 174.519C130.613 173.009 131.732 171.713 133.324 171.127C137.507 169.591 145.328 166.75 145.539 166.688C145.832 166.599 146.164 166.83 146.396 167.105C146.396 167.105 147.343 168.295 148.331 168.81C148.593 168.943 148.906 169.085 149.268 169.218C150.579 169.715 152.544 170.168 155.245 170.426C158.278 170.719 160.415 170.319 160.687 170.337C160.959 170.355 161.393 170.852 161.423 171.207C161.433 171.287 161.443 171.651 161.473 172.184C161.554 174.048 161.715 177.84 161.715 177.84Z" fill="#26A96C"/>
<path d="M149.268 169.236L139.582 173.764C139.502 173.8 139.411 173.817 139.33 173.809C139.199 173.791 139.068 173.729 139.008 173.613C138.897 173.427 138.977 173.205 139.189 173.107L148.33 168.836C148.592 168.961 148.905 169.094 149.268 169.236Z" fill="#03012C"/>
<path d="M161.705 177.839L130.406 174.52L130.057 177.076L161.356 180.394L161.705 177.839Z" fill="#03012C"/>
<path d="M195.075 166.067H179.161V177.769H195.075V166.067Z" fill="white" stroke="#03012C" stroke-width="0.173369" stroke-miterlimit="10" stroke-linecap="round" stroke-linejoin="round"/>
<path d="M181.398 129.663C164.123 129.565 156.736 132.717 153.723 140.859L153.168 142.297C153.168 142.297 153.178 142.297 153.188 142.306C153.148 142.431 153.098 142.546 153.057 142.67C149.973 152.419 147.575 162.292 147.575 162.292C147.575 162.292 150.387 163.855 155.819 165.728C161.251 167.602 166.845 168.037 166.845 168.037C166.845 168.037 171.168 157.285 174.484 148.974L216.551 149.187L222.87 129.672H181.398V129.663Z" fill="white" stroke="#03012C" stroke-width="0.173369" stroke-miterlimit="10" stroke-linecap="round" stroke-linejoin="round"/>
<path d="M198.682 179.767L168.306 187.207C167.842 185.742 168.306 184.171 169.535 183.096C172.74 180.273 178.737 175.025 178.908 174.892C179.14 174.715 179.553 174.812 179.886 174.99C179.886 174.99 181.277 175.771 182.416 175.913C182.718 175.949 183.071 175.976 183.464 175.976C184.895 175.993 186.901 175.754 189.511 175.088C192.434 174.342 194.248 173.259 194.51 173.179C194.772 173.108 195.387 173.418 195.568 173.729C195.608 173.8 195.78 174.138 196.032 174.617C196.898 176.304 198.682 179.767 198.682 179.767Z" fill="#26A96C"/>
<path d="M183.454 175.984L176.459 183.416C176.399 183.478 176.328 183.522 176.248 183.54C176.117 183.575 175.976 183.549 175.865 183.469C175.683 183.336 175.653 183.105 175.804 182.936L182.416 175.913C182.718 175.957 183.061 175.984 183.454 175.984Z" fill="#03012C"/>
<path d="M198.671 179.776L168.299 187.217L169.192 190.047L199.565 182.607L198.671 179.776Z" fill="#03012C"/>
<path d="M173.063 148.033C172.832 137.814 182.124 129.29 193.845 129.228C193.976 129.228 194.107 129.228 194.238 129.228C197.524 129.228 201.122 129.343 204.78 129.53L234.179 123.244L234.703 138.577C234.925 145.014 229.019 150.315 221.712 150.244C220.119 150.226 204.155 150.377 198.068 150.271C196.889 150.253 195.951 151.114 196.012 152.144C196.526 160.792 197.131 170.701 197.131 170.701C197.131 170.701 191.779 172.175 185.944 172.272C180.108 172.37 176.833 171.864 176.833 171.864L173.144 149.356C173.073 148.912 173.053 148.468 173.063 148.033Z" fill="white" stroke="#03012C" stroke-width="0.173369" stroke-miterlimit="10" stroke-linecap="round" stroke-linejoin="round"/>
<path d="M211.331 148.291L238.382 146.906C238.987 146.888 239.44 146.426 239.38 145.894L233.957 92.2302L220.432 89.2646L210.263 147.234C210.162 147.803 210.676 148.309 211.331 148.291Z" fill="#26A96C"/>
<path d="M215.726 114.889L225.3 100.345L222.357 96.1457L226.731 90.6497L220.432 89.2646L215.726 114.889Z" fill="white" stroke="#03012C" stroke-width="0.173369" stroke-miterlimit="10"/>
<path d="M207.914 130.507H185.873L197.936 92.1324C198.531 90.2501 200.476 88.936 202.693 88.936H212.127L207.914 130.507Z" fill="#26A96C"/>
<path d="M209.507 114.898L203.711 98.756L207.662 95.2666L204.79 88.936H212.127L209.507 114.898Z" fill="white" stroke="#03012C" stroke-width="0.173369" stroke-miterlimit="10"/>
<path d="M240.529 123.999C241.909 126.752 245.548 127.995 248.672 126.778C251.796 125.562 253.207 122.357 251.826 119.604L241.022 97.1586C239.45 93.8646 235.641 91.8402 231.599 92.151L225.401 92.6304L240.529 123.999Z" fill="#26A96C"/>
<path d="M202.764 88.936C198.915 88.936 195.427 90.9249 193.845 94.0147L180.471 120.145C179.11 122.897 180.542 126.112 183.666 127.31C186.79 128.509 190.439 127.248 191.799 124.496L203.712 101.189L202.764 88.936Z" fill="#26A96C"/>
<path d="M191.689 131.147H148.694C148.251 131.147 147.848 130.898 147.707 130.525L137.104 102.602C136.883 102.007 137.376 101.394 138.092 101.394H179.645C180.089 101.394 180.492 101.643 180.633 102.016L191.689 131.147Z" fill="white" stroke="#03012C" stroke-width="0.173369" stroke-miterlimit="10"/>
<path d="M204.983 128.946H190.863L191.69 131.147H204.983V128.946Z" fill="white" stroke="#03012C" stroke-width="0.173369" stroke-miterlimit="10"/>
<path d="M192.182 125.934C192.151 125.934 192.131 125.926 192.101 125.917C192.01 125.881 191.98 125.792 192.02 125.712L200.325 110.876C200.365 110.805 200.476 110.769 200.557 110.805C200.648 110.84 200.678 110.929 200.637 111.009L192.333 125.846C192.303 125.899 192.242 125.934 192.182 125.934Z" fill="#03012C"/>
<path d="M233.685 117.038C233.614 117.038 233.554 117.002 233.524 116.94L228.948 106.383C228.918 106.303 228.958 106.215 229.049 106.188C229.139 106.161 229.24 106.197 229.27 106.277L233.846 116.834C233.876 116.914 233.836 117.002 233.745 117.029C233.725 117.038 233.705 117.038 233.685 117.038Z" fill="#03012C"/>
<path d="M222.297 123.2C222.297 123.2 215.544 117.047 207.925 116.541C207.925 116.541 204.559 116.55 206.897 119.871C206.897 119.871 200.84 120.057 198.28 122.694C195.73 125.322 198.925 125.784 198.925 125.784L197.171 127.719C196.526 128.43 196.546 129.451 197.211 130.143L197.272 130.205C197.756 130.712 198.582 130.845 199.237 130.507C198.804 131.182 198.945 132.026 199.57 132.567L199.6 132.594C200.205 133.118 201.132 133.224 201.878 132.869L202.18 132.727L201.848 133.269C201.454 133.89 201.606 134.672 202.19 135.16C202.755 135.622 203.591 135.71 204.256 135.382L204.992 135.018C204.992 135.018 208.147 132.372 212.359 134.05C213.327 134.432 214.375 134.618 215.433 134.592L216.36 134.565C219.434 134.485 222.407 133.562 224.857 131.928L222.297 123.2Z" fill="white" stroke="#03012C" stroke-width="0.173369" stroke-miterlimit="10" stroke-linecap="round" stroke-linejoin="round"/>
<path d="M206.906 119.871C206.906 119.871 210.151 119.437 213.326 120.688L206.906 119.871Z" fill="white"/>
<path d="M213.326 120.838C213.306 120.838 213.276 120.838 213.256 120.83C210.172 119.622 206.967 120.022 206.926 120.031C206.836 120.04 206.745 119.986 206.725 119.906C206.715 119.827 206.775 119.747 206.866 119.729C206.997 119.711 210.202 119.303 213.387 120.554C213.477 120.59 213.518 120.679 213.477 120.759C213.457 120.803 213.387 120.838 213.326 120.838Z" fill="#03012C"/>
<path d="M198.935 125.783C198.935 125.783 202.735 122.899 208.59 123.28L198.935 125.783Z" fill="white"/>
<path d="M198.934 125.934C198.884 125.934 198.834 125.916 198.803 125.88C198.743 125.818 198.753 125.721 198.824 125.667C198.864 125.641 202.734 122.747 208.6 123.129C208.69 123.138 208.771 123.209 208.761 123.289C208.751 123.369 208.67 123.431 208.579 123.431C202.865 123.058 199.086 125.872 199.055 125.898C199.015 125.916 198.975 125.934 198.934 125.934Z" fill="#03012C"/>
<path d="M199.236 130.508C199.236 130.508 203.248 125.944 210.262 126.299L199.236 130.508Z" fill="white"/>
<path d="M199.236 130.658C199.196 130.658 199.166 130.65 199.125 130.623C199.045 130.57 199.035 130.472 199.095 130.41C199.135 130.365 203.247 125.784 210.262 126.148C210.353 126.157 210.433 126.228 210.423 126.308C210.413 126.388 210.353 126.459 210.242 126.45C203.399 126.104 199.407 130.552 199.367 130.596C199.347 130.641 199.297 130.658 199.236 130.658Z" fill="#03012C"/>
<path d="M202.18 132.717C202.18 132.717 206.222 128.864 212.48 129.681L202.18 132.717Z" fill="white"/>
<path d="M202.18 132.869C202.14 132.869 202.099 132.852 202.059 132.825C201.989 132.772 201.989 132.674 202.049 132.612C202.089 132.576 206.222 128.714 212.5 129.531C212.591 129.54 212.662 129.62 212.641 129.7C212.631 129.779 212.541 129.842 212.44 129.824C206.342 129.034 202.331 132.781 202.291 132.816C202.281 132.852 202.23 132.869 202.18 132.869Z" fill="#03012C"/>
<path d="M242.605 115.076C246.878 114.197 251.151 116.541 252.149 120.297C253.147 124.061 250.496 127.826 246.223 128.705L222.629 134.44L218.588 119.755L242.605 115.076Z" fill="#26A96C"/>
<path d="M218.587 119.906C218.506 119.906 218.436 119.862 218.416 119.791C218.395 119.711 218.456 119.631 218.547 119.613L236.335 116.142C236.436 116.124 236.516 116.177 236.547 116.257C236.567 116.337 236.506 116.417 236.416 116.435L218.627 119.906C218.607 119.906 218.597 119.906 218.587 119.906Z" fill="#03012C"/>
<path d="M222.618 134.601C222.538 134.601 222.477 134.557 222.447 134.486C222.417 134.406 222.477 134.317 222.568 134.299L237.766 130.606C237.857 130.579 237.958 130.632 237.978 130.712C238.008 130.792 237.947 130.881 237.857 130.899L222.658 134.592C222.648 134.592 222.638 134.601 222.618 134.601Z" fill="#03012C"/>
<path d="M224.745 78.7256C224.745 82.437 221.147 85.6777 216.723 85.6777C212.288 85.6777 208.7 82.437 208.7 78.7256C208.7 75.0143 212.298 72.0044 216.723 72.0044C221.157 72.0044 224.745 75.0143 224.745 78.7256Z" fill="#261616"/>
<path d="M209.94 78.2823C209.94 78.2823 209.577 88.7327 216.511 88.7327C224.039 88.7327 223.566 78.2823 223.566 78.2823C223.566 78.2823 223.525 73.4878 216.692 73.4878C210.434 73.4878 209.94 78.2823 209.94 78.2823Z" fill="white" stroke="#03012C" stroke-width="0.173369" stroke-miterlimit="10" stroke-linecap="round" stroke-linejoin="round"/>
<path d="M222.679 75.8492C222.679 75.8492 219.374 74.5973 217.267 76.524C215.252 78.3708 213.004 79.8091 209.94 78.7259C209.94 78.7259 209.114 74.6949 214.768 73.3986C220.432 72.1023 222.679 75.8492 222.679 75.8492Z" fill="#261616"/>
<path d="M226.115 82.993C226.449 81.8993 225.915 80.8213 224.92 80.5851C223.926 80.349 222.849 81.0442 222.514 82.1379C222.18 83.2316 222.714 84.3096 223.708 84.5457C224.703 84.7819 225.78 84.0867 226.115 82.993Z" fill="white"/>
<path d="M225.199 81.8076C225.199 81.8076 224.141 81.8786 223.768 82.9171C223.768 82.9171 224.786 82.8017 224.796 83.6361" stroke="#03012C" stroke-width="0.173369" stroke-miterlimit="10" stroke-linecap="round" stroke-linejoin="round"/>
<path d="M210.063 84.5433C211.057 84.3071 211.591 83.2291 211.257 82.1354C210.922 81.0417 209.845 80.3465 208.851 80.5827C207.856 80.8188 207.322 81.8969 207.656 82.9905C207.991 84.0842 209.068 84.7794 210.063 84.5433Z" fill="white"/>
<path d="M213.024 83.9998C214.488 83.9998 215.675 82.9544 215.675 81.6647C215.675 80.3751 214.488 79.3296 213.024 79.3296C211.56 79.3296 210.374 80.3751 210.374 81.6647C210.374 82.9544 211.56 83.9998 213.024 83.9998Z" stroke="#03012C" stroke-width="0.173369" stroke-miterlimit="10"/>
<path d="M220.21 83.9998C221.674 83.9998 222.861 82.9544 222.861 81.6647C222.861 80.3751 221.674 79.3296 220.21 79.3296C218.746 79.3296 217.56 80.3751 217.56 81.6647C217.56 82.9544 218.746 83.9998 220.21 83.9998Z" stroke="#03012C" stroke-width="0.173369" stroke-miterlimit="10"/>
<path d="M215.665 81.6654C215.665 81.6654 216.612 81.2119 217.559 81.6654" stroke="#03012C" stroke-width="0.173369" stroke-miterlimit="10"/>
<path d="M208.792 81.8076C208.792 81.8076 209.85 81.8786 210.223 82.9171C210.223 82.9171 209.205 82.8017 209.195 83.6361" stroke="#03012C" stroke-width="0.173369" stroke-miterlimit="10" stroke-linecap="round" stroke-linejoin="round"/>
</svg>
