<svg width="16" height="17" viewBox="0 0 16 17" fill="none" xmlns="http://www.w3.org/2000/svg">
<path d="M14.2857 16.1626H1.71429C0.7675 16.1626 0 15.3951 0 14.4483V1.87688C0 0.930098 0.7675 0.162598 1.71429 0.162598H14.2857C15.2325 0.162598 16 0.930098 16 1.87688V14.4483C16 15.3951 15.2325 16.1626 14.2857 16.1626ZM6.9755 12.6605L13.5469 6.08906C13.7701 5.86592 13.7701 5.5041 13.5469 5.28095L12.7388 4.47285C12.5157 4.2497 12.1539 4.24967 11.9307 4.47285L6.57143 9.83206L4.06932 7.32995C3.84618 7.10681 3.48436 7.10681 3.26118 7.32995L2.45307 8.13806C2.22993 8.36121 2.22993 8.72303 2.45307 8.94617L6.16736 12.6605C6.39054 12.8837 6.75232 12.8837 6.9755 12.6605Z" fill="#26A96C"/>
</svg>
