<svg width="52" height="52" viewBox="0 0 52 52" fill="none" xmlns="http://www.w3.org/2000/svg">
<rect x="1.25" y="1.25" width="49.5" height="49.5" rx="24.75" fill="#FAFAFA"/>
<rect x="1.25" y="1.25" width="49.5" height="49.5" rx="24.75" stroke="white" stroke-width="1.5"/>
<path d="M35 26C35 26.1989 34.921 26.3897 34.7803 26.5303C34.6397 26.671 34.4489 26.75 34.25 26.75H26.75V34.25C26.75 34.4489 26.671 34.6397 26.5303 34.7803C26.3897 34.921 26.1989 35 26 35C25.8011 35 25.6103 34.921 25.4697 34.7803C25.329 34.6397 25.25 34.4489 25.25 34.25V26.75H17.75C17.5511 26.75 17.3603 26.671 17.2197 26.5303C17.079 26.3897 17 26.1989 17 26C17 25.8011 17.079 25.6103 17.2197 25.4697C17.3603 25.329 17.5511 25.25 17.75 25.25H25.25V17.75C25.25 17.5511 25.329 17.3603 25.4697 17.2197C25.6103 17.079 25.8011 17 26 17C26.1989 17 26.3897 17.079 26.5303 17.2197C26.671 17.3603 26.75 17.5511 26.75 17.75V25.25H34.25C34.4489 25.25 34.6397 25.329 34.7803 25.4697C34.921 25.6103 35 25.8011 35 26Z" fill="#737373"/>
</svg>
