<svg width="48" height="48" viewBox="0 0 48 48" fill="none" xmlns="http://www.w3.org/2000/svg">
<circle cx="24" cy="24" r="22.875" fill="#D9D9D9" stroke="white" stroke-width="2.25"/>
<path d="M30.0002 20C30.0002 20.5304 29.7895 21.0391 29.4145 21.4142C29.0394 21.7893 28.5307 22 28.0002 22C27.4698 22 26.9611 21.7893 26.586 21.4142C26.211 21.0391 26.0002 20.5304 26.0002 20C26.0002 19.4696 26.211 18.9609 26.586 18.5858C26.9611 18.2107 27.4698 18 28.0002 18C28.5307 18 29.0394 18.2107 29.4145 18.5858C29.7895 18.9609 30.0002 19.4696 30.0002 20Z" fill="black"/>
<path fill-rule="evenodd" clip-rule="evenodd" d="M23.9432 13.25H24.0572C26.3662 13.25 28.1752 13.25 29.5872 13.44C31.0312 13.634 32.1712 14.04 33.0662 14.934C33.9612 15.829 34.3662 16.969 34.5602 18.414C34.7502 19.825 34.7502 21.634 34.7502 23.943V24.031C34.7502 25.94 34.7502 27.502 34.6462 28.774C34.5422 30.054 34.3292 31.121 33.8512 32.009C33.6412 32.4 33.3812 32.751 33.0662 33.066C32.1712 33.961 31.0312 34.366 29.5862 34.56C28.1752 34.75 26.3662 34.75 24.0572 34.75H23.9432C21.6342 34.75 19.8252 34.75 18.4132 34.56C16.9692 34.366 15.8292 33.96 14.9342 33.066C14.1412 32.273 13.7312 31.286 13.5142 30.06C13.2992 28.857 13.2602 27.36 13.2522 25.502C13.2502 25.029 13.2502 24.529 13.2502 24.001V23.943C13.2502 21.634 13.2502 19.825 13.4402 18.413C13.6342 16.969 14.0402 15.829 14.9342 14.934C15.8292 14.039 16.9692 13.634 18.4142 13.44C19.8252 13.25 21.6342 13.25 23.9432 13.25ZM18.6132 14.926C17.3352 15.098 16.5642 15.426 15.9952 15.995C15.4252 16.565 15.0982 17.335 14.9262 18.614C14.7522 19.914 14.7502 21.622 14.7502 24V24.844L15.7512 23.968C16.1903 23.5836 16.7591 23.3805 17.3423 23.3998C17.9255 23.4192 18.4796 23.6594 18.8922 24.072L23.1822 28.362C23.5152 28.6948 23.9548 28.8996 24.4238 28.9402C24.8928 28.9808 25.3611 28.8546 25.7462 28.584L26.0442 28.374C26.5999 27.9835 27.2717 27.7931 27.9496 27.834C28.6275 27.8749 29.2715 28.1446 29.7762 28.599L32.6062 31.146C32.8922 30.548 33.0612 29.762 33.1512 28.653C33.2492 27.448 33.2502 25.946 33.2502 24C33.2502 21.622 33.2482 19.914 33.0742 18.614C32.9022 17.335 32.5742 16.564 32.0052 15.994C31.4352 15.425 30.6652 15.098 29.3862 14.926C28.0862 14.752 26.3782 14.75 24.0002 14.75C21.6222 14.75 19.9132 14.752 18.6132 14.926Z" fill="black"/>
</svg>
