<svg width="24" height="24" viewBox="0 0 24 24" fill="none" xmlns="http://www.w3.org/2000/svg">
<path d="M7.54688 7.52344H16.5469C16.4677 6.58594 16.0908 5.86172 15.2381 5.63175C15.2172 5.62617 15.1856 5.61188 15.1646 5.60639C14.6019 5.44589 14.1797 5.24766 14.1797 4.63228V3.66689C14.1797 2.46989 13.2176 1.5 12.023 1.5C10.8292 1.5 9.86719 2.46989 9.86719 3.66689V4.63228C9.86719 5.24766 9.46444 5.43708 8.9017 5.59758C8.88075 5.60306 8.8642 5.62617 8.84236 5.63175C7.98966 5.86172 7.6372 6.58594 7.54688 7.52344ZM12.0464 3.01852C12.4034 3.01852 12.6929 3.30891 12.6929 3.66689C12.6929 4.02567 12.4034 4.31611 12.0464 4.31611C11.6895 4.31611 11.4008 4.02572 11.4008 3.66689C11.4008 3.30891 11.6895 3.01852 12.0464 3.01852Z" fill="#03012C"/>
<path d="M19.013 2.97656H15.5391V3.63225C15.5391 4.12833 15.97 4.52344 16.4535 4.52344H18.1978C18.5103 4.52344 18.7649 4.7782 18.7809 5.09508L18.7849 20.4279C18.7698 20.7294 18.5363 20.9691 18.2452 20.9912L5.85056 20.9926C5.55942 20.9706 5.32795 20.7257 5.31281 20.4242L5.30883 5.09545C5.32392 4.77853 5.58342 4.52344 5.89505 4.52344H7.64025C8.12367 4.52344 8.50777 4.12833 8.50777 3.63225V2.97656H5.07975C4.37109 2.97656 3.77344 3.56522 3.77344 4.29258V21.1854C3.77344 21.912 4.37109 22.5234 5.0798 22.5234H19.013C19.7226 22.5234 20.2734 21.912 20.2734 21.1854V4.29258C20.2734 3.56522 19.7226 2.97656 19.013 2.97656Z" fill="#03012C"/>
<path d="M6.77344 9.02344H12.0234V10.5234H6.77344V9.02344Z" fill="#03012C"/>
<path d="M6.77344 18.0234H14.2734V19.5234H6.77344V18.0234Z" fill="#03012C"/>
<path d="M6.77344 15.0234H12.8203V16.5234H6.77344V15.0234Z" fill="#03012C"/>
<path d="M6.77344 12.0234H16.5234V13.5234H6.77344V12.0234Z" fill="#03012C"/>
</svg>
