<svg width="24" height="25" viewBox="0 0 24 25" fill="none" xmlns="http://www.w3.org/2000/svg">
<g clip-path="url(#clip0_54_63)">
<path d="M17.125 3.4939H19.75C19.9489 3.4939 20.1397 3.57291 20.2803 3.71357C20.421 3.85422 20.5 4.04498 20.5 4.2439V6.8689" stroke="#03012C" stroke-width="1.5" stroke-linecap="round" stroke-linejoin="round"/>
<path d="M17.125 20.9939H19.75C19.9489 20.9939 20.1397 20.9149 20.2803 20.7742C20.421 20.6336 20.5 20.4428 20.5 20.2439V17.6189" stroke="#03012C" stroke-width="1.5" stroke-linecap="round" stroke-linejoin="round"/>
<path d="M7.375 20.9939H4.75C4.55109 20.9939 4.36032 20.9149 4.21967 20.7742C4.07902 20.6336 4 20.4428 4 20.2439V17.6189" stroke="#03012C" stroke-width="1.5" stroke-linecap="round" stroke-linejoin="round"/>
<path d="M7.375 3.4939H4.75C4.55109 3.4939 4.36032 3.57291 4.21967 3.71357C4.07902 3.85422 4 4.04498 4 4.2439V6.8689" stroke="#03012C" stroke-width="1.5" stroke-linecap="round" stroke-linejoin="round"/>
<path d="M12.25 13.2439C13.9069 13.2439 15.25 11.9008 15.25 10.2439C15.25 8.58704 13.9069 7.2439 12.25 7.2439C10.5931 7.2439 9.25 8.58704 9.25 10.2439C9.25 11.9008 10.5931 13.2439 12.25 13.2439Z" stroke="#03012C" stroke-width="1.5" stroke-linecap="round" stroke-linejoin="round"/>
<path d="M7.27197 17.2439C7.7514 16.3395 8.46813 15.5828 9.34519 15.0551C10.2223 14.5274 11.2265 14.2485 12.2501 14.2485C13.2737 14.2485 14.2779 14.5274 15.155 15.0551C16.0321 15.5828 16.7488 16.3395 17.2282 17.2439" stroke="#03012C" stroke-width="1.5" stroke-linecap="round" stroke-linejoin="round"/>
</g>
<defs>
<clipPath id="clip0_54_63">
<rect width="24" height="24" fill="white" transform="translate(0 0.493896)"/>
</clipPath>
</defs>
</svg>
