<svg width="244" height="236" viewBox="0 0 244 236" fill="none" xmlns="http://www.w3.org/2000/svg">
<path d="M192.71 25.1927C189.831 21.8605 189.611 15.0729 189.611 15.0729C189.611 6.92775 182.112 0.316406 172.874 0.316406C163.635 0.316406 156.136 6.92775 156.136 15.0729C156.136 15.0729 155.916 21.8605 153.037 25.1927C150.157 28.5248 143.658 45.4851 172.874 45.6085C202.089 45.4851 195.59 28.5248 192.71 25.1927Z" fill="#261616"/>
<path d="M177.593 49.4344L159.956 49.8751L163.995 32.5094L164.555 29.2125L165.075 26.233L181.752 25.0518L177.593 49.4344Z" fill="white" stroke="#03012C" stroke-width="0.316" stroke-miterlimit="10" stroke-linecap="round" stroke-linejoin="round"/>
<path d="M184.852 38.2736L180.173 104.017L144.658 100.244L159.276 35.3999C159.256 35.3999 163.955 43.88 184.852 38.2736Z" fill="#03012C"/>
<path d="M70.7567 182.655L41.5657 172.043L30.8638 194.927L60.0548 205.539L70.7567 182.655Z" fill="white" stroke="#03012C" stroke-width="0.316" stroke-miterlimit="10" stroke-linecap="round" stroke-linejoin="round"/>
<path d="M63.5712 210.767L1.46118 204.174C1.86112 201.177 4.08076 198.603 7.24025 197.439C15.5389 194.389 31.0564 188.747 31.4764 188.624C32.0563 188.447 32.7162 188.906 33.1761 189.452C33.1761 189.452 35.0558 191.815 37.0155 192.837C37.5354 193.102 38.1553 193.384 38.8752 193.648C41.4748 194.636 45.3741 195.535 50.7333 196.046C56.7523 196.628 60.9916 195.835 61.5316 195.87C62.0715 195.905 62.9313 196.892 62.9913 197.598C63.0113 197.756 63.0313 198.479 63.0913 199.537C63.2513 203.239 63.5712 210.767 63.5712 210.767Z" fill="#26A96C"/>
<path d="M38.8751 193.684L19.6581 202.676C19.4982 202.746 19.3182 202.782 19.1582 202.764C18.8983 202.729 18.6383 202.605 18.5183 202.376C18.2984 202.006 18.4583 201.565 18.8783 201.371L37.0153 192.891C37.5353 193.138 38.1552 193.402 38.8751 193.684Z" fill="#03012C"/>
<path d="M63.5527 210.766L1.45093 204.176L0.757965 209.252L62.8597 215.842L63.5527 210.766Z" fill="#03012C"/>
<path d="M129.76 187.391H98.1855V210.628H129.76V187.391Z" fill="white" stroke="#03012C" stroke-width="0.316" stroke-miterlimit="10" stroke-linecap="round" stroke-linejoin="round"/>
<path d="M102.625 115.107C68.3509 114.913 53.6932 121.172 47.7142 137.339L46.6143 140.195C46.6143 140.195 46.6343 140.195 46.6543 140.212C46.5744 140.459 46.4744 140.688 46.3944 140.935C40.2754 160.293 35.5161 179.898 35.5161 179.898C35.5161 179.898 41.0952 183.001 51.8735 186.721C62.6518 190.441 73.75 191.305 73.75 191.305C73.75 191.305 82.3286 169.955 88.9076 153.453L172.374 153.876L184.912 115.125H102.625V115.107Z" fill="white" stroke="#03012C" stroke-width="0.316" stroke-miterlimit="10" stroke-linecap="round" stroke-linejoin="round"/>
<path d="M136.92 214.594L76.6492 229.368C75.7293 226.459 76.6492 223.338 79.0888 221.205C85.4478 215.599 97.3459 205.179 97.6858 204.915C98.1457 204.562 98.9656 204.756 99.6255 205.109C99.6255 205.109 102.385 206.66 104.645 206.942C105.245 207.013 105.944 207.066 106.724 207.066C109.564 207.101 113.543 206.625 118.722 205.303C124.521 203.822 128.121 201.671 128.641 201.512C129.161 201.371 130.381 201.988 130.741 202.605C130.821 202.746 131.16 203.416 131.66 204.368C133.38 207.718 136.92 214.594 136.92 214.594Z" fill="#26A96C"/>
<path d="M106.704 207.084L92.8266 221.84C92.7066 221.964 92.5666 222.052 92.4066 222.087C92.1467 222.158 91.8667 222.105 91.6467 221.946C91.2868 221.682 91.2268 221.223 91.5268 220.888L104.645 206.943C105.245 207.031 105.924 207.084 106.704 207.084Z" fill="#03012C"/>
<path d="M136.896 214.614L76.6331 229.389L78.4063 235.011L138.67 220.236L136.896 214.614Z" fill="#03012C"/>
<path d="M86.0878 151.583C85.6278 131.291 104.065 114.366 127.321 114.243C127.581 114.243 127.841 114.243 128.101 114.243C134.62 114.243 141.759 114.472 149.018 114.842L207.348 102.36L208.388 132.807C208.828 145.589 197.11 156.114 182.612 155.973C179.453 155.938 147.778 156.238 135.7 156.026C133.36 155.991 131.5 157.701 131.62 159.746C132.64 176.918 133.84 196.593 133.84 196.593C133.84 196.593 123.222 199.52 111.644 199.714C100.066 199.908 93.5665 198.903 93.5665 198.903L86.2477 154.21C86.1078 153.329 86.0678 152.447 86.0878 151.583Z" fill="white" stroke="#03012C" stroke-width="0.316" stroke-miterlimit="10" stroke-linecap="round" stroke-linejoin="round"/>
<path d="M162.015 152.095L215.687 149.345C216.887 149.309 217.786 148.393 217.666 147.335L206.908 40.7777L180.072 34.8892L159.896 149.997C159.696 151.125 160.716 152.13 162.015 152.095Z" fill="#26A96C"/>
<path d="M170.734 85.77L189.731 56.8917L183.892 48.5526L192.571 37.6395L180.073 34.8892L170.734 85.77Z" fill="white" stroke="#03012C" stroke-width="0.316" stroke-miterlimit="10"/>
<path d="M155.236 116.782H111.503L135.44 40.5837C136.619 36.8461 140.479 34.2368 144.878 34.2368H163.595L155.236 116.782Z" fill="#26A96C"/>
<path d="M158.396 85.7876L146.898 53.7359L154.736 46.8072L149.037 34.2368H163.595L158.396 85.7876Z" fill="white" stroke="#03012C" stroke-width="0.316" stroke-miterlimit="10"/>
<path d="M219.946 103.859C222.686 109.324 229.905 111.792 236.104 109.377C242.303 106.961 245.102 100.597 242.363 95.1315L220.926 50.5623C217.807 44.0215 210.248 40.0018 202.229 40.6189L189.931 41.5709L219.946 103.859Z" fill="#26A96C"/>
<path d="M145.018 34.2368C137.379 34.2368 130.46 38.186 127.321 44.3213L100.785 96.2071C98.0856 101.672 100.925 108.055 107.124 110.435C113.323 112.815 120.562 110.311 123.262 104.846L146.898 58.5665L145.018 34.2368Z" fill="#26A96C"/>
<path d="M123.042 118.051H37.7353C36.8555 118.051 36.0556 117.557 35.7756 116.817L14.739 61.3699C14.2991 60.1887 15.2789 58.9722 16.6987 58.9722H99.1455C100.025 58.9722 100.825 59.4658 101.105 60.2063L123.042 118.051Z" fill="white" stroke="#03012C" stroke-width="0.316" stroke-miterlimit="10"/>
<path d="M149.418 113.68H121.402L123.042 118.052H149.418V113.68Z" fill="white" stroke="#03012C" stroke-width="0.316" stroke-miterlimit="10"/>
<path d="M124.021 107.702C123.961 107.702 123.921 107.685 123.861 107.667C123.682 107.597 123.622 107.42 123.702 107.262L140.179 77.8015C140.259 77.6605 140.479 77.59 140.639 77.6605C140.819 77.731 140.879 77.9073 140.799 78.066L124.321 107.526C124.261 107.632 124.141 107.702 124.021 107.702Z" fill="#03012C"/>
<path d="M206.368 90.0361C206.228 90.0361 206.108 89.9656 206.048 89.8422L196.97 68.8798C196.91 68.7212 196.99 68.5449 197.17 68.492C197.35 68.4391 197.55 68.5096 197.61 68.6683L206.688 89.6306C206.748 89.7893 206.668 89.9656 206.488 90.0185C206.448 90.0361 206.408 90.0361 206.368 90.0361Z" fill="#03012C"/>
<path d="M183.772 102.272C183.772 102.272 170.374 90.0542 155.257 89.0493C155.257 89.0493 148.578 89.0669 153.217 95.6607C153.217 95.6607 141.199 96.0309 136.12 101.267C131.06 106.486 137.399 107.402 137.399 107.402L133.92 111.246C132.64 112.656 132.68 114.684 134 116.059L134.12 116.182C135.08 117.187 136.72 117.452 138.019 116.782C137.159 118.122 137.439 119.796 138.679 120.872L138.739 120.925C139.939 121.965 141.779 122.177 143.258 121.471L143.858 121.189L143.199 122.265C142.419 123.499 142.719 125.05 143.878 126.02C144.998 126.937 146.658 127.113 147.978 126.461L149.437 125.738C149.437 125.738 155.696 120.484 164.055 123.816C165.975 124.574 168.055 124.944 170.154 124.892L171.994 124.839C178.093 124.68 183.992 122.846 188.851 119.603L183.772 102.272Z" fill="white" stroke="#03012C" stroke-width="0.316" stroke-miterlimit="10" stroke-linecap="round" stroke-linejoin="round"/>
<path d="M153.237 95.6604C153.237 95.6604 159.676 94.7965 165.975 97.2824L153.237 95.6604Z" fill="white"/>
<path d="M165.975 97.5824C165.935 97.5824 165.875 97.5824 165.835 97.5648C159.716 95.1671 153.357 95.9604 153.277 95.9781C153.097 95.9957 152.917 95.8899 152.877 95.7313C152.857 95.5726 152.977 95.4139 153.157 95.3786C153.417 95.3434 159.776 94.5324 166.095 97.0183C166.275 97.0888 166.355 97.2651 166.275 97.4238C166.235 97.5119 166.095 97.5824 165.975 97.5824Z" fill="#03012C"/>
<path d="M137.419 107.403C137.419 107.403 144.958 101.673 156.576 102.431L137.419 107.403Z" fill="white"/>
<path d="M137.419 107.703C137.319 107.703 137.219 107.667 137.159 107.597C137.039 107.473 137.059 107.279 137.199 107.174C137.279 107.121 144.958 101.373 156.596 102.131C156.776 102.149 156.936 102.29 156.916 102.449C156.896 102.607 156.736 102.731 156.556 102.731C145.218 101.99 137.719 107.579 137.659 107.632C137.579 107.667 137.499 107.703 137.419 107.703Z" fill="#03012C"/>
<path d="M138.02 116.782C138.02 116.782 145.978 107.72 159.896 108.425L138.02 116.782Z" fill="white"/>
<path d="M138.02 117.082C137.94 117.082 137.88 117.064 137.8 117.011C137.64 116.905 137.62 116.711 137.74 116.588C137.82 116.5 145.978 107.403 159.896 108.125C160.076 108.143 160.236 108.284 160.216 108.443C160.196 108.601 160.076 108.742 159.856 108.725C146.278 108.037 138.36 116.87 138.28 116.958C138.24 117.046 138.14 117.082 138.02 117.082Z" fill="#03012C"/>
<path d="M143.858 121.172C143.858 121.172 151.877 113.52 164.295 115.142L143.858 121.172Z" fill="white"/>
<path d="M143.859 121.472C143.779 121.472 143.699 121.437 143.619 121.384C143.479 121.278 143.479 121.084 143.599 120.961C143.679 120.89 151.877 113.221 164.335 114.843C164.515 114.861 164.655 115.019 164.615 115.178C164.595 115.336 164.415 115.46 164.215 115.425C152.117 113.856 144.159 121.296 144.079 121.366C144.059 121.437 143.959 121.472 143.859 121.472Z" fill="#03012C"/>
<path d="M224.065 86.1401C232.544 84.3947 241.022 89.0491 243.002 96.5067C244.982 103.982 239.723 111.457 231.244 113.203L184.432 124.592L176.413 95.4313L224.065 86.1401Z" fill="#26A96C"/>
<path d="M176.413 95.7315C176.253 95.7315 176.113 95.6434 176.073 95.5023C176.033 95.3437 176.153 95.185 176.333 95.1497L211.627 88.2563C211.827 88.221 211.987 88.3268 212.047 88.4855C212.087 88.6442 211.967 88.8028 211.787 88.8381L176.493 95.7315C176.453 95.7315 176.433 95.7315 176.413 95.7315Z" fill="#03012C"/>
<path d="M184.412 124.909C184.252 124.909 184.132 124.821 184.072 124.68C184.012 124.521 184.132 124.345 184.312 124.31L214.467 116.976C214.647 116.923 214.847 117.029 214.887 117.187C214.947 117.346 214.827 117.522 214.647 117.557L184.492 124.892C184.472 124.892 184.452 124.909 184.412 124.909Z" fill="#03012C"/>
<path d="M188.631 13.9623C188.631 21.3317 181.492 27.7668 172.714 27.7668C163.915 27.7668 156.796 21.3317 156.796 13.9623C156.796 6.59286 163.935 0.616211 172.714 0.616211C181.512 0.616211 188.631 6.59286 188.631 13.9623Z" fill="#261616"/>
<path d="M159.256 13.0809C159.256 13.0809 158.536 33.8317 172.294 33.8317C187.231 33.8317 186.291 13.0809 186.291 13.0809C186.291 13.0809 186.211 3.56055 172.654 3.56055C160.236 3.56055 159.256 13.0809 159.256 13.0809Z" fill="white" stroke="#03012C" stroke-width="0.316" stroke-miterlimit="10" stroke-linecap="round" stroke-linejoin="round"/>
<path d="M184.532 8.25013C184.532 8.25013 177.973 5.76427 173.794 9.59003C169.794 13.2571 165.335 16.1132 159.256 13.9623C159.256 13.9623 157.616 5.9582 168.835 3.38419C180.073 0.810172 184.532 8.25013 184.532 8.25013Z" fill="#261616"/>
<path d="M191.349 22.4343C192.013 20.2626 190.952 18.1219 188.98 17.6531C187.007 17.1842 184.869 18.5646 184.205 20.7363C183.541 22.908 184.602 25.0486 186.575 25.5175C188.547 25.9863 190.685 24.606 191.349 22.4343Z" fill="white"/>
<path d="M189.531 20.0801C189.531 20.0801 187.432 20.2211 186.692 22.2839C186.692 22.2839 188.711 22.0547 188.731 23.7119" stroke="#03012C" stroke-width="0.316" stroke-miterlimit="10" stroke-linecap="round" stroke-linejoin="round"/>
<path d="M159.498 25.5134C161.471 25.0445 162.532 22.9039 161.868 20.7322C161.204 18.5605 159.066 17.1802 157.093 17.649C155.121 18.1179 154.06 20.2585 154.724 22.4302C155.388 24.6019 157.525 25.9823 159.498 25.5134Z" fill="white"/>
<path d="M165.375 24.4341C168.279 24.4341 170.634 22.3582 170.634 19.7974C170.634 17.2366 168.279 15.1606 165.375 15.1606C162.47 15.1606 160.116 17.2366 160.116 19.7974C160.116 22.3582 162.47 24.4341 165.375 24.4341Z" stroke="#03012C" stroke-width="0.316" stroke-miterlimit="10"/>
<path d="M179.632 24.4341C182.537 24.4341 184.891 22.3582 184.891 19.7974C184.891 17.2366 182.537 15.1606 179.632 15.1606C176.728 15.1606 174.373 17.2366 174.373 19.7974C174.373 22.3582 176.728 24.4341 179.632 24.4341Z" stroke="#03012C" stroke-width="0.316" stroke-miterlimit="10"/>
<path d="M170.614 19.7983C170.614 19.7983 172.493 18.8975 174.373 19.7983" stroke="#03012C" stroke-width="0.316" stroke-miterlimit="10"/>
<path d="M156.976 20.0801C156.976 20.0801 159.075 20.2211 159.815 22.2839C159.815 22.2839 157.796 22.0547 157.776 23.7119" stroke="#03012C" stroke-width="0.316" stroke-miterlimit="10" stroke-linecap="round" stroke-linejoin="round"/>
</svg>
