<svg width="247" height="56" viewBox="0 0 247 56" fill="none" xmlns="http://www.w3.org/2000/svg">
<circle cx="32" cy="28" r="28" fill="#D9D9D9"/>
<path d="M38.0002 24C38.0002 24.5304 37.7895 25.0391 37.4145 25.4142C37.0394 25.7893 36.5307 26 36.0002 26C35.4698 26 34.9611 25.7893 34.586 25.4142C34.211 25.0391 34.0002 24.5304 34.0002 24C34.0002 23.4696 34.211 22.9609 34.586 22.5858C34.9611 22.2107 35.4698 22 36.0002 22C36.5307 22 37.0394 22.2107 37.4145 22.5858C37.7895 22.9609 38.0002 23.4696 38.0002 24Z" fill="black"/>
<path fill-rule="evenodd" clip-rule="evenodd" d="M31.9432 17.25H32.0572C34.3662 17.25 36.1752 17.25 37.5872 17.44C39.0312 17.634 40.1712 18.04 41.0662 18.934C41.9612 19.829 42.3662 20.969 42.5602 22.414C42.7502 23.825 42.7502 25.634 42.7502 27.943V28.031C42.7502 29.94 42.7502 31.502 42.6462 32.774C42.5422 34.054 42.3292 35.121 41.8512 36.009C41.6412 36.4 41.3812 36.751 41.0662 37.066C40.1712 37.961 39.0312 38.366 37.5862 38.56C36.1752 38.75 34.3662 38.75 32.0572 38.75H31.9432C29.6342 38.75 27.8252 38.75 26.4132 38.56C24.9692 38.366 23.8292 37.96 22.9342 37.066C22.1412 36.273 21.7312 35.286 21.5142 34.06C21.2992 32.857 21.2602 31.36 21.2522 29.502C21.2502 29.029 21.2502 28.529 21.2502 28.001V27.943C21.2502 25.634 21.2502 23.825 21.4402 22.413C21.6342 20.969 22.0402 19.829 22.9342 18.934C23.8292 18.039 24.9692 17.634 26.4142 17.44C27.8252 17.25 29.6342 17.25 31.9432 17.25ZM26.6132 18.926C25.3352 19.098 24.5642 19.426 23.9952 19.995C23.4252 20.565 23.0982 21.335 22.9262 22.614C22.7522 23.914 22.7502 25.622 22.7502 28V28.844L23.7512 27.968C24.1903 27.5837 24.7591 27.3806 25.3423 27.3999C25.9255 27.4192 26.4796 27.6594 26.8922 28.072L31.1822 32.362C31.5152 32.6948 31.9548 32.8996 32.4238 32.9402C32.8928 32.9808 33.3611 32.8547 33.7462 32.584L34.0442 32.374C34.5999 31.9835 35.2717 31.7932 35.9496 31.834C36.6275 31.8749 37.2715 32.1446 37.7762 32.599L40.6062 35.146C40.8922 34.548 41.0612 33.762 41.1512 32.653C41.2492 31.448 41.2502 29.946 41.2502 28C41.2502 25.622 41.2482 23.914 41.0742 22.614C40.9022 21.335 40.5742 20.564 40.0052 19.994C39.4352 19.425 38.6652 19.098 37.3862 18.926C36.0862 18.752 34.3782 18.75 32.0002 18.75C29.6222 18.75 27.9132 18.752 26.6132 18.926Z" fill="black"/>
</svg>
