<svg width="16" height="17" viewBox="0 0 16 17" fill="none" xmlns="http://www.w3.org/2000/svg">
<path d="M14.2857 16.7053H1.71429C0.7675 16.7053 0 15.9378 0 14.991V2.41961C0 1.47282 0.7675 0.705322 1.71429 0.705322H14.2857C15.2325 0.705322 16 1.47282 16 2.41961V14.991C16 15.9378 15.2325 16.7053 14.2857 16.7053ZM6.9755 13.2032L13.5469 6.63179C13.7701 6.40864 13.7701 6.04682 13.5469 5.82368L12.7388 5.01557C12.5157 4.79243 12.1539 4.79239 11.9307 5.01557L6.57143 10.3748L4.06932 7.87268C3.84618 7.64954 3.48436 7.64954 3.26118 7.87268L2.45307 8.68079C2.22993 8.90393 2.22993 9.26575 2.45307 9.48889L6.16736 13.2032C6.39054 13.4264 6.75232 13.4264 6.9755 13.2032Z" fill="#26A96C"/>
</svg>
