<svg width="16" height="17" viewBox="0 0 16 17" fill="none" xmlns="http://www.w3.org/2000/svg">
<path d="M14.2857 16.9836H1.71429C0.7675 16.9836 0 16.2161 0 15.2694V2.69793C0 1.75114 0.7675 0.983643 1.71429 0.983643H14.2857C15.2325 0.983643 16 1.75114 16 2.69793V15.2694C16 16.2161 15.2325 16.9836 14.2857 16.9836ZM6.9755 13.4815L13.5469 6.91011C13.7701 6.68696 13.7701 6.32514 13.5469 6.102L12.7388 5.29389C12.5157 5.07075 12.1539 5.07071 11.9307 5.29389L6.57143 10.6531L4.06932 8.151C3.84618 7.92786 3.48436 7.92786 3.26118 8.151L2.45307 8.95911C2.22993 9.18225 2.22993 9.54407 2.45307 9.76721L6.16736 13.4815C6.39054 13.7047 6.75232 13.7047 6.9755 13.4815Z" fill="#26A96C"/>
</svg>
