<svg width="16" height="17" viewBox="0 0 16 17" fill="none" xmlns="http://www.w3.org/2000/svg">
<path d="M14.2857 16.4939H1.71429C0.7675 16.4939 0 15.7264 0 14.7796V2.20818C0 1.2614 0.7675 0.493896 1.71429 0.493896H14.2857C15.2325 0.493896 16 1.2614 16 2.20818V14.7796C16 15.7264 15.2325 16.4939 14.2857 16.4939ZM6.9755 12.9918L13.5469 6.42036C13.7701 6.19722 13.7701 5.8354 13.5469 5.61225L12.7388 4.80415C12.5157 4.581 12.1539 4.58097 11.9307 4.80415L6.57143 10.1634L4.06932 7.66125C3.84618 7.43811 3.48436 7.43811 3.26118 7.66125L2.45307 8.46936C2.22993 8.6925 2.22993 9.05433 2.45307 9.27747L6.16736 12.9918C6.39054 13.215 6.75232 13.215 6.9755 12.9918Z" fill="#26A96C"/>
</svg>
