<svg width="16" height="17" viewBox="0 0 16 17" fill="none" xmlns="http://www.w3.org/2000/svg">
<path d="M14.2857 16.553H1.71429C0.7675 16.553 0 15.7855 0 14.8387V2.26726C0 1.32048 0.7675 0.552979 1.71429 0.552979H14.2857C15.2325 0.552979 16 1.32048 16 2.26726V14.8387C16 15.7855 15.2325 16.553 14.2857 16.553ZM6.9755 13.0509L13.5469 6.47944C13.7701 6.2563 13.7701 5.89448 13.5469 5.67134L12.7388 4.86323C12.5157 4.64009 12.1539 4.64005 11.9307 4.86323L6.57143 10.2224L4.06932 7.72034C3.84618 7.49719 3.48436 7.49719 3.26118 7.72034L2.45307 8.52844C2.22993 8.75159 2.22993 9.11341 2.45307 9.33655L6.16736 13.0508C6.39054 13.274 6.75232 13.2741 6.9755 13.0509Z" fill="#26A96C"/>
</svg>
